<svg width="20" height="20" viewBox="0 0 20 20" fill="none" xmlns="http://www.w3.org/2000/svg">
<g id="Group 563">
<path id="Union" fill-rule="evenodd" clip-rule="evenodd" d="M2 2C1.44772 2 1 2.44772 1 3V16C1 16.5523 1.44772 17 2 17H7.5C7.5 18.1046 8.39543 19 9.5 19H10.5C11.6046 19 12.5 18.1046 12.5 17H18C18.5523 17 19 16.5523 19 16V3C19 2.44772 18.5523 2 18 2H12C10.8954 2 10 2.89543 10 4C10 2.89543 9.10457 2 8 2H2ZM3.5 3.5C3.22386 3.5 3 3.72386 3 4V13C3 13.2761 3.22386 13.5 3.5 13.5H8.5C8.77614 13.5 9 13.2761 9 13V4C9 3.72386 8.77614 3.5 8.5 3.5H3.5ZM17 4C17 3.72386 16.7761 3.5 16.5 3.5H11.5C11.2239 3.5 11 3.72386 11 4V13C11 13.2761 11.2239 13.5 11.5 13.5H16.5C16.7761 13.5 17 13.2761 17 13V4Z" fill="currentColor"/>
</g>
</svg>
