<svg width="100" height="100" viewBox="0 0 100 100" fill="none" xmlns="http://www.w3.org/2000/svg">
<style>
  .outer-ring,
  .inner-ring {
    transform-box: view-box;
    transform-origin: center;
  }

  .outer-ring {
    animation: outer-spin 3.2s linear infinite;
  }

  .inner-ring {
    animation:
      inner-spin 2.15s linear infinite,
      inner-breathe 3.2s ease-in-out infinite;
  }

  @keyframes outer-spin {
    to {
      transform: rotate(360deg);
    }
  }

  @keyframes inner-spin {
    to {
      transform: rotate(-360deg);
    }
  }

  @keyframes inner-breathe {
    0%,
    100% {
      opacity: 0.48;
    }

    50% {
      opacity: 1;
    }
  }

  @media (prefers-reduced-motion: reduce) {
    .outer-ring,
    .inner-ring {
      animation-play-state: paused;
    }
  }
</style>
<path class="outer-ring" d="M50.8438 83.9893C50.5632 83.9961 50.282 84 50 84C49.718 84 49.4368 83.9961 49.1562 83.9893L49.3516 75.9922C49.567 75.9974 49.7831 76 50 76C50.2169 76 50.433 75.9974 50.6484 75.9922L50.8438 83.9893ZM41.3516 74.5283C41.7553 74.6707 42.1636 74.8031 42.5762 74.9258L40.2969 82.5938C39.756 82.433 39.2206 82.2598 38.6914 82.0732L41.3516 74.5283ZM61.3086 82.0732C60.7794 82.2598 60.244 82.433 59.7031 82.5938L57.4238 74.9258C57.8364 74.8031 58.2447 74.6707 58.6484 74.5283L61.3086 82.0732ZM34.2021 70.6523C34.5432 70.9137 34.8911 71.1666 35.2451 71.4111L30.6992 77.9941C30.2364 77.6745 29.7816 77.3435 29.3359 77.002L34.2021 70.6523ZM70.6641 77.002C70.2184 77.3435 69.7636 77.6745 69.3008 77.9941L64.7549 71.4111C65.1089 71.1666 65.4568 70.9137 65.7979 70.6523L70.6641 77.002ZM28.5889 64.7549C28.8334 65.1089 29.0863 65.4568 29.3477 65.7979L22.998 70.6641C22.6565 70.2184 22.3255 69.7636 22.0059 69.3008L28.5889 64.7549ZM77.9941 69.3008C77.6745 69.7636 77.3435 70.2184 77.002 70.6641L70.6523 65.7979C70.9137 65.4568 71.1666 65.1089 71.4111 64.7549L77.9941 69.3008ZM25.0742 57.4238C25.1969 57.8364 25.3293 58.2447 25.4717 58.6484L17.9268 61.3086C17.7402 60.7794 17.567 60.244 17.4062 59.7031L25.0742 57.4238ZM82.5938 59.7031C82.433 60.244 82.2598 60.7794 82.0732 61.3086L74.5283 58.6484C74.6707 58.2447 74.8031 57.8364 74.9258 57.4238L82.5938 59.7031ZM16 50C16 49.718 16.0039 49.4368 16.0107 49.1562L24.0078 49.3516C24.0026 49.567 24 49.7831 24 50C24 50.2169 24.0026 50.433 24.0078 50.6484L16.0107 50.8438C16.0039 50.5632 16 50.282 16 50ZM76 50C76 49.7831 75.9974 49.567 75.9922 49.3516L83.9893 49.1562C83.9961 49.4368 84 49.718 84 50C84 50.282 83.9961 50.5632 83.9893 50.8438L75.9922 50.6484C75.9974 50.433 76 50.2169 76 50ZM25.4717 41.3516C25.3293 41.7553 25.1969 42.1636 25.0742 42.5762L17.4062 40.2969C17.567 39.756 17.7402 39.2206 17.9268 38.6914L25.4717 41.3516ZM82.0732 38.6914C82.2598 39.2206 82.433 39.756 82.5938 40.2969L74.9258 42.5762C74.8031 42.1636 74.6707 41.7553 74.5283 41.3516L82.0732 38.6914ZM29.3477 34.2021C29.0863 34.5432 28.8334 34.8911 28.5889 35.2451L22.0059 30.6992C22.3255 30.2364 22.6565 29.7816 22.998 29.3359L29.3477 34.2021ZM77.002 29.3359C77.3435 29.7816 77.6745 30.2364 77.9941 30.6992L71.4111 35.2451C71.1666 34.8911 70.9137 34.5432 70.6523 34.2021L77.002 29.3359ZM35.2451 28.5889C34.8911 28.8334 34.5432 29.0863 34.2021 29.3477L29.3359 22.998C29.7816 22.6565 30.2364 22.3255 30.6992 22.0059L35.2451 28.5889ZM69.3008 22.0059C69.7636 22.3255 70.2184 22.6565 70.6641 22.998L65.7979 29.3477C65.4568 29.0863 65.1089 28.8334 64.7549 28.5889L69.3008 22.0059ZM42.5762 25.0742C42.1636 25.1969 41.7553 25.3293 41.3516 25.4717L38.6914 17.9268C39.2206 17.7402 39.756 17.567 40.2969 17.4062L42.5762 25.0742ZM59.7031 17.4062C60.244 17.567 60.7794 17.7402 61.3086 17.9268L58.6484 25.4717C58.2447 25.3293 57.8364 25.1969 57.4238 25.0742L59.7031 17.4062ZM50.8438 16.0107L50.6484 24.0078C50.433 24.0026 50.2169 24 50 24C49.7831 24 49.567 24.0026 49.3516 24.0078L49.1562 16.0107C49.4368 16.0039 49.718 16 50 16C50.282 16 50.5632 16.0039 50.8438 16.0107Z" fill="#335CFF"/>
<path class="inner-ring" d="M49.2236 35.5205C49.4818 35.5067 49.7409 35.5 50 35.5C50.2591 35.5 50.5182 35.5067 50.7764 35.5205L50.3477 43.5098C50.232 43.5036 50.1161 43.5 50 43.5C49.8839 43.5 49.768 43.5036 49.6523 43.5098L49.2236 35.5205ZM52.4873 43.9951C52.38 43.9507 52.2714 43.9087 52.1621 43.8701L54.8242 36.3262C55.0679 36.4121 55.3096 36.5044 55.5488 36.6035C55.7882 36.7027 56.0246 36.8084 56.2578 36.9199L52.8057 44.1367C52.7011 44.0867 52.5946 44.0396 52.4873 43.9951ZM43.7422 36.9199C43.9754 36.8084 44.2118 36.7027 44.4512 36.6035C44.6904 36.5044 44.9321 36.4121 45.1758 36.3262L47.8379 43.8701C47.7286 43.9087 47.62 43.9507 47.5127 43.9951C47.4054 44.0396 47.2989 44.0867 47.1943 44.1367L43.7422 36.9199ZM54.5967 45.4033C54.5145 45.3212 54.43 45.2415 54.3438 45.1641L59.6895 39.2129C59.8818 39.3857 60.0697 39.5638 60.2529 39.7471C60.4362 39.9303 60.6143 40.1182 60.7871 40.3105L54.8359 45.6562C54.7585 45.57 54.6788 45.4855 54.5967 45.4033ZM39.2129 40.3105C39.3857 40.1182 39.5638 39.9303 39.7471 39.7471C39.9303 39.5638 40.1182 39.3857 40.3105 39.2129L45.6562 45.1641C45.57 45.2415 45.4855 45.3212 45.4033 45.4033C45.3212 45.4855 45.2415 45.57 45.1641 45.6562L39.2129 40.3105ZM56.0049 47.5127C55.9604 47.4054 55.9133 47.2989 55.8633 47.1943L63.0801 43.7422C63.1916 43.9754 63.2973 44.2118 63.3965 44.4512C63.4956 44.6904 63.5879 44.9321 63.6738 45.1758L56.1299 47.8379C56.0913 47.7286 56.0493 47.62 56.0049 47.5127ZM36.3262 45.1758C36.4121 44.9321 36.5044 44.6904 36.6035 44.4512C36.7027 44.2118 36.8084 43.9754 36.9199 43.7422L44.1367 47.1943C44.0867 47.2989 44.0396 47.4054 43.9951 47.5127C43.9507 47.62 43.9087 47.7286 43.8701 47.8379L36.3262 45.1758ZM64.5 50C64.5 50.2591 64.4933 50.5182 64.4795 50.7764L56.4902 50.3477C56.4964 50.232 56.5 50.1161 56.5 50C56.5 49.8839 56.4964 49.768 56.4902 49.6523L64.4795 49.2236C64.4933 49.4818 64.5 49.7409 64.5 50ZM43.5 50C43.5 50.1161 43.5036 50.232 43.5098 50.3477L35.5205 50.7764C35.5067 50.5182 35.5 50.2591 35.5 50C35.5 49.7409 35.5067 49.4818 35.5205 49.2236L43.5098 49.6523C43.5036 49.768 43.5 49.8839 43.5 50ZM55.8633 52.8057C55.9133 52.7011 55.9604 52.5946 56.0049 52.4873C56.0493 52.38 56.0913 52.2714 56.1299 52.1621L63.6738 54.8242C63.5879 55.0679 63.4956 55.3096 63.3965 55.5488C63.2973 55.7882 63.1916 56.0246 63.0801 56.2578L55.8633 52.8057ZM36.9199 56.2578C36.8084 56.0246 36.7027 55.7882 36.6035 55.5488C36.5044 55.3096 36.4121 55.0679 36.3262 54.8242L43.8701 52.1621C43.9087 52.2714 43.9507 52.38 43.9951 52.4873C44.0396 52.5946 44.0867 52.7011 44.1367 52.8057L36.9199 56.2578ZM54.3438 54.8359C54.43 54.7585 54.5145 54.6788 54.5967 54.5967C54.6788 54.5145 54.7585 54.43 54.8359 54.3438L60.7871 59.6895C60.6143 59.8818 60.4362 60.0697 60.2529 60.2529C60.0697 60.4362 59.8818 60.6143 59.6895 60.7871L54.3438 54.8359ZM40.3105 60.7871C40.1182 60.6143 39.9303 60.4362 39.7471 60.2529C39.5638 60.0697 39.3857 59.8818 39.2129 59.6895L45.1641 54.3438C45.2415 54.43 45.3212 54.5145 45.4033 54.5967C45.4855 54.6788 45.57 54.7585 45.6562 54.8359L40.3105 60.7871ZM52.1621 56.1299C52.2714 56.0913 52.38 56.0493 52.4873 56.0049C52.5946 55.9604 52.7011 55.9133 52.8057 55.8633L56.2578 63.0801C56.0246 63.1916 55.7882 63.2973 55.5488 63.3965C55.3096 63.4956 55.0679 63.5879 54.8242 63.6738L52.1621 56.1299ZM45.1758 63.6738C44.9321 63.5879 44.6904 63.4956 44.4512 63.3965C44.2118 63.2973 43.9754 63.1916 43.7422 63.0801L47.1943 55.8633C47.2989 55.9133 47.4054 55.9604 47.5127 56.0049C47.62 56.0493 47.7286 56.0913 47.8379 56.1299L45.1758 63.6738ZM50 64.5C49.7409 64.5 49.4818 64.4933 49.2236 64.4795L49.6523 56.4902C49.768 56.4964 49.8839 56.5 50 56.5C50.1161 56.5 50.232 56.4964 50.3477 56.4902L50.7764 64.4795C50.5182 64.4933 50.2591 64.5 50 64.5Z" fill="#335CFF"/>
</svg>
