<svg width="28" height="28" viewBox="0 0 28 28" fill="currentColor" xmlns="http://www.w3.org/2000/svg">
    <g id="Group 468">
        <g id="Group 466">
            <rect id="Rectangle 221" x="8" y="9" width="12" height="1.71429" rx="0.857143" fill="#9CA3BA" />
            <rect id="Rectangle 222" x="11.4285" y="7" width="5.14286" height="1.71429" rx="0.857143" fill="#9CA3BA" />
            <path id="Subtract" fill-rule="evenodd" clip-rule="evenodd"
                d="M9 12C9 11.4477 9.44772 11 10 11H18C18.5523 11 19 11.4477 19 12V19C19 20.1046 18.1046 21 17 21H11C9.89543 21 9 20.1046 9 19V12ZM12.7143 14C13.1877 14 13.5714 14.3838 13.5714 14.8571V17.1429C13.5714 17.6162 13.1877 18 12.7143 18C12.2409 18 11.8572 17.6162 11.8572 17.1429V14.8571C11.8572 14.3838 12.2409 14 12.7143 14ZM16.1429 14.8571C16.1429 14.3838 15.7591 14 15.2857 14C14.8123 14 14.4286 14.3838 14.4286 14.8571V17.1429C14.4286 17.6162 14.8123 18 15.2857 18C15.7591 18 16.1429 17.6162 16.1429 17.1429V14.8571Z"
                fill="#9CA3BA" />
        </g>
    </g>
</svg>