<?xml version="1.0" encoding="UTF-8"?>
<svg width="16px" height="16px" viewBox="0 0 16 16" version="1.1" xmlns="http://www.w3.org/2000/svg" xmlns:xlink="http://www.w3.org/1999/xlink">
    <title>编辑</title>
    <g id="我的知识" stroke="none" stroke-width="1" fill="none" fill-rule="evenodd">
        <g id="我的知识最新设计图" transform="translate(-962.000000, -168.000000)">
            <g id="编组-5" transform="translate(952.000000, 158.000000)">
                <g id="编辑" transform="translate(10.000000, 10.000000)">
                    <rect id="矩形" fill="#D8D8D8" opacity="0" x="0" y="0" width="16" height="16"></rect>
                    <path d="M9.90909091,0 C10.2506676,0.000812494477 10.5306818,0.272691533 10.5435011,0.615979083 C10.5563205,0.959266633 10.2973721,1.25150279 9.95681818,1.27808001 L9.90909091,1.28000001 L2.27272728,1.28000001 L2.27272728,14.72 L13.7272727,14.72 L13.7272727,5.2112 C13.7257365,4.86597463 13.9967277,4.58173971 14.3397533,4.56878656 C14.6827789,4.5558334 14.9742002,4.81883079 14.9984091,5.1632 L15,5.2112 L15,14.72 C15,15.4020484 14.468234,15.9642976 13.7909091,15.9984 L13.7272727,16 L2.27272728,16 C1.59455411,16 1.03549958,15.4651953 1.00159092,14.784 L1,14.72 L1,1.28000001 C1,0.59795156 1.531766,0.0357024313 2.20909092,0.0016000125 L2.27272728,0 L9.90909091,0 Z M11.5,9.59999999 L11.5,10.24 C11.5,10.5934622 11.2150903,10.88 10.8636364,10.88 L5.13636364,10.88 C4.78490971,10.88 4.50000001,10.5934622 4.50000001,10.24 L4.50000001,9.59999999 L11.5,9.59999999 Z M14.6433422,0.494739509 C14.88903,0.732816444 14.9043184,1.12339571 14.678,1.38016001 L14.6398182,1.41984 L8.12027273,7.65664001 C7.87303276,7.89023229 7.48706425,7.88771135 7.24286183,7.65090923 C6.9986594,7.41410711 6.98208417,7.02628299 7.20518183,6.76928 L7.24336364,6.72928001 L13.7622727,0.492800006 C14.0089945,0.255807014 14.3976544,0.256662574 14.6433422,0.494739509 Z" id="形状结合" fill="#545A60" fill-rule="nonzero"></path>
                </g>
            </g>
        </g>
    </g>
</svg>