<svg width="64" height="64" viewBox="0 0 64 64" fill="none" xmlns="http://www.w3.org/2000/svg">
<path d="M16 8H38L50 20V52C50 54.2091 48.2091 56 46 56H16C13.7909 56 12 54.2091 12 52V12C12 9.79086 13.7909 8 16 8Z" fill="#F53F3F"/>
<path d="M38 8V18C38 19.1046 38.8954 20 40 20H50L38 8Z" fill="#FF8A8A"/>
<path d="M20 40V28H24.8C27.5556 28 29.2 29.5111 29.2 31.92C29.2 34.3556 27.5556 35.92 24.8 35.92H22.64V40H20ZM22.64 33.76H24.56C25.8133 33.76 26.5067 33.12 26.5067 31.9467C26.5067 30.8 25.8133 30.16 24.56 30.16H22.64V33.76Z" fill="white"/>
<path d="M30.8 40V28H35.12C38.7467 28 41.04 30.2933 41.04 34C41.04 37.7067 38.7467 40 35.12 40H30.8ZM33.44 37.7067H35.0133C37.12 37.7067 38.2667 36.3733 38.2667 34C38.2667 31.6267 37.12 30.2933 35.0133 30.2933H33.44V37.7067Z" fill="white"/>
<path d="M42.72 40V28H50.56V30.2933H45.36V33.0667H49.8933V35.36H45.36V40H42.72Z" fill="white"/>
</svg>
