<svg width="64" height="64" viewBox="0 0 64 64" fill="none" xmlns="http://www.w3.org/2000/svg">
<path d="M8 17.6C8 15.6118 9.61177 14 11.6 14H27.44C28.5083 14 29.5214 14.4745 30.2054 15.2958L34.12 20H52.4C54.3882 20 56 21.6118 56 23.6V46.4C56 48.3882 54.3882 50 52.4 50H11.6C9.61178 50 8 48.3882 8 46.4V17.6Z" fill="#FFB900"/>
<path d="M8 27.2C8 25.2118 9.61177 23.6 11.6 23.6H52.4C54.3882 23.6 56 25.2118 56 27.2V46.4C56 48.3882 54.3882 50 52.4 50H11.6C9.61178 50 8 48.3882 8 46.4V27.2Z" fill="#FFC43D"/>
<path d="M8 28.4H56V31.2H8V28.4Z" fill="#F5A800"/>
</svg>
