<?xml version="1.0" encoding="UTF-8"?>
<svg width="16px" height="16px" viewBox="0 0 16 16" version="1.1" xmlns="http://www.w3.org/2000/svg" xmlns:xlink="http://www.w3.org/1999/xlink">
    <title>新建</title>
    <g id="我的知识" stroke="none" stroke-width="1" fill="none" fill-rule="evenodd">
        <g id="我的知识最新设计图" transform="translate(-1006.000000, -168.000000)">
            <g id="编组-4" transform="translate(996.000000, 158.000000)">
                <g id="新建" transform="translate(10.000000, 10.000000)">
                    <rect id="矩形" fill="#D8D8D8" opacity="0" x="0" y="0" width="16" height="16"></rect>
                    <path d="M5.52726529,1 C5.96362924,1 6.39999318,1.22105254 6.69090816,1.51579502 L8,3.21052541 L14.5454592,3.21052541 C15.3454541,3.21052541 16,3.87368303 16,4.68420325 L16,13.5263049 C16,14.3368424 15.3454541,15 14.5454592,15 L1.45454081,15 C0.654545919,15 0,14.3368424 0,13.5263049 L0,2.47367785 C0,1.66315762 0.654545919,1 1.45454081,1 Z M5.52726529,2.47367785 L1.45454081,2.47367785 L1.45454081,13.5263049 L14.5454592,13.5263049 L14.5454592,4.68420325 L8,4.68420325 C7.56363605,4.68420325 7.12727211,4.46315071 6.83635713,4.16842551 L5.52726529,2.47367785 Z M8,6.15789837 C8.43636395,6.15789837 8.72727893,6.45262358 8.72727893,6.89472866 L8.72727893,8.36842378 L10.1818197,8.36842378 C10.6181837,8.36842378 10.9090987,8.66314899 10.9090987,9.10525407 C10.9090987,9.54735915 10.6181837,9.84210163 10.1818197,9.84210163 L8.72727893,9.84210163 L8.72727893,11.3157795 C8.72727893,11.7578846 8.43636395,12.052627 8,12.052627 C7.56363605,12.052627 7.27272107,11.7578846 7.27272107,11.3157795 L7.27272107,9.84210163 L5.81818027,9.84210163 C5.38181632,9.84210163 5.09090134,9.54735915 5.09090134,9.10525407 C5.09090134,8.66314899 5.38181632,8.36842378 5.81818027,8.36842378 L7.27272107,8.36842378 L7.27272107,6.89472866 C7.27272107,6.45262358 7.56363605,6.15789837 8,6.15789837 Z" id="形状结合" fill="#545A60" fill-rule="nonzero"></path>
                </g>
            </g>
        </g>
    </g>
</svg>