<?xml version="1.0" encoding="UTF-8"?>
<svg width="16px" height="16px" viewBox="0 0 16 16" version="1.1" xmlns="http://www.w3.org/2000/svg" xmlns:xlink="http://www.w3.org/1999/xlink">
    <title>上传</title>
    <g id="我的知识" stroke="none" stroke-width="1" fill="none" fill-rule="evenodd">
        <g id="我的知识最新设计图" transform="translate(-830.000000, -168.000000)" fill="#545A60" fill-rule="nonzero">
            <g id="编组-7" transform="translate(820.000000, 158.000000)">
                <g id="上传" transform="translate(10.000000, 10.000000)">
                    <path d="M15.2733315,9.64640537 C15.6746594,9.64640537 16,9.99804953 16,10.4318246 L16,15.2145808 C15.9991875,15.6479915 15.6743224,15.9991218 15.2733315,16 L0.726668513,16 C0.325677625,15.9991218 0.000812547359,15.6479915 0,15.2145808 L0,10.4318246 C0,9.99804953 0.325340575,9.64640537 0.726668513,9.64640537 C1.12799645,9.64640537 1.45333703,9.99804953 1.45333703,10.4318246 L1.45333703,14.4291615 L14.546663,14.4291615 L14.546663,10.4318246 C14.546663,9.99804953 14.8720035,9.64640537 15.2733315,9.64640537 Z M8.00147697,0 C8.08641248,0 8.16646354,0.0429206589 8.21785286,0.116013413 L11.5838641,4.52362014 C11.7034986,4.68006544 11.6473738,4.80777588 11.4597988,4.80777588 L8.7028289,4.807 L8.7037755,11.1932981 C8.7037755,11.4653464 8.56949591,11.7167294 8.35151852,11.8527536 C8.13354113,11.9887777 7.8649819,11.9887777 7.64700451,11.8527536 C7.42902712,11.7167294 7.29474753,11.4653464 7.29474753,11.1932981 L7.2938289,4.807 L4.54020124,4.80777588 C4.35114927,4.80777588 4.29650143,4.67846906 4.41613588,4.52362014 L7.78510108,0.116013413 C7.8364904,0.0429206589 7.91654145,0 8.00147697,0 Z" id="形状结合"></path>
                </g>
            </g>
        </g>
    </g>
</svg>