<?xml version="1.0" encoding="UTF-8"?>
<svg width="18px" height="18px" viewBox="0 0 18 18" version="1.1" xmlns="http://www.w3.org/2000/svg" xmlns:xlink="http://www.w3.org/1999/xlink">
    <title>网页链接</title>
    <g id="我的知识" stroke="none" stroke-width="1" fill="none" fill-rule="evenodd">
        <g id="我的知识最新设计图" transform="translate(-917.000000, -167.000000)" fill="#545A60" fill-rule="nonzero" stroke="#545A60" stroke-width="0.2">
            <g id="编组-6" transform="translate(908.000000, 158.000000)">
                <g id="网页链接" transform="translate(10.000000, 10.000000)">
                    <path d="M8,0 C12.4444445,0 16,3.55555555 16,8 C16,12.4444445 12.4444445,16 8,16 C3.55555556,16 0,12.4444445 0,8 C0,3.55555555 3.55555555,0 8,0 Z M9.79387972,12.0004377 L6.22787207,11.9999652 C6.55465491,12.9245187 7.01565708,13.8770793 7.64444444,14.8444444 L7.84343348,15.1093993 C7.8954911,15.1105385 7.94768193,15.1111111 8,15.1111111 L8.224,15.107 L8.35555556,14.9333333 C9.00135524,13.9397953 9.46843264,12.9566684 9.79387972,12.0004377 Z M5.31471145,12.0003802 L2.12986075,12.001377 C3.17729767,13.5301965 4.80488957,14.6341476 6.68843156,14.9890253 C6.06991798,13.9737771 5.62410112,12.9732054 5.31471145,12.0003802 Z M13.8701393,12.001377 L10.6903905,12.0003802 C10.3782522,12.9732054 9.9305511,13.9737771 9.31279881,14.9872548 C11.1951104,14.6341476 12.8227023,13.5301965 13.8701393,12.001377 Z M5.13318606,4.88842468 L1.6101282,4.88873991 C1.1484696,5.82980679 0.888888891,6.88606109 0.888888891,8 C0.888888891,9.11393891 1.1484696,10.1701932 1.6101282,11.1112601 L5.06704814,11.1115413 C4.50548203,8.7694873 4.70051927,6.6220057 5.13318606,4.88842468 Z M9.99105255,4.88820987 L5.97823498,4.88789824 C5.52386721,6.5804016 5.31231768,8.7347485 5.95168553,11.1117533 L10.0589602,11.1110473 C10.6657655,8.74424085 10.4443632,6.58162108 9.99105255,4.88820987 Z M14.3898718,4.88873991 L10.9012558,4.88842468 C11.3271968,6.6220057 11.5102855,8.7694873 10.9408154,11.1115413 L14.3898718,11.1112601 C14.8515304,10.1701932 15.1111111,9.11393891 15.1111111,8 C15.1111111,6.88606109 14.8515304,5.82980679 14.3898718,4.88873991 Z M6.70577527,1.0082554 L6.5998215,1.02825939 C4.75346873,1.4007374 3.16013254,2.49431269 2.12917701,3.99962119 L5.38500625,3.99975422 C5.83315425,2.58777524 6.39720013,1.53829314 6.70577527,1.0082554 Z M8,0.888888891 L7.843,0.891 L7.64444444,1.15555556 C7.6369327,1.16682316 7.62180343,1.18888228 7.60006246,1.22133727 L7.54806294,1.29999121 C7.31550422,1.65636794 6.72851825,2.61719115 6.25056607,4.00016616 L9.720202,4.00047119 C9.13358864,2.29098459 8.39101124,1.24444445 8.35555556,1.24444445 L8.14295009,0.890315741 C8.09540911,0.889366018 8.04775757,0.888888891 8,0.888888891 Z M9.32453531,1.01343037 L9.35587949,1.06640752 C9.68278104,1.61294604 10.2241198,2.63768971 10.6524887,3.99975422 L13.870823,3.99962119 C12.8258145,2.47379382 11.2029892,1.37100084 9.32453531,1.01343037 Z" id="形状结合"></path>
                </g>
            </g>
        </g>
    </g>
</svg>