<svg width="24" height="24" viewBox="0 0 24 24" fill="none" xmlns="http://www.w3.org/2000/svg">
<g id="Group 684">
<path id="Union" fill-rule="evenodd" clip-rule="evenodd" d="M19 13C19 12.4477 18.5523 12 18 12C17.4477 12 17 12.4477 17 13V15H15C14.4477 15 14 15.4477 14 16C14 16.5523 14.4477 17 15 17H17V19C17 19.5523 17.4477 20 18 20C18.5523 20 19 19.5523 19 19V17H21C21.5523 17 22 16.5523 22 16C22 15.4477 21.5523 15 21 15H19V13Z" fill="white"/>
<path id="Subtract" d="M11.6 7H12.4C14.1132 7 15.2777 7.00156 16.1779 7.0751C17.0548 7.14674 17.5032 7.27659 17.816 7.43597C18.5686 7.81947 19.1805 8.43139 19.564 9.18404C19.7234 9.49684 19.8533 9.94524 19.9249 10.8221C19.9303 10.8882 19.9353 10.9558 19.94 11.025C19.9765 11.5666 20.4151 12 20.958 12C21.5198 12 21.9759 11.5369 21.941 10.9762C21.8684 9.81207 21.7066 8.98376 21.346 8.27606C20.7708 7.14708 19.8529 6.2292 18.7239 5.65396C17.4405 5 15.7603 5 12.4 5H11.6C8.23969 5 6.55953 5 5.27606 5.65396C4.14708 6.2292 3.2292 7.14708 2.65396 8.27606C2 9.55953 2 11.2397 2 14.6C2 17.5823 4.41766 20 7.4 20H12C12.5523 20 13 19.5523 13 19C13 18.4477 12.5523 18 12 18H7.4C5.52223 18 4 16.4778 4 14.6C4 12.8868 4.00156 11.7223 4.0751 10.8221C4.14674 9.94524 4.27659 9.49684 4.43597 9.18404C4.81947 8.43139 5.43139 7.81947 6.18404 7.43597C6.49684 7.27659 6.94524 7.14674 7.82208 7.0751C8.72225 7.00156 9.88684 7 11.6 7Z" fill="white"/>
</g>
</svg>
