<?xml version="1.0" standalone="no"?><!DOCTYPE svg PUBLIC "-//W3C//DTD SVG 1.1//EN" "http://www.w3.org/Graphics/SVG/1.1/DTD/svg11.dtd"><svg t="1748326574740" class="icon" viewBox="0 0 1024 1024" version="1.1" xmlns="http://www.w3.org/2000/svg" p-id="6363" id="mx_n_1748326574742" width="24" height="24" xmlns:xlink="http://www.w3.org/1999/xlink"><path d="M417.216 813.312l-159.488-123.008a46.869333 46.869333 0 0 0-25.386667-7.338667H170.666667a85.333333 85.333333 0 0 1-85.333334-85.333333v-171.264a85.333333 85.333333 0 0 1 85.333334-85.333333h61.696c9.130667 0 18.048-2.581333 25.365333-7.338667l159.488-123.008A85.333333 85.333333 0 0 1 554.666667 278.250667v467.498666a85.333333 85.333333 0 0 1-137.450667 67.562667zM469.333333 767.082667a21.333333 21.333333 0 0 0 21.333334-21.333334V278.250667a21.333333 21.333333 0 0 0-34.346667-16.896l-159.509333 123.029333a64 64 0 0 1-4.224 2.986667 110.762667 110.762667 0 0 1-60.224 17.664H170.666667a21.333333 21.333333 0 0 0-21.333334 21.333333v171.264a21.333333 21.333333 0 0 0 21.333334 21.333333h61.696c21.333333 0 42.389333 6.101333 60.202666 17.642667a64 64 0 0 1 4.245334 3.008l159.488 123.029333a21.333333 21.333333 0 0 0 13.034666 4.437334z m340.010667 4.565333a32 32 0 0 1-40.021333-49.962667C828.309333 674.453333 864 597.013333 864 512c0-82.986667-36.586667-162.005333-94.869333-209.962667a32 32 0 1 1 40.661333-49.408C882.986667 312.853333 928 410.069333 928 512c0 104.106667-44.224 200.021333-118.656 259.626667z m-107.84-105.770667a32 32 0 1 1-37.674667-51.754666C695.573333 591.018667 714.666667 553.386667 714.666667 512a129.216 129.216 0 0 0-51.093334-102.378667 32 32 0 1 1 38.336-51.242666A193.194667 193.194667 0 0 1 778.666667 512c0 61.781333-28.864 118.698667-77.162667 153.877333z" fill="currentColor" p-id="6364"></path></svg>