<svg width="24" height="24" viewBox="0 0 24 24" fill="currentColor" xmlns="http://www.w3.org/2000/svg">
<g id="&#229;&#186;&#148;&#231;&#148;&#168;_application-one 1">
<path id="Subtract" fill-rule="evenodd" clip-rule="evenodd" d="M20.007 6.70985C20.3125 6.88952 20.5 7.21742 20.5 7.57179V16.4279C20.5 16.7823 20.3125 17.1102 20.007 17.2899L12.507 21.7017C12.1941 21.8858 11.8059 21.8858 11.493 21.7017L3.99297 17.2899C3.68754 17.1102 3.5 16.7823 3.5 16.4279V7.57179C3.5 7.21742 3.68755 6.88951 3.99299 6.70985L11.493 2.29822C11.8059 2.11414 12.1941 2.11414 12.507 2.29822L20.007 6.70985ZM8.53052 8.65109L7.68285 8.12057L6.62181 9.81591L7.46948 10.3464L11 12.556V16.5V17.5H13V16.5V12.5521L16.5277 10.3467L17.3756 9.81659L16.3154 8.12073L15.4674 8.65083L11.9969 10.8205L8.53052 8.65109Z" fill="currentColor"/>
</g>
</svg>
