<?xml version="1.0" standalone="no"?><!DOCTYPE svg PUBLIC "-//W3C//DTD SVG 1.1//EN" "http://www.w3.org/Graphics/SVG/1.1/DTD/svg11.dtd"><svg class="icon" width="200px" height="200.00px" viewBox="0 0 1024 1024" version="1.1" xmlns="http://www.w3.org/2000/svg"><path fill="#1296db" d="M322.029985 705.359813a37.543515 37.543515 0 0 0-21.873734-7.547078H240.80296v71.185574h56.02746a33.769976 33.769976 0 0 0 25.967064-8.95416c6.395829-6.395829 9.273952-16.117488 9.273952-29.804562a28.653313 28.653313 0 0 0-10.041451-24.879774zM317.424988 646.262356a25.583315 25.583315 0 0 0 9.465827-22.513317c0-11.1927-3.069998-19.187486-9.082077-23.024984a42.468303 42.468303 0 0 0-24.687899-6.395828H240.80296v58.265999H294.527921a36.456224 36.456224 0 0 0 22.897067-6.33187z"  /><path fill="#1296db" d="M921.319136 461.167073v-255.833149a24.048316 24.048316 0 0 0-8.314577-18.547904c-1.279166-1.279166-4.47708-3.837497-8.314578-7.674994-6.395829-6.395829-14.070823-12.791657-21.745817-20.466652-23.024983-21.106235-45.410384-42.21247-67.156202-62.039538a30.955811 30.955811 0 0 0-5.116663-4.477081c-28.781229-26.222898-53.085378-47.329133-70.993699-62.679121a297.406036 297.406036 0 0 0-24.943732-19.827069 65.237453 65.237453 0 0 0-10.233326-6.395829A28.077688 28.077688 0 0 0 691.069302 0.027822a5.564371 5.564371 0 0 0-3.197914 0.639583H102.65306v460.499668H0.3198v434.916353h102.33326a127.916574 127.916574 0 0 0 127.916574 127.916574h690.749502v-127.916574h102.333259v-434.916353z m-204.666519-383.749724c15.989572 14.070823 36.456224 31.979144 59.481207 53.085379a30.955811 30.955811 0 0 0 5.116663 4.47708c21.745818 19.827069 44.770801 40.293721 67.156201 61.399956 3.261873 3.133956 6.395829 6.395829 10.233326 8.95416H716.652617z m153.499889 895.416021H230.569634a76.749945 76.749945 0 0 1-76.749945-76.749944h716.332817z m-499.322348-273.933344A103.228676 103.228676 0 0 1 377.673695 736.187708a88.13452 88.13452 0 0 1-5.180622 30.188311 82.186399 82.186399 0 0 1-14.006865 24.687899l-0.511666 0.575625a0.703541 0.703541 0 0 0 0 0.511666 68.819117 68.819117 0 0 1-22.449359 16.501238q-13.111449 6.395829-45.794133 6.395829H197.055492V548.406176H303.482081q29.996437 0.38375 44.770802 14.902281a72.720573 72.720573 0 0 1 19.187486 31.979144 84.297023 84.297023 0 0 1 2.174581 11.1927 76.110362 76.110362 0 0 1 0.7675 10.808951 72.976406 72.976406 0 0 1-4.988747 29.804562 55.004127 55.004127 0 0 1-10.936867 16.501238 40.869346 40.869346 0 0 1-5.756245 4.796871l-5.052705 3.325831a48.92809 48.92809 0 0 1 27.182272 27.182272z m212.341513-106.682423l-40.805387 222.57484h-44.770801l-39.718096-222.57484h-0.7675v222.57484H414.769501V548.406176h66.388702l39.718097 209.975057h0.383749l38.950597-209.975057h66.004953v266.386267h-42.276428v-222.57484z m86.855354 222.57484V548.406176h99.774928a61.016206 61.016206 0 0 1 49.887465 23.344775q17.90832 23.024983 17.972278 62.35933a123.567411 123.567411 0 0 1-1.47104 16.82103 112.950335 112.950335 0 0 1-5.180622 20.466652 88.518269 88.518269 0 0 1-20.978318 32.810601 56.667042 56.667042 0 0 1-42.084553 14.774364h-52.317879v95.937431zM870.152506 461.167073H153.819689v-409.333039h511.666298v149.662393a55.004127 55.004127 0 0 0 55.004127 55.004127H870.152506z"  /><path fill="#1296db" d="M780.930695 665.833592a35.624766 35.624766 0 0 0 9.273952-16.117489 44.770801 44.770801 0 0 0 1.662916-10.041451v-8.186661c0-12.791657-3.133956-22.449359-9.465827-28.141646s-16.501238-8.57041-30.63602-8.57041h-36.328307v77.901193h42.276428a30.25227 30.25227 0 0 0 23.216858-6.843536z"  /></svg>