<?xml version="1.0" ?><svg data-name="Layer 1" id="Layer_1" viewBox="0 0 24 24" xmlns="http://www.w3.org/2000/svg"><defs><style>.cls-1{fill:#2196f3;}.cls-2{fill:#82b1ff;}.cls-3{fill:#e3f2fd;}</style></defs><title/><path class="cls-1" d="M16.5,22h-9a3,3,0,0,1-3-3V5a3,3,0,0,1,3-3h6.59a1,1,0,0,1,.7.29l4.42,4.42a1,1,0,0,1,.29.7V19A3,3,0,0,1,16.5,22Z"/><path class="cls-2" d="M18.8,7.74H15.2a1.5,1.5,0,0,1-1.5-1.5V2.64a.55.55,0,0,1,.94-.39L19.19,6.8A.55.55,0,0,1,18.8,7.74Z"/><path class="cls-3" d="M6.52,18.11a1.16,1.16,0,0,1-.64-.17,1.2,1.2,0,0,1-.43-.51,2,2,0,0,1,0-1.57,1.2,1.2,0,0,1,.43-.51,1.17,1.17,0,0,1,.64-.18,1.06,1.06,0,0,1,.5.12.87.87,0,0,1,.34.28V14.48A.45.45,0,0,1,7.87,14a.46.46,0,0,1,.51.51v3.11a.45.45,0,0,1-.5.51.44.44,0,0,1-.5-.43A.78.78,0,0,1,7,18,1.07,1.07,0,0,1,6.52,18.11Zm.33-.74a.45.45,0,0,0,.37-.18.8.8,0,0,0,.15-.55.82.82,0,0,0-.15-.55.47.47,0,0,0-.37-.17.51.51,0,0,0-.39.17.82.82,0,0,0-.15.55.8.8,0,0,0,.15.55A.48.48,0,0,0,6.85,17.37Z"/><path class="cls-3" d="M10.54,18.11a1.77,1.77,0,0,1-.82-.17,1.33,1.33,0,0,1-.54-.51,1.64,1.64,0,0,1,0-1.57,1.33,1.33,0,0,1,.54-.51,1.77,1.77,0,0,1,.82-.18,1.8,1.8,0,0,1,.82.18,1.33,1.33,0,0,1,.54.51,1.72,1.72,0,0,1,0,1.57,1.33,1.33,0,0,1-.54.51A1.8,1.8,0,0,1,10.54,18.11Zm0-.74a.48.48,0,0,0,.38-.18.87.87,0,0,0,.14-.55.89.89,0,0,0-.14-.55.5.5,0,0,0-.38-.17.51.51,0,0,0-.39.17.89.89,0,0,0-.14.55.87.87,0,0,0,.14.55A.48.48,0,0,0,10.54,17.37Z"/><path class="cls-3" d="M14.14,18.11a1.81,1.81,0,0,1-.83-.17,1.35,1.35,0,0,1-.55-.51,1.65,1.65,0,0,1-.19-.79,1.62,1.62,0,0,1,.19-.79,1.27,1.27,0,0,1,.55-.5,1.81,1.81,0,0,1,.83-.18,1.45,1.45,0,0,1,.35,0,1.47,1.47,0,0,1,.38.11.38.38,0,0,1,.23.39.38.38,0,0,1-.07.21.26.26,0,0,1-.16.13.3.3,0,0,1-.24,0,.88.88,0,0,0-.38-.09.6.6,0,0,0-.47.18.77.77,0,0,0-.17.52.76.76,0,0,0,.17.52.57.57,0,0,0,.47.19l.19,0,.19-.07a.3.3,0,0,1,.24,0,.28.28,0,0,1,.16.13.48.48,0,0,1,.07.21.46.46,0,0,1,0,.23.37.37,0,0,1-.2.16,1.92,1.92,0,0,1-.37.11Z"/><path class="cls-3" d="M16.15,18.1a.41.41,0,0,1-.3-.11.31.31,0,0,1-.12-.26.49.49,0,0,1,.13-.32l.66-.81-.59-.72a.47.47,0,0,1-.13-.33.32.32,0,0,1,.12-.26.41.41,0,0,1,.3-.11.66.66,0,0,1,.3.07.77.77,0,0,1,.23.19l.35.46.36-.46a.67.67,0,0,1,.23-.19.65.65,0,0,1,.29-.07.45.45,0,0,1,.31.11.35.35,0,0,1,.11.26.47.47,0,0,1-.13.33l-.6.72.67.81a.46.46,0,0,1,.14.32.35.35,0,0,1-.13.26.44.44,0,0,1-.3.11.67.67,0,0,1-.3-.06.7.7,0,0,1-.23-.2l-.42-.54-.43.54a.64.64,0,0,1-.22.19A.56.56,0,0,1,16.15,18.1Z"/></svg>