<?xml version="1.0" encoding="UTF-8"?>
<svg id="_图层_1" xmlns="http://www.w3.org/2000/svg" xmlns:xlink="http://www.w3.org/1999/xlink"
  xmlns:sketch="http://www.bohemiancoding.com/sketch/ns" version="1.1" viewBox="0 0 24 24">
  <!-- Generator: Adobe Illustrator 29.1.0, SVG Export Plug-In . SVG Version: 2.1.0 Build 142)  -->
  <defs>
    <style>
      .st444 {
        clip-path: url(#clippath);
      }
    </style>
    <clipPath id="clippath">
      <rect fill="none" x="7.4" y="12.3" width="9.2" height="7" rx=".5" ry=".5" />
    </clipPath>
  </defs>
  <path fill="#157efb"
    d="M16.5,22H7.5c-1.7,0-3-1.3-3-3V5c0-1.7,1.3-3,3-3h6.6c.3,0,.5,0,.7.3l4.4,4.4c.2.2.3.4.3.7v11.6c0,1.7-1.3,3-3,3Z" />
  <path fill="#7dbeff"
    d="M18.8,7.7h-3.6c-.8,0-1.5-.7-1.5-1.5v-3.6c0-.3.2-.6.5-.6s.3,0,.4.2l4.6,4.6c.2.2.2.6,0,.8-.1.1-.2.2-.4.2h0Z" />
  <g class="st444">
    <g id="Page-1">
      <path id="document-image" fill="#7dbeff"
        d="M15.9,17.3v-3.8c0-.2-.2-.5-.5-.5h-6.8c-.2,0-.5.2-.5.5v4.5h0l1.5-1.2c.2-.1.4-.1.6,0l.4.4c.2.1.4.1.6,0l2-1.8c.2-.2.4-.2.6,0l2.1,1.9h0ZM7.4,12.6v6.3c0,.2.2.5.5.5h8.2c.2,0,.5-.2.5-.5v-6.1c0-.2-.2-.5-.5-.5H7.4s0,.3,0,.3ZM10.2,15.1c.4,0,.7-.3.7-.7s-.3-.7-.7-.7-.7.3-.7.7.3.7.7.7h0Z" />
    </g>
  </g>
</svg>