<?xml version="1.0" standalone="no"?><!DOCTYPE svg PUBLIC "-//W3C//DTD SVG 1.1//EN" "http://www.w3.org/Graphics/SVG/1.1/DTD/svg11.dtd"><svg class="icon" width="200px" height="200.00px" viewBox="0 0 1024 1024" version="1.1" xmlns="http://www.w3.org/2000/svg"><path d="M590.222222 79.644444L859.022222 347.943822V881.777778c0 37.700267-30.5664 68.266667-68.266666 68.266666H233.244444c-37.700267 0-68.266667-30.5664-68.266666-68.266666V147.911111c0-37.700267 30.5664-68.266667 68.266666-68.266667h356.977778z m-11.764622 28.444445H233.244444a39.822222 39.822222 0 0 0-39.799466 38.456889L193.422222 147.911111v733.866667a39.822222 39.822222 0 0 0 38.456889 39.799466L233.244444 921.6h557.511112a39.822222 39.822222 0 0 0 39.799466-38.456889L830.577778 881.777778V359.742578L578.4576 108.088889z" fill="#EFCB35" /><path d="M854.755556 376.337067h-215.1424c-45.528178 0-82.551467-36.431644-83.5072-81.737956l-0.017067-1.792V79.644444h28.444444v213.162667c0 29.895111 23.819378 54.232178 53.515378 55.062756l1.564445 0.022755h215.1424v28.444445z" fill="#EFCB35" /><path d="M56.888889 494.933333m28.444444 0l853.333334 0q28.444444 0 28.444444 28.444445l0 284.444444q0 28.444444-28.444444 28.444445l-853.333334 0q-28.444444 0-28.444444-28.444445l0-284.444444q0-28.444444 28.444444-28.444445Z" fill="#EFCB35" /><path d="M330.581333 765.895111c42.752 0 62.464-30.72 62.464-68.096v-126.208h-45.824v122.624c0 24.832-7.936 32.256-22.784 32.256-9.216 0-18.944-5.888-25.6-18.944l-30.976 23.296c13.568 23.552 33.024 35.072 62.72 35.072z m151.04-3.584v-63.232h22.272c40.448 0 75.264-19.968 75.264-65.28 0-47.104-34.56-62.208-76.288-62.208h-67.072V762.311111h45.824z m19.968-99.328h-19.968v-55.04h18.688c22.016 0 34.304 6.656 34.304 25.856 0 18.688-10.752 29.184-33.024 29.184z m195.84 102.912c26.624 0 50.176-10.496 63.488-23.296v-89.088H690.005333v37.376h30.208v30.72c-4.096 3.072-11.264 4.864-17.92 4.864-35.584 0-52.48-22.016-52.48-59.904 0-37.12 20.224-59.136 48.384-59.136 15.872 0 25.856 6.4 35.328 14.848l24.064-29.184c-13.056-13.056-33.024-24.832-60.928-24.832-50.944 0-93.696 36.352-93.696 99.84 0 64.512 41.728 97.792 94.464 97.792z" fill="#FFFFFF" /></svg>