<?xml version="1.0" ?><svg data-name="Layer 1" id="Layer_1" viewBox="0 0 24 24" xmlns="http://www.w3.org/2000/svg"><defs><style>.cls-1{fill:#f44336;}.cls-2{fill:#ff8a80;}.cls-3{fill:#ffebee;}</style></defs><title/><path class="cls-1" d="M16.5,22h-9a3,3,0,0,1-3-3V5a3,3,0,0,1,3-3h6.59a1,1,0,0,1,.7.29l4.42,4.42a1,1,0,0,1,.29.7V19A3,3,0,0,1,16.5,22Z"/><path class="cls-2" d="M18.8,7.74H15.2a1.5,1.5,0,0,1-1.5-1.5V2.64a.55.55,0,0,1,.94-.39L19.19,6.8A.55.55,0,0,1,18.8,7.74Z"/><path class="cls-3" d="M7.89,19.13a.45.45,0,0,1-.51-.51V15.69a.45.45,0,0,1,.5-.51.45.45,0,0,1,.5.43.78.78,0,0,1,.35-.32,1.07,1.07,0,0,1,.51-.12,1.17,1.17,0,0,1,.64.18,1.2,1.2,0,0,1,.43.51,2,2,0,0,1,0,1.57A1.2,1.2,0,0,1,8.75,18a.86.86,0,0,1-.35-.3v.91a.5.5,0,0,1-.13.38A.52.52,0,0,1,7.89,19.13Zm1-1.76a.48.48,0,0,0,.38-.18.81.81,0,0,0,.14-.55.82.82,0,0,0-.14-.55.5.5,0,0,0-.38-.17.51.51,0,0,0-.39.17.89.89,0,0,0-.14.55.87.87,0,0,0,.14.55A.48.48,0,0,0,8.92,17.37Z"/><path class="cls-3" d="M12.17,18.11a1.1,1.1,0,0,1-.63-.17,1.22,1.22,0,0,1-.44-.51,2,2,0,0,1,0-1.57,1.22,1.22,0,0,1,.44-.51,1.11,1.11,0,0,1,.63-.18,1.06,1.06,0,0,1,.5.12.91.91,0,0,1,.35.28V14.48a.45.45,0,0,1,.51-.51.49.49,0,0,1,.37.13.5.5,0,0,1,.13.38v3.11a.5.5,0,0,1-1,.08.76.76,0,0,1-.34.32A1.14,1.14,0,0,1,12.17,18.11Zm.33-.74a.48.48,0,0,0,.38-.18.8.8,0,0,0,.15-.55.82.82,0,0,0-.15-.55.5.5,0,0,0-.38-.17.49.49,0,0,0-.38.17.82.82,0,0,0-.15.55.8.8,0,0,0,.15.55A.46.46,0,0,0,12.5,17.37Z"/><path class="cls-3" d="M15.52,18.1a.46.46,0,0,1-.51-.51V16h-.15a.34.34,0,0,1-.39-.38c0-.25.13-.37.39-.37H15a1.2,1.2,0,0,1,.34-.87,1.52,1.52,0,0,1,.92-.36h.17a.39.39,0,0,1,.29,0,.35.35,0,0,1,.15.17.55.55,0,0,1,0,.22.38.38,0,0,1-.09.19.27.27,0,0,1-.18.1h-.08a.66.66,0,0,0-.41.12.41.41,0,0,0-.11.31v.09h.32c.26,0,.39.12.39.37a.34.34,0,0,1-.39.38H16v1.6A.45.45,0,0,1,15.52,18.1Z"/></svg>