<?xml version="1.0" standalone="no"?><!DOCTYPE svg PUBLIC "-//W3C//DTD SVG 1.1//EN" "http://www.w3.org/Graphics/SVG/1.1/DTD/svg11.dtd"><svg class="icon" width="200px" height="200.00px" viewBox="0 0 1024 1024" version="1.1" xmlns="http://www.w3.org/2000/svg"><path d="M981.333333 276.053333V981.333333a42.666667 42.666667 0 0 1-42.666666 42.666667H85.333333a42.666667 42.666667 0 0 1-42.666666-42.666667V42.666667a42.666667 42.666667 0 0 1 42.666666-42.666667h619.946667z" fill="#FC5A5A" /><path d="M705.28 233.386667V0L981.333333 276.053333H747.946667a42.666667 42.666667 0 0 1-42.666667-42.666666z" fill="#FD9796" /><path d="M252.586667 715.52H224A10.666667 10.666667 0 0 1 213.333333 704V490.666667a10.666667 10.666667 0 0 1 10.666667-10.666667h62.293333q95.786667-1.28 95.786667 72.746667-2.56 69.12-81.706667 72.96h-37.12V704a10.666667 10.666667 0 0 1-10.666666 11.52z m10.666666-196.906667v66.56q3.84 0 15.36 1.28c33.92 3.413333 50.56-8.106667 49.706667-34.56 0-23.04-16.426667-34.133333-49.706667-33.28a34.986667 34.986667 0 0 1-15.36 0zM417.493333 704V490.666667a10.666667 10.666667 0 0 1 10.666667-10.666667h69.76c78.506667 0 117.973333 40.533333 119.04 118.826667s-40.533333 117.546667-119.04 117.546666h-69.76a10.666667 10.666667 0 0 1-10.666667-12.373333z m49.706667-186.24v157.44h26.88q70.4 2.56 69.12-78.08t-69.12-79.36zM697.813333 715.52h-28.586666a10.666667 10.666667 0 0 1-10.666667-10.666667V490.666667a10.666667 10.666667 0 0 1 10.666667-10.666667h130.773333a10.666667 10.666667 0 0 1 10.666667 10.666667v18.133333a10.666667 10.666667 0 0 1-10.666667 10.666667h-91.52V576h85.333333a10.666667 10.666667 0 0 1 10.666667 10.666667v18.346666a10.666667 10.666667 0 0 1-10.666667 10.666667h-85.333333V704a10.666667 10.666667 0 0 1-10.666667 11.52z" fill="#FFFFFF" /></svg>