<?xml version="1.0" standalone="no"?><!DOCTYPE svg PUBLIC "-//W3C//DTD SVG 1.1//EN" "http://www.w3.org/Graphics/SVG/1.1/DTD/svg11.dtd"><svg class="icon" width="200px" height="200.00px" viewBox="0 0 1024 1024" version="1.1" xmlns="http://www.w3.org/2000/svg"><path d="M590.222222 73.955556L859.022222 342.254933V876.088889c0 37.700267-30.5664 68.266667-68.266666 68.266667H233.244444c-37.700267 0-68.266667-30.5664-68.266666-68.266667V142.222222c0-37.700267 30.5664-68.266667 68.266666-68.266666h356.977778z m-11.764622 28.444444H233.244444a39.822222 39.822222 0 0 0-39.799466 38.456889L193.422222 142.222222v733.866667a39.822222 39.822222 0 0 0 38.456889 39.799467L233.244444 915.911111h557.511112a39.822222 39.822222 0 0 0 39.799466-38.456889L830.577778 876.088889V354.053689L578.4576 102.4z" fill="#0075D5" /><path d="M854.755556 370.648178h-215.1424c-45.528178 0-82.551467-36.431644-83.5072-81.737956l-0.017067-1.792V73.955556h28.444444v213.162666c0 29.895111 23.819378 54.232178 53.515378 55.062756l1.564445 0.022755h215.1424v28.444445z" fill="#0075D5" /><path d="M56.888889 506.311111m28.444444 0l853.333334 0q28.444444 0 28.444444 28.444445l0 284.444444q0 28.444444-28.444444 28.444444l-853.333334 0q-28.444444 0-28.444444-28.444444l0-284.444444q0-28.444444 28.444444-28.444445Z" fill="#0075D5" /><path d="M251.619556 762.311111h45.824v-63.232H319.715556c40.448 0 75.264-19.968 75.264-65.28 0-47.104-34.56-62.208-76.288-62.208H251.619556V762.311111z m45.824-99.328v-55.04h18.688c22.016 0 34.304 6.656 34.304 25.856 0 18.688-10.752 29.184-33.024 29.184h-19.968zM427.491556 762.311111h43.52v-63.232c0-23.04-3.84-49.152-5.888-70.4h1.28l18.688 41.728L532.195556 762.311111h46.592v-190.72h-43.52v63.232c0 22.784 3.84 50.176 6.144 70.4h-1.28l-18.688-42.24-47.36-91.392h-46.592V762.311111zM708.835556 765.895111c26.624 0 50.176-10.496 63.488-23.296v-89.088h-70.912v37.376h30.208v30.72c-4.096 3.072-11.264 4.864-17.92 4.864-35.584 0-52.48-22.016-52.48-59.904 0-37.12 20.224-59.136 48.384-59.136 15.872 0 25.856 6.4 35.328 14.848l24.064-29.184c-13.056-13.056-33.024-24.832-60.928-24.832-50.944 0-93.696 36.352-93.696 99.84 0 64.512 41.728 97.792 94.464 97.792z" fill="#FFFFFF" /></svg>