<?xml version="1.0" ?><svg data-name="Layer 1" id="Layer_1" viewBox="0 0 24 24" xmlns="http://www.w3.org/2000/svg"><defs><style>.cls-1{fill:#ff9800;}.cls-2{fill:#ffd180;}.cls-3{fill:#fff3e0;}</style></defs><title/><path class="cls-1" d="M16.5,22h-9a3,3,0,0,1-3-3V5a3,3,0,0,1,3-3h6.59a1,1,0,0,1,.7.29l4.42,4.42a1,1,0,0,1,.29.7V19A3,3,0,0,1,16.5,22Z"/><path class="cls-2" d="M18.8,7.74H15.2a1.5,1.5,0,0,1-1.5-1.5V2.64a.55.55,0,0,1,.94-.39L19.19,6.8A.55.55,0,0,1,18.8,7.74Z"/><path class="cls-3" d="M7.83,19.13a.45.45,0,0,1-.5-.51V15.69a.45.45,0,0,1,.5-.51.45.45,0,0,1,.5.43.76.76,0,0,1,.34-.32,1.13,1.13,0,0,1,.51-.12,1.14,1.14,0,0,1,.64.18,1.22,1.22,0,0,1,.44.51,2,2,0,0,1,0,1.57,1.2,1.2,0,0,1-.43.51,1.17,1.17,0,0,1-.65.17A1.12,1.12,0,0,1,8.7,18a.8.8,0,0,1-.35-.3v.91a.47.47,0,0,1-.52.51Zm1-1.76a.46.46,0,0,0,.38-.18.8.8,0,0,0,.15-.55.82.82,0,0,0-.15-.55.49.49,0,0,0-.38-.17.5.5,0,0,0-.38.17.82.82,0,0,0-.15.55.8.8,0,0,0,.15.55A.48.48,0,0,0,8.86,17.37Z"/><path class="cls-3" d="M11.52,19.13a.45.45,0,0,1-.5-.51V15.69a.5.5,0,0,1,1-.08.76.76,0,0,1,.34-.32,1.14,1.14,0,0,1,.52-.12,1.11,1.11,0,0,1,.63.18,1.22,1.22,0,0,1,.44.51,2,2,0,0,1,0,1.57,1.2,1.2,0,0,1-.43.51,1.16,1.16,0,0,1-.64.17,1.13,1.13,0,0,1-.49-.1.86.86,0,0,1-.35-.3v.91a.5.5,0,0,1-.13.38A.53.53,0,0,1,11.52,19.13Zm1-1.76a.46.46,0,0,0,.38-.18.8.8,0,0,0,.15-.55.82.82,0,0,0-.15-.55.49.49,0,0,0-.38-.17.5.5,0,0,0-.38.17.82.82,0,0,0-.15.55.8.8,0,0,0,.15.55A.48.48,0,0,0,12.55,17.37Z"/><path class="cls-3" d="M16.16,18.11a1.32,1.32,0,0,1-.95-.29,1.19,1.19,0,0,1-.31-.9V16h-.19a.34.34,0,0,1-.39-.38c0-.25.13-.37.39-.37h.19v-.36A.5.5,0,0,1,15,14.5a.52.52,0,0,1,.38-.13.45.45,0,0,1,.51.51v.36h.47c.26,0,.39.12.39.37a.34.34,0,0,1-.39.38h-.47v.89a.37.37,0,0,0,.42.42l.15,0,.14,0a.2.2,0,0,1,.15.06s0,.13,0,.27a.65.65,0,0,1,0,.29.3.3,0,0,1-.18.17,1,1,0,0,1-.22,0A.94.94,0,0,1,16.16,18.11Z"/></svg>