<?xml version="1.0" ?><svg data-name="Layer 1" id="Layer_1" viewBox="0 0 24 24" xmlns="http://www.w3.org/2000/svg"><defs><style>.cls-1{fill:#ff9800;}.cls-2{fill:#ffd180;}.cls-3{fill:#fff3e0;}</style></defs><title/><path class="cls-1" d="M16.5,22h-9a3,3,0,0,1-3-3V5a3,3,0,0,1,3-3h6.59a1,1,0,0,1,.7.29l4.42,4.42a1,1,0,0,1,.29.7V19A3,3,0,0,1,16.5,22Z"/><path class="cls-2" d="M18.8,7.74H15.2a1.5,1.5,0,0,1-1.5-1.5V2.64a.55.55,0,0,1,.94-.39L19.19,6.8A.55.55,0,0,1,18.8,7.74Z"/><path class="cls-3" d="M6.1,19.13a.45.45,0,0,1-.51-.51V15.69a.45.45,0,0,1,.5-.51.45.45,0,0,1,.5.43.78.78,0,0,1,.35-.32,1.07,1.07,0,0,1,.51-.12,1.17,1.17,0,0,1,.64.18,1.2,1.2,0,0,1,.43.51,2,2,0,0,1,0,1.57A1.2,1.2,0,0,1,7,18a.86.86,0,0,1-.35-.3v.91a.5.5,0,0,1-.13.38A.52.52,0,0,1,6.1,19.13Zm1-1.76a.45.45,0,0,0,.37-.18.8.8,0,0,0,.15-.55.82.82,0,0,0-.15-.55.47.47,0,0,0-.37-.17.51.51,0,0,0-.39.17.82.82,0,0,0-.15.55.8.8,0,0,0,.15.55A.48.48,0,0,0,7.13,17.37Z"/><path class="cls-3" d="M9.79,19.13a.45.45,0,0,1-.51-.51V15.69a.45.45,0,0,1,.5-.51.45.45,0,0,1,.5.43.78.78,0,0,1,.35-.32,1.07,1.07,0,0,1,.51-.12,1.17,1.17,0,0,1,.64.18,1.2,1.2,0,0,1,.43.51,2,2,0,0,1,0,1.57,1.2,1.2,0,0,1-1.56.58.86.86,0,0,1-.35-.3v.91a.5.5,0,0,1-.13.38A.52.52,0,0,1,9.79,19.13Zm1-1.76a.48.48,0,0,0,.38-.18.87.87,0,0,0,.14-.55.89.89,0,0,0-.14-.55.5.5,0,0,0-.38-.17.51.51,0,0,0-.39.17.89.89,0,0,0-.14.55.87.87,0,0,0,.14.55A.48.48,0,0,0,10.82,17.37Z"/><path class="cls-3" d="M14.42,18.11a1.34,1.34,0,0,1-.95-.29,1.23,1.23,0,0,1-.31-.9V16H13a.33.33,0,0,1-.38-.38c0-.25.12-.37.38-.37h.19v-.36a.51.51,0,0,1,.14-.38.48.48,0,0,1,.37-.13.45.45,0,0,1,.51.51v.36h.47c.26,0,.39.12.39.37a.34.34,0,0,1-.39.38h-.47v.89a.37.37,0,0,0,.42.42l.15,0,.14,0a.2.2,0,0,1,.15.06.41.41,0,0,1,.06.27.84.84,0,0,1,0,.29.35.35,0,0,1-.19.17.87.87,0,0,1-.21,0A1.06,1.06,0,0,1,14.42,18.11Z"/><path class="cls-3" d="M16,18.1a.45.45,0,0,1-.31-.11.33.33,0,0,1-.11-.26.49.49,0,0,1,.13-.32l.66-.81-.59-.72a.47.47,0,0,1-.13-.33.35.35,0,0,1,.11-.26.45.45,0,0,1,.31-.11.66.66,0,0,1,.3.07.77.77,0,0,1,.23.19l.35.46.36-.46a.64.64,0,0,1,.22-.19.66.66,0,0,1,.3-.07.45.45,0,0,1,.31.11.35.35,0,0,1,.11.26.51.51,0,0,1-.13.33l-.6.72.67.81a.44.44,0,0,1,.13.32.31.31,0,0,1-.12.26.44.44,0,0,1-.3.11.67.67,0,0,1-.3-.06.7.7,0,0,1-.23-.2l-.43-.54-.42.54a.75.75,0,0,1-.22.19A.56.56,0,0,1,16,18.1Z"/></svg>