<?xml version="1.0" encoding="UTF-8"?>
<svg id="Layer_1" xmlns="http://www.w3.org/2000/svg" version="1.1" viewBox="0 0 24 24">
  <path fill="#d6d6d6"
    d="M16.5,22H7.5c-1.7,0-3-1.3-3-3V5c0-1.7,1.3-3,3-3h6.6c.3,0,.5,0,.7.3l4.4,4.4c.2.2.3.4.3.7v11.6c0,1.7-1.3,3-3,3Z" />
  <path fill="#f4f4f4"
    d="M18.7,8.1h-3.6c-.8,0-1.5-.8-1.5-1.6v-3.6c0-.3.2-.6.5-.6s.2,0,.4.2l4.6,4.6c.2.2.2.6,0,.8-.1,0-.2.2-.4.2h0Z" />
  <path fill="#f5f5f5" d="M16,12.6h-8c-.3,0-.5-.2-.5-.5s.2-.5.5-.5h8c.3,0,.5.2.5.5s-.2.5-.5.5Z" />
  <path fill="#f5f5f5" d="M16,15.5h-8c-.3,0-.5-.2-.5-.5s.2-.5.5-.5h8c.3,0,.5.2.5.5s-.2.5-.5.5Z" />
  <path fill="#f5f5f5" d="M16,18.3h-8c-.3,0-.5-.2-.5-.5s.2-.5.5-.5h8c.3,0,.5.2.5.5s-.2.5-.5.5Z" />
</svg>