<?xml version="1.0" standalone="no"?><!DOCTYPE svg PUBLIC "-//W3C//DTD SVG 1.1//EN" "http://www.w3.org/Graphics/SVG/1.1/DTD/svg11.dtd"><svg class="icon" width="200px" height="200.00px" viewBox="0 0 1024 1024" version="1.1" xmlns="http://www.w3.org/2000/svg"><path d="M147.2 0C102.4 0 65.6 35.2 65.6 80v862.4c0 44.8 35.2 81.6 81.6 81.6h731.2c44.8 0 81.6-36.8 81.6-81.6V324.8L657.6 0H147.2z" fill="#F9CA06" /><path d="M960 324.8v16H755.2s-100.8-19.2-97.6-107.2c0 0 3.2 91.2 96 91.2H960z" fill="#F7BC04" /><path d="M657.6 0v232c0 27.2 17.6 92.8 97.6 92.8H960L657.6 0z" fill="#FFFFFF" opacity=".5" /><path d="M364.8 688h-52.8v161.6c0 6.4-4.8 11.2-12.8 11.2-6.4 0-11.2-4.8-11.2-11.2V688h-52.8c-4.8 0-9.6-3.2-9.6-9.6 0-6.4 4.8-11.2 9.6-11.2h129.6c4.8 0 9.6 4.8 9.6 11.2 0 6.4-4.8 9.6-9.6 9.6z m187.2 172.8c-4.8 0-8 0-9.6-3.2l-59.2-80-60.8 80c-1.6 3.2-4.8 3.2-8 3.2-6.4 0-11.2-4.8-11.2-11.2 0-1.6 0-4.8 1.6-6.4l62.4-81.6-57.6-78.4c-1.6-1.6-1.6-3.2-1.6-6.4 0-4.8 3.2-11.2 11.2-11.2 3.2 0 6.4 1.6 9.6 4.8l54.4 73.6 54.4-73.6c3.2-3.2 6.4-4.8 9.6-4.8 6.4 0 11.2 4.8 11.2 11.2 0 3.2 0 4.8-1.6 6.4l-57.6 76.8 62.4 83.2c0 1.6 1.6 4.8 1.6 6.4 0 6.4-4.8 11.2-11.2 11.2zM731.2 688h-52.8v161.6c0 6.4-4.8 11.2-12.8 11.2-6.4 0-11.2-4.8-11.2-11.2V688h-52.8c-4.8 0-9.6-3.2-9.6-9.6 0-6.4 4.8-11.2 9.6-11.2h129.6c4.8 0 9.6 4.8 9.6 11.2 0 6.4-4.8 9.6-9.6 9.6z" fill="#FFFFFF" /></svg>