<?xml version="1.0" standalone="no"?><!DOCTYPE svg PUBLIC "-//W3C//DTD SVG 1.1//EN" "http://www.w3.org/Graphics/SVG/1.1/DTD/svg11.dtd"><svg class="icon" width="200px" height="200.00px" viewBox="0 0 1024 1024" version="1.1" xmlns="http://www.w3.org/2000/svg"><path d="M145.6 0C100.8 0 64 35.2 64 80v862.4C64 987.2 100.8 1024 145.6 1024h732.8c44.8 0 81.6-36.8 81.6-81.6V324.8L657.6 0h-512z" fill="#14A9DA" /><path d="M960 326.4v16H755.2s-100.8-20.8-99.2-108.8c0 0 4.8 92.8 97.6 92.8H960z" fill="#0F93D0" /><path d="M657.6 0v233.6c0 25.6 17.6 92.8 97.6 92.8H960L657.6 0z" fill="#FFFFFF" opacity=".5" /><path d="M291.2 862.4h-48c-9.6 0-17.6-8-17.6-17.6v-158.4c0-9.6 8-16 17.6-16h48c60.8 0 99.2 41.6 99.2 96s-38.4 96-99.2 96z m0-171.2h-41.6v148.8h41.6c48 0 75.2-33.6 75.2-73.6 0-41.6-27.2-75.2-75.2-75.2z m232 174.4c-57.6 0-96-43.2-96-99.2s38.4-99.2 96-99.2c56 0 94.4 41.6 94.4 99.2 0 56-38.4 99.2-94.4 99.2z m0-177.6c-43.2 0-70.4 33.6-70.4 78.4 0 44.8 27.2 76.8 70.4 76.8 41.6 0 70.4-32 70.4-76.8S564.8 688 523.2 688z m294.4 6.4c1.6 1.6 3.2 4.8 3.2 8 0 6.4-4.8 11.2-11.2 11.2-3.2 0-6.4-1.6-8-3.2-11.2-14.4-30.4-22.4-48-22.4-41.6 0-73.6 32-73.6 78.4 0 44.8 32 76.8 73.6 76.8 17.6 0 35.2-6.4 48-20.8 1.6-3.2 4.8-4.8 8-4.8 6.4 0 11.2 6.4 11.2 12.8 0 3.2-1.6 4.8-3.2 8-14.4 16-35.2 27.2-64 27.2-56 0-99.2-40-99.2-99.2s43.2-99.2 99.2-99.2c28.8 0 49.6 11.2 64 27.2z" fill="#FFFFFF" /></svg>