<?xml version="1.0" ?><svg data-name="Layer 1" id="Layer_1" viewBox="0 0 24 24" xmlns="http://www.w3.org/2000/svg"><defs><style>.cls-1{fill:#4caf50;}.cls-2{fill:#b9f6ca;}.cls-3{fill:#e8f5e9;}</style></defs><title/><path class="cls-1" d="M16.5,22h-9a3,3,0,0,1-3-3V5a3,3,0,0,1,3-3h6.59a1,1,0,0,1,.7.29l4.42,4.42a1,1,0,0,1,.29.7V19A3,3,0,0,1,16.5,22Z"/><path class="cls-2" d="M18.8,7.74H15.2a1.5,1.5,0,0,1-1.5-1.5V2.64a.55.55,0,0,1,.94-.39L19.19,6.8A.55.55,0,0,1,18.8,7.74Z"/><path class="cls-3" d="M8.44,18.1A.45.45,0,0,1,8.13,18,.33.33,0,0,1,8,17.73a.49.49,0,0,1,.13-.32l.66-.81-.59-.72a.47.47,0,0,1-.13-.33.35.35,0,0,1,.11-.26.45.45,0,0,1,.31-.11.66.66,0,0,1,.3.07.77.77,0,0,1,.23.19l.35.46.36-.46a.64.64,0,0,1,.22-.19.66.66,0,0,1,.3-.07.45.45,0,0,1,.31.11.35.35,0,0,1,.11.26.51.51,0,0,1-.13.33l-.6.72.67.81a.44.44,0,0,1,.13.32.31.31,0,0,1-.12.26.45.45,0,0,1-.31.11A.65.65,0,0,1,10,18a.7.7,0,0,1-.23-.2l-.43-.54L9,17.84a.75.75,0,0,1-.22.19A.56.56,0,0,1,8.44,18.1Z"/><path class="cls-3" d="M12.53,18.11a1,1,0,0,1-.81-.29,1.33,1.33,0,0,1-.26-.89V14.48A.45.45,0,0,1,12,14a.52.52,0,0,1,.38.13.5.5,0,0,1,.13.38V16.9a.52.52,0,0,0,.08.31.29.29,0,0,0,.22.09H13a.15.15,0,0,1,.14.07.66.66,0,0,1,.05.31.51.51,0,0,1-.08.3.43.43,0,0,1-.25.13l-.13,0Z"/><path class="cls-3" d="M14.69,18.11a3.12,3.12,0,0,1-.52,0,1.64,1.64,0,0,1-.46-.13.38.38,0,0,1-.24-.2.39.39,0,0,1,0-.26.35.35,0,0,1,.16-.2.28.28,0,0,1,.27,0,2.18,2.18,0,0,0,.43.12,1.69,1.69,0,0,0,.38,0,.56.56,0,0,0,.3-.06.18.18,0,0,0,.09-.16.15.15,0,0,0-.06-.13.38.38,0,0,0-.17-.06l-.63-.11a.91.91,0,0,1-.55-.25.74.74,0,0,1-.2-.53.85.85,0,0,1,.17-.51,1.07,1.07,0,0,1,.46-.33,1.83,1.83,0,0,1,.68-.12,3.3,3.3,0,0,1,.47,0,2,2,0,0,1,.41.13.33.33,0,0,1,.2.2.39.39,0,0,1,0,.26.35.35,0,0,1-.17.19.3.3,0,0,1-.28,0,2.19,2.19,0,0,0-.34-.11,1.47,1.47,0,0,0-.27,0,.62.62,0,0,0-.33.07.18.18,0,0,0-.1.16c0,.1.07.16.21.19l.64.11a1,1,0,0,1,.56.24.7.7,0,0,1,.2.52.83.83,0,0,1-.36.72A1.56,1.56,0,0,1,14.69,18.11Z"/></svg>