<svg width="16" height="16" viewBox="0 0 16 16" fill="none" xmlns="http://www.w3.org/2000/svg">
<path d="M14 7.99902C14 7.42033 13.9178 6.86076 13.7649 6.3313C13.1885 6.3464 12.6223 6.05372 12.3137 5.51929C12.0046 4.9838 12.0348 4.34551 12.3376 3.85352C11.5614 3.0415 10.5593 2.44744 9.43237 2.17139C9.15833 2.6817 8.61979 3.0288 8 3.02881C7.38017 3.02881 6.84141 2.68176 6.56738 2.17139C5.44045 2.44748 4.43833 3.04149 3.66211 3.85352C3.96506 4.34553 3.99546 4.98377 3.68628 5.51929C3.37768 6.05378 2.8113 6.34648 2.23486 6.3313C2.08199 6.86074 2 7.42035 2 7.99902C2.00001 8.58551 2.08457 9.15223 2.24146 9.68799C2.81562 9.6752 3.37886 9.96777 3.68628 10.5002C3.99263 11.0309 3.96539 11.6622 3.67017 12.1523C4.44769 12.9627 5.45049 13.5548 6.57788 13.8289C6.85502 13.329 7.388 12.9907 8 12.9907C8.61195 12.9907 9.14472 13.3291 9.42188 13.8289" stroke="#024DE3" stroke-linecap="round" stroke-linejoin="round"/>
<path d="M10.25 8C10.25 7.5047 10.0866 7.02324 9.78505 6.63029C9.48352 6.23734 9.06077 5.95486 8.58234 5.82667C8.10392 5.69847 7.59656 5.73173 7.13896 5.92127C6.68136 6.11081 6.29909 6.44606 6.05144 6.875C5.80379 7.30394 5.7046 7.80262 5.76925 8.29368C5.8339 8.78475 6.05878 9.24076 6.40901 9.59099C6.75924 9.94122 7.21525 10.1661 7.70632 10.2308C8.19738 10.2954 8.69606 10.1962 9.125 9.94856" stroke="#024DE3" stroke-linecap="round"/>
<path d="M13.5996 10.7239L12.1854 9.30966L10.7712 10.7239" stroke="#024DE3" stroke-linecap="round" stroke-linejoin="round"/>
<path d="M10.7715 12.6848L12.1857 14.099L13.5999 12.6848" stroke="#024DE3" stroke-linecap="round" stroke-linejoin="round"/>
</svg>
