<svg t="1758123901970" class="icon" viewBox="0 0 1094 1024" version="1.1" xmlns="http://www.w3.org/2000/svg"
  p-id="12216" width="32" height="32">
  <path
    d="M384.070621 338.449655a137.498483 137.498483 0 1 0-28.848552 34.003862l19.067586 19.314759a21.362759 21.362759 0 0 0 29.625379 0l1.765518-2.08331a20.833103 20.833103 0 0 0 0-29.590069l-21.609931-21.645242z m-32.944552-32.414896l-22.422069-22.422069a20.833103 20.833103 0 0 0-29.590069 0l-1.800828 2.08331a20.585931 20.585931 0 0 0 0 29.307586l25.741242 25.776552a91.665655 91.665655 0 0 1-56.884966 20.091586 92.689655 92.689655 0 1 1 84.95669-54.836965z"
    fill="currentColor" p-id="12217"></path>
  <path
    d="M1006.380138 283.895172h-180.224V106.213517a93.21931 93.21931 0 0 0-93.21931-93.21931H93.925517A86.263172 86.263172 0 0 0 8.15669 100.069517v444.663173a85.98069 85.98069 0 0 0 85.733517 85.733517h97.597793v110.203586c0.141241 17.725793 14.477241 32.026483 32.167724 32.167724h13.665104l139.828965-140.535172h67.160276v162.957241c-0.353103 21.292138 6.567724 42.089931 19.561931 58.968276a108.402759 108.402759 0 0 0 47.386483 24.187586h277.53931l107.378759 135.168h10.593103a28.601379 28.601379 0 0 0 25.705931-30.896551v-105.577931h74.928552c36.299034 0 65.677241-36.793379 65.677241-82.379035V366.274207c-1.05931-45.550345-30.366897-82.131862-66.701241-82.379035z m-562.070069 89.582345v196.678621h-93.21931l-97.809656 98.657103v-99.645793h-159.602758a23.657931 23.657931 0 0 1-23.975724-23.693241V100.034207a24.187586 24.187586 0 0 1 23.940413-25.741241h638.269794a31.426207 31.426207 0 0 1 31.426206 31.143724v178.176h-247.172413c-39.406345 0.282483-71.856552 40.430345-71.856552 89.864827z m450.56 351.19669a21.362759 21.362759 0 0 1-29.060414-8.756966l-30.896552-57.661793h-138.27531l-30.119724 56.143449a21.115586 21.115586 0 0 1-28.848552 8.968827 21.362759 21.362759 0 0 1-9.004138-29.060414l117.406897-220.936827a21.609931 21.609931 0 0 1 29.095724-9.004138 20.338759 20.338759 0 0 1 4.378483 3.601655v1.306483l1.553655 1.518345c0 1.306483 2.295172 2.577655 3.354483 4.13131l118.148413 220.654345a21.645241 21.645241 0 0 1-7.697655 29.095724z"
    fill="currentColor" p-id="12218"></path>
  <path d="M719.271724 615.000276h92.724966l-46.362483-86.510345z" fill="currentColor" p-id="12219"></path>
</svg>