<svg width="24" height="24" viewBox="0 0 24 24" fill="none" xmlns="http://www.w3.org/2000/svg">
    <path
        d="M5 11C5 8.79086 6.79086 7 9 7H15C17.2091 7 19 8.79086 19 11V16.5C19 17.8807 17.8807 19 16.5 19H7.5C6.11929 19 5 17.8807 5 16.5V11Z"
        fill="black" />
    <path
        d="M14.4135 14.0926C14.6917 14.3586 14.7046 14.8028 14.4422 15.0849C13.8306 15.7426 12.8565 16 12 16C11.1435 16 10.1694 15.7426 9.55775 15.0849C9.29544 14.8028 9.30832 14.3586 9.58653 14.0926C9.86474 13.8267 10.3029 13.8397 10.5652 14.1217C10.815 14.3904 11.3487 14.5961 12 14.5961C12.6513 14.5961 13.185 14.3904 13.4348 14.1217C13.6971 13.8397 14.1353 13.8267 14.4135 14.0926Z"
        fill="white" />
    <path
        d="M10.6616 11.8423C10.6616 12.3075 10.2896 12.6846 9.83079 12.6846C9.37195 12.6846 9 12.3075 9 11.8423C9 11.3771 9.37195 11 9.83079 11C10.2896 11 10.6616 11.3771 10.6616 11.8423Z"
        fill="white" />
    <path
        d="M14.1692 12.6846C14.628 12.6846 15 12.3075 15 11.8423C15 11.3771 14.628 11 14.1692 11C13.7104 11 13.3384 11.3771 13.3384 11.8423C13.3384 12.3075 13.7104 12.6846 14.1692 12.6846Z"
        fill="white" />
    <circle cx="12" cy="4.5" r="1.5" fill="black" />
    <rect x="4" y="12" width="2" height="2" fill="black" />
    <rect x="18" y="12" width="2" height="2" fill="black" />
</svg>