<svg width="24" height="24" viewBox="0 0 24 24" fill="currentColor" xmlns="http://www.w3.org/2000/svg">
<g id="Group 455">
<path id="Subtract" d="M12 6.88284C12 6.37851 12.3755 5.95311 12.876 5.89056L18.876 5.14056C19.4728 5.06595 20 5.53134 20 6.13284V15.9356C20 16.5124 19.5133 16.9696 18.9376 16.9337L12.9376 16.5587C12.4106 16.5257 12 16.0887 12 15.5606V6.88284Z" fill="currentColor"/>
<path id="Vector 13" d="M7 19L11.3896 18.5123C11.463 18.5041 11.537 18.5041 11.6104 18.5123L16 19" stroke="currentColor" stroke-width="2"/>
<path id="Rectangle 216" d="M3 6.13278C3 5.53128 3.52718 5.0659 4.12403 5.1405L10.124 5.8905C10.6245 5.95306 11 6.37846 11 6.88278V15.5605C11 16.0886 10.5894 16.5257 10.0624 16.5586L4.06238 16.9336C3.48668 16.9696 3 16.5124 3 15.9355V6.13278Z" fill="currentColor"/>
</g>
</svg>
