<svg width="24" height="24" viewBox="0 0 24 24" fill="none" xmlns="http://www.w3.org/2000/svg">
    <g id="Group 489">
        <rect id="Rectangle 231" x="4.75" y="9.75" width="3.5" height="8.5" rx="1.75" fill="transparent"
            stroke="currentColor" stroke-width="1.5" />
        <g id="Union">
            <mask id="path-2-inside-1_399_44" fill="#fff">
                <path fill-rule="evenodd" clip-rule="evenodd"
                    d="M13.2231 4C12.1561 4 11.1694 4.56673 10.6318 5.48839L8.89567 8.46456C8.05682 8.99647 7.5 9.93321 7.5 11V16C7.5 17.6569 8.84315 19 10.5 19H14.6983C16.3803 19 17.8826 17.9477 18.4575 16.367L20.2802 11.3544C20.8731 9.7239 19.6657 8 17.9307 8H14.5V5C14.5 4.44772 14.0523 4 13.5 4H13.2231Z" />
            </mask>
            <path fill-rule="evenodd" clip-rule="evenodd"
                d="M13.2231 4C12.1561 4 11.1694 4.56673 10.6318 5.48839L8.89567 8.46456C8.05682 8.99647 7.5 9.93321 7.5 11V16C7.5 17.6569 8.84315 19 10.5 19H14.6983C16.3803 19 17.8826 17.9477 18.4575 16.367L20.2802 11.3544C20.8731 9.7239 19.6657 8 17.9307 8H14.5V5C14.5 4.44772 14.0523 4 13.5 4H13.2231Z"
                fill="transparent" />
            <path
                d="M10.6318 5.48839L9.33611 4.73258V4.73258L10.6318 5.48839ZM8.89567 8.46456L9.69893 9.73136L10.0073 9.5358L10.1913 9.22037L8.89567 8.46456ZM18.4575 16.367L19.8672 16.8796V16.8796L18.4575 16.367ZM20.2802 11.3544L21.6899 11.867L20.2802 11.3544ZM14.5 8H13V9.5H14.5V8ZM11.9274 6.24419C12.1963 5.78337 12.6896 5.5 13.2231 5.5V2.5C11.6226 2.5 10.1426 3.3501 9.33611 4.73258L11.9274 6.24419ZM10.1913 9.22037L11.9274 6.24419L9.33611 4.73258L7.6 7.70876L10.1913 9.22037ZM9 11C9 10.4682 9.27563 9.99977 9.69893 9.73136L8.09241 7.19777C6.83801 7.99317 6 9.3982 6 11H9ZM9 16V11H6V16H9ZM10.5 17.5C9.67157 17.5 9 16.8284 9 16H6C6 18.4853 8.01472 20.5 10.5 20.5V17.5ZM14.6983 17.5H10.5V20.5H14.6983V17.5ZM17.0478 15.8544C16.6885 16.8423 15.7496 17.5 14.6983 17.5V20.5C17.0111 20.5 19.0768 19.0531 19.8672 16.8796L17.0478 15.8544ZM18.8705 10.8417L17.0478 15.8544L19.8672 16.8796L21.6899 11.867L18.8705 10.8417ZM17.9307 9.5C18.6247 9.5 19.1077 10.1896 18.8705 10.8417L21.6899 11.867C22.6386 9.25824 20.7066 6.5 17.9307 6.5V9.5ZM14.5 9.5H17.9307V6.5H14.5V9.5ZM13 5V8H16V5H13ZM13.5 5.5C13.2239 5.5 13 5.27614 13 5H16C16 3.61929 14.8807 2.5 13.5 2.5V5.5ZM13.2231 5.5H13.5V2.5H13.2231V5.5Z"
                fill="currentColor" mask="url(#path-2-inside-1_399_44)" />
        </g>
    </g>
</svg>