<svg width="24" height="24" viewBox="0 0 24 24" fill="none" xmlns="http://www.w3.org/2000/svg">
    <g id="Group 490">
        <g id="Group 491">
            <rect id="Rectangle 231" x="19.25" y="14.25" width="3.5" height="8.5" rx="1.75"
                transform="rotate(-180 19.25 14.25)" fill="transparent" stroke="currentColor" stroke-width="1.5" />
            <g id="Union">
                <mask id="path-2-inside-1_399_50" fill="#fff">
                    <path fill-rule="evenodd" clip-rule="evenodd"
                        d="M10.0061 20C10.9504 20 11.8395 19.5554 12.4061 18.8L14.6872 15.7586C15.7568 15.3 16.5061 14.2375 16.5061 13L16.5061 8C16.5061 6.34315 15.163 5 13.5061 5L9.30781 5C7.62579 5 6.12346 6.05227 5.54864 7.63302L3.72587 12.6456C3.13298 14.2761 4.34044 16 6.07535 16L9.17277 16L8.70017 18.8356C8.59858 19.4451 9.06862 20 9.68656 20L10.0061 20Z" />
                </mask>
                <path fill-rule="evenodd" clip-rule="evenodd"
                    d="M10.0061 20C10.9504 20 11.8395 19.5554 12.4061 18.8L14.6872 15.7586C15.7568 15.3 16.5061 14.2375 16.5061 13L16.5061 8C16.5061 6.34315 15.163 5 13.5061 5L9.30781 5C7.62579 5 6.12346 6.05227 5.54864 7.63302L3.72587 12.6456C3.13298 14.2761 4.34044 16 6.07535 16L9.17277 16L8.70017 18.8356C8.59858 19.4451 9.06862 20 9.68656 20L10.0061 20Z"
                    fill="transparent" />
                <path
                    d="M12.4061 18.8L13.6061 19.7L13.6061 19.7L12.4061 18.8ZM14.6872 15.7586L14.0961 14.3799L13.7277 14.5379L13.4872 14.8586L14.6872 15.7586ZM5.54864 7.63302L4.13895 7.12041L4.13895 7.12041L5.54864 7.63302ZM3.72587 12.6456L2.31618 12.133L3.72587 12.6456ZM9.17277 16L10.6524 16.2466L10.9435 14.5L9.17277 14.5L9.17277 16ZM8.70017 18.8356L10.1798 19.0822L10.1798 19.0822L8.70017 18.8356ZM11.2061 17.9C10.9228 18.2777 10.4782 18.5 10.0061 18.5L10.0061 21.5C11.4225 21.5 12.7563 20.8331 13.6061 19.7L11.2061 17.9ZM13.4872 14.8586L11.2061 17.9L13.6061 19.7L15.8872 16.6586L13.4872 14.8586ZM15.0061 13C15.0061 13.6164 14.634 14.1493 14.0961 14.3799L15.2782 17.1372C16.8796 16.4507 18.0061 14.8586 18.0061 13L15.0061 13ZM15.0061 8L15.0061 13L18.0061 13L18.0061 8L15.0061 8ZM13.5061 6.5C14.3345 6.5 15.0061 7.17157 15.0061 8L18.0061 8C18.0061 5.51472 15.9914 3.5 13.5061 3.5L13.5061 6.5ZM9.30781 6.5L13.5061 6.5L13.5061 3.5L9.30781 3.5L9.30781 6.5ZM6.95833 8.14564C7.31759 7.15767 8.25655 6.5 9.30781 6.5L9.30781 3.5C6.99503 3.5 4.92933 4.94687 4.13895 7.12041L6.95833 8.14564ZM5.13556 13.1583L6.95833 8.14564L4.13895 7.12041L2.31618 12.133L5.13556 13.1583ZM6.07535 14.5C5.38139 14.5 4.8984 13.8104 5.13556 13.1583L2.31618 12.133C1.36755 14.7418 3.29949 17.5 6.07535 17.5L6.07535 14.5ZM9.17277 14.5L6.07535 14.5L6.07535 17.5L9.17277 17.5L9.17277 14.5ZM10.1798 19.0822L10.6524 16.2466L7.69318 15.7534L7.22058 18.589L10.1798 19.0822ZM9.68656 18.5C9.99553 18.5 10.2306 18.7774 10.1798 19.0822L7.22058 18.589C6.96661 20.1128 8.14171 21.5 9.68656 21.5L9.68656 18.5ZM10.0061 18.5L9.68656 18.5L9.68656 21.5L10.0061 21.5L10.0061 18.5Z"
                    fill="currentColor" mask="url(#path-2-inside-1_399_50)" />
            </g>
        </g>
    </g>
</svg>