<svg class="icon" viewBox="-100 -100 1124 1124" version="1.1" xmlns="http://www.w3.org/2000/svg" width="24" height="24">
    <path
        d="M341.333333 128c-50.730667 0-89.344 7.04-117.504 18.261333A205.994667 205.994667 0 0 0 213.333333 150.869333v420.693334C248.277333 560.768 290.730667 554.666667 341.333333 554.666667c60.458667 0 101.674667 11.776 186.496 45.738666 75.178667 30.037333 108.629333 39.594667 154.837334 39.594667 50.730667 0 89.344-7.04 117.504-18.261333 4.053333-1.621333 7.552-3.157333 10.496-4.565334v-420.693333c-34.944 10.752-77.397333 16.853333-128 16.853333-60.458667 0-101.674667-11.776-186.496-45.738666C420.992 137.557333 387.541333 128 341.333333 128zM128 128c0-11.306667 4.48-22.186667 12.501333-30.165333 9.386667-9.386667 26.24-20.608 51.669334-30.762667C230.656 51.626667 280.064 42.666667 341.333333 42.666667c60.458667 0 101.674667 11.776 186.496 45.738666C603.008 118.442667 636.458667 128 682.666667 128c50.730667 0 89.344-7.04 117.504-18.261333 14.549333-5.845333 21.717333-10.581333 22.997333-11.904C850.048 70.954667 896 89.984 896 128v512c0 11.306667-4.48 22.186667-12.501333 30.165333-9.386667 9.386667-26.24 20.608-51.669334 30.762667-38.485333 15.445333-87.893333 24.405333-149.162666 24.405333-60.458667 0-101.674667-11.776-186.496-45.738666C420.992 649.557333 387.541333 640 341.333333 640c-50.730667 0-89.344 7.04-117.504 18.261333a164.864 164.864 0 0 0-10.538666 4.608L213.333333 938.666667a42.666667 42.666667 0 0 1-85.333333 0V128z"
        fill="currentColor"></path>
</svg>