<svg width="20" height="20" viewBox="0 0 20 20" fill="none" xmlns="http://www.w3.org/2000/svg">
<path d="M4.16675 4.16671C4.16675 3.94569 4.25455 3.73373 4.41083 3.57745C4.56711 3.42117 4.77907 3.33337 5.00008 3.33337H6.66675C6.88776 3.33337 7.09972 3.42117 7.256 3.57745C7.41228 3.73373 7.50008 3.94569 7.50008 4.16671V15.8334C7.50008 16.0544 7.41228 16.2664 7.256 16.4226C7.09972 16.5789 6.88776 16.6667 6.66675 16.6667H5.00008C4.77907 16.6667 4.56711 16.5789 4.41083 16.4226C4.25455 16.2664 4.16675 16.0544 4.16675 15.8334V4.16671Z" stroke="#595959" stroke-width="1.66667" stroke-linecap="round" stroke-linejoin="round"/>
<path d="M7.5 4.16671C7.5 3.94569 7.5878 3.73373 7.74408 3.57745C7.90036 3.42117 8.11232 3.33337 8.33333 3.33337H10C10.221 3.33337 10.433 3.42117 10.5893 3.57745C10.7455 3.73373 10.8333 3.94569 10.8333 4.16671V15.8334C10.8333 16.0544 10.7455 16.2664 10.5893 16.4226C10.433 16.5789 10.221 16.6667 10 16.6667H8.33333C8.11232 16.6667 7.90036 16.5789 7.74408 16.4226C7.5878 16.2664 7.5 16.0544 7.5 15.8334V4.16671Z" stroke="#595959" stroke-width="1.66667" stroke-linecap="round" stroke-linejoin="round"/>
<path d="M4.16675 6.66663H7.50008" stroke="#595959" stroke-width="1.66667" stroke-linecap="round" stroke-linejoin="round"/>
<path d="M7.5 13.3334H10.8333" stroke="#595959" stroke-width="1.66667" stroke-linecap="round" stroke-linejoin="round"/>
<path d="M11.5026 3.79999L13.3226 3.35833C13.7909 3.24583 14.2667 3.51666 14.3909 3.96833L17.4701 15.15C17.5244 15.3547 17.5003 15.5723 17.4026 15.7602C17.3049 15.9481 17.1405 16.0928 16.9417 16.1658L16.8309 16.2L15.0109 16.6417C14.5426 16.7542 14.0667 16.4833 13.9426 16.0317L10.8634 4.84999C10.8091 4.64529 10.8331 4.42767 10.9309 4.23977C11.0286 4.05187 11.1929 3.90723 11.3917 3.83416L11.5026 3.79999Z" stroke="#595959" stroke-width="1.66667" stroke-linecap="round" stroke-linejoin="round"/>
<path d="M11.6667 7.49996L15.0001 6.66663" stroke="#595959" stroke-width="1.66667" stroke-linecap="round" stroke-linejoin="round"/>
<path d="M13.3333 13.3334L16.6024 12.5167" stroke="#595959" stroke-width="1.66667" stroke-linecap="round" stroke-linejoin="round"/>
</svg>
