<svg width="1368" height="122" viewBox="0 0 1368 122" fill="none" xmlns="http://www.w3.org/2000/svg">
<rect width="1368" height="122" fill="#FAFCFF"/>
<g clip-path="url(#clip0_7558_18160)">
<path d="M861.571 30.0353L841.969 26.0664L838 45.6687L857.602 49.6375L861.571 30.0353Z" fill="white" fill-opacity="0.01"/>
<path d="M842.414 44.8619C841.963 44.7706 841.671 44.3309 841.762 43.8798L844.739 29.1781C844.83 28.727 845.27 28.4354 845.721 28.5267L857.156 30.8419C857.607 30.9332 857.898 31.3729 857.807 31.824L854.83 46.5257C854.739 46.9768 854.299 47.2684 853.848 47.1771L842.414 44.8619Z" stroke="#D0DDFF" stroke-width="1.66667" stroke-linejoin="round"/>
<path fill-rule="evenodd" clip-rule="evenodd" d="M848.727 36.7874L850.215 29.4365L855.115 30.4287L853.627 37.7796L851.695 34.7218L848.727 36.7874Z" stroke="#D0DDFF" stroke-width="1.66667" stroke-linecap="round" stroke-linejoin="round"/>
<path d="M845.723 28.5264L857.157 30.8415" stroke="#D0DDFF" stroke-width="1.66667" stroke-linecap="round" stroke-linejoin="round"/>
</g>
<path d="M551.333 80.5469H547.166V95.5469H551.333V80.5469Z" stroke="#D0DDFF" stroke-width="1.66667" stroke-linejoin="round"/>
<path d="M555.501 80.5469H551.334V95.5469H555.501V80.5469Z" stroke="#D0DDFF" stroke-width="1.66667" stroke-linejoin="round"/>
<path d="M542.167 80.5469L545.5 80.9635L544.042 95.5469L540.5 95.1302L542.167 80.5469Z" stroke="#D0DDFF" stroke-width="1.66667" stroke-linejoin="round"/>
<path d="M553.416 85.5469V84.2969" stroke="#D0DDFF" stroke-width="1.66667" stroke-linecap="round" stroke-linejoin="round"/>
<path d="M549.25 85.5469V84.2969" stroke="#D0DDFF" stroke-width="1.66667" stroke-linecap="round" stroke-linejoin="round"/>
<g clip-path="url(#clip1_7558_18160)">
<path d="M913.994 85.5461L896.273 76.2734L887.001 93.994L904.721 103.267L913.994 85.5461Z" fill="white" fill-opacity="0.01"/>
<path d="M896.012 80.3692L889.83 92.1829L895.54 85.7653L906.8 91.6573L907.959 89.4422C908.172 89.0344 908.015 88.5309 907.607 88.3175L902.623 85.7096L901.936 82.5286L897.137 80.0172C896.729 79.8038 896.225 79.9614 896.012 80.3692Z" stroke="#D0DDFF" stroke-width="1.66667" stroke-linecap="round" stroke-linejoin="round"/>
<path d="M903.12 99.1369L908.46 92.5261L895.47 85.7285L889.83 92.1824L903.12 99.1369Z" stroke="#D0DDFF" stroke-width="1.66667" stroke-linecap="round" stroke-linejoin="round"/>
</g>
<g clip-path="url(#clip2_7558_18160)">
<path d="M959.453 49.6357L941.637 40.5479L932.549 58.3639L950.365 67.4517L959.453 49.6357Z" fill="white" fill-opacity="0.01"/>
<path d="M938.577 50.2134L940.849 45.7594L944.189 47.4633L944.568 46.721C945.195 45.4911 946.701 45.0026 947.931 45.63C949.161 46.2574 949.649 47.763 949.022 48.993L948.643 49.7353L951.984 51.4393L949.712 55.8933L951.196 56.6506C952.426 57.278 952.915 58.7836 952.287 60.0136C951.66 61.2435 950.154 61.732 948.924 61.1046L947.44 60.3473L945.925 63.3166L934.79 57.6367L936.305 54.6674L937.789 55.4247C939.019 56.0521 940.525 55.5636 941.152 54.3337C941.78 53.1038 941.291 51.5981 940.061 50.9707L938.577 50.2134Z" stroke="#D0DDFF" stroke-width="1.66667" stroke-linejoin="round"/>
</g>
<g clip-path="url(#clip3_7558_18160)">
<path d="M507.808 43.9257C506.814 40.8741 504.451 33.6259 504.451 33.6259C504.023 32.3132 504.74 30.9021 506.053 30.4741L514.768 27.6329L518.126 37.9327C518.126 37.9327 511.483 40.0982 509.41 40.774C508.103 41.2001 507.38 42.6122 507.808 43.9257Z" stroke="#D0DDFF" stroke-width="1.66667" stroke-linejoin="round"/>
<path d="M518.127 37.9324C518.127 37.9324 509.869 40.6247 509.412 40.7737C508.099 41.2016 507.382 42.6127 507.81 43.9254C508.238 45.2381 509.649 45.9554 510.962 45.5274C511.837 45.2421 516.062 43.8646 522.054 41.9113L517.405 27.65" stroke="#D0DDFF" stroke-width="1.66667" stroke-linecap="round" stroke-linejoin="round"/>
<path d="M510.582 43.0215L518.505 40.4386" stroke="#D0DDFF" stroke-width="1.66667" stroke-linecap="round" stroke-linejoin="round"/>
</g>
<g clip-path="url(#clip4_7558_18160)">
<path d="M447.771 81.8297L456.694 74.3138C457.046 74.0173 457.091 73.4916 456.794 73.1396L449.279 64.2164L443.726 63.4454L437.034 69.0823C436.682 69.3788 436.637 69.9045 436.933 70.2565L446.597 81.7292C446.893 82.0812 447.419 82.1262 447.771 81.8297Z" stroke="#D0DDFF" stroke-width="1.66667" stroke-linecap="round" stroke-linejoin="round"/>
<path d="M445.523 70.1048L447.81 71.1888L449.92 69.789L449.596 72.2998L451.579 73.8734L449.091 74.3411L448.207 76.7133L446.993 74.4917L444.464 74.3842L446.202 72.5435L445.523 70.1048Z" stroke="#D0DDFF" stroke-width="1.66667" stroke-linecap="round" stroke-linejoin="round"/>
<path d="M443.408 63.7139L446.092 66.9007L449.279 64.2165" stroke="#D0DDFF" stroke-width="1.66667" stroke-linecap="round" stroke-linejoin="round"/>
</g>
<defs>
<clipPath id="clip0_7558_18160">
<rect width="20" height="20" fill="white" transform="translate(841.969 26.0664) rotate(11.446)"/>
</clipPath>
<clipPath id="clip1_7558_18160">
<rect width="20" height="20" fill="white" transform="translate(896.273 76.2734) rotate(27.6219)"/>
</clipPath>
<clipPath id="clip2_7558_18160">
<rect width="20" height="20" fill="white" transform="translate(941.637 40.5479) rotate(27.0257)"/>
</clipPath>
<clipPath id="clip3_7558_18160">
<rect width="20" height="20" fill="white" transform="translate(500.258 30.1719) rotate(-18.0563)"/>
</clipPath>
<clipPath id="clip4_7558_18160">
<rect width="20" height="20" fill="white" transform="translate(432.773 70.4922) rotate(-40.1069)"/>
</clipPath>
</defs>
</svg>
