<svg width="14" height="14" viewBox="0 0 14 14" fill="currentColor" xmlns="http://www.w3.org/2000/svg">
<path id="Subtract" fill-rule="evenodd" clip-rule="evenodd" d="M7 14C10.866 14 14 10.866 14 7C14 3.13401 10.866 0 7 0C3.13401 0 0 3.13401 0 7C0 10.866 3.13401 14 7 14ZM7.34628 6.3059C6.74302 6.77216 6.06529 7.29598 6.19142 8.2389H7.55642C7.47183 7.50934 8.01276 7.0992 8.57076 6.67611C9.12103 6.25887 9.68792 5.82905 9.68792 5.0679C9.68792 3.6714 8.57492 2.9574 7.05242 2.9574C5.92892 2.9574 5.00492 3.4719 4.33292 4.2489L5.19392 5.0364C5.70842 4.5009 6.23342 4.2069 6.87392 4.2069C7.70342 4.2069 8.20742 4.5639 8.20742 5.2044C8.20742 5.64033 7.7977 5.957 7.34628 6.3059ZM5.94992 10.1079C5.94992 10.6539 6.33842 11.0424 6.88442 11.0424C7.40942 11.0424 7.80842 10.6539 7.80842 10.1079C7.80842 9.5619 7.40942 9.1839 6.88442 9.1839C6.34892 9.1839 5.94992 9.5619 5.94992 10.1079Z" fill="currentColor"/>
</svg>
