<svg width="78" height="21" viewBox="0 0 78 21" fill="none" xmlns="http://www.w3.org/2000/svg">
<g filter="url(#filter0_di_431_131)">
<circle cx="9" cy="10" r="6" fill="#34C759"/>
</g>
<path d="M23.988 6.712H27.88V7.944H23.988V6.712ZM23.988 8.994H27.88V10.184H23.988V8.994ZM23.988 11.346H27.88V12.578H23.988V11.346ZM30.064 9.75H35.328V11.164H30.064V9.75ZM24.688 4.402H26.9V5.676H24.688V4.402ZM29 3.814H34.208V5.2H29V3.814ZM29.014 12.438H35.608V13.88H29.014V12.438ZM31.618 8.49H33.214V16.204H31.618V8.49ZM25.514 7.356H26.62V11.808H25.514V7.356ZM33.76 3.814H35.244C35.244 3.814 35.2393 3.884 35.23 4.024C35.23 4.15467 35.2253 4.26667 35.216 4.36C35.1973 5.09733 35.1693 5.70867 35.132 6.194C35.0947 6.67933 35.0433 7.062 34.978 7.342C34.9127 7.622 34.8287 7.82267 34.726 7.944C34.614 8.084 34.488 8.18667 34.348 8.252C34.208 8.31733 34.0493 8.36867 33.872 8.406C33.7133 8.42467 33.508 8.43867 33.256 8.448C33.004 8.448 32.7333 8.44333 32.444 8.434C32.4347 8.21933 32.3973 7.986 32.332 7.734C32.2667 7.47267 32.178 7.25333 32.066 7.076C32.29 7.09467 32.4907 7.10867 32.668 7.118C32.8453 7.12733 32.9807 7.132 33.074 7.132C33.158 7.132 33.228 7.12733 33.284 7.118C33.3493 7.09933 33.4053 7.05733 33.452 6.992C33.508 6.92667 33.5547 6.79133 33.592 6.586C33.6293 6.37133 33.662 6.05867 33.69 5.648C33.718 5.23733 33.7413 4.696 33.76 4.024V3.814ZM29.77 8.588L31.142 8.868C31.0207 9.50267 30.848 10.1233 30.624 10.73C30.4093 11.3367 30.1667 11.8453 29.896 12.256C29.8027 12.1907 29.6813 12.116 29.532 12.032C29.3827 11.948 29.2287 11.8687 29.07 11.794C28.9113 11.7193 28.776 11.6587 28.664 11.612C28.9347 11.2387 29.1633 10.7813 29.35 10.24C29.5367 9.69867 29.6767 9.148 29.77 8.588ZM24.352 3.086L25.85 3.422C25.6727 4.05667 25.4627 4.682 25.22 5.298C24.9773 5.914 24.7067 6.488 24.408 7.02C24.1187 7.552 23.806 8.01867 23.47 8.42C23.386 8.336 23.2693 8.23333 23.12 8.112C22.9707 7.98133 22.8213 7.85533 22.672 7.734C22.5227 7.60333 22.3873 7.50533 22.266 7.44C22.742 6.91733 23.162 6.27333 23.526 5.508C23.89 4.73333 24.1653 3.926 24.352 3.086ZM23.372 6.712H24.716V10.422C24.716 10.87 24.6973 11.3507 24.66 11.864C24.632 12.3773 24.576 12.9 24.492 13.432C24.4173 13.9547 24.3007 14.4633 24.142 14.958C23.9833 15.4433 23.7733 15.8867 23.512 16.288C23.4373 16.204 23.3253 16.1107 23.176 16.008C23.036 15.9147 22.8867 15.8213 22.728 15.728C22.5787 15.644 22.448 15.5787 22.336 15.532C22.6533 15.0467 22.8867 14.51 23.036 13.922C23.1853 13.3247 23.2787 12.7227 23.316 12.116C23.3533 11.5 23.372 10.9307 23.372 10.408V6.712ZM27.418 6.712H28.804V14.636C28.804 14.972 28.7667 15.2473 28.692 15.462C28.6173 15.6767 28.4727 15.8447 28.258 15.966C28.0433 16.0873 27.7867 16.162 27.488 16.19C27.1893 16.2273 26.8207 16.246 26.382 16.246C26.3633 16.0407 26.3027 15.798 26.2 15.518C26.1067 15.238 26.0087 15.0047 25.906 14.818C26.186 14.8273 26.4473 14.8367 26.69 14.846C26.9327 14.846 27.1007 14.846 27.194 14.846C27.278 14.846 27.334 14.832 27.362 14.804C27.3993 14.7667 27.418 14.7013 27.418 14.608V6.712ZM30.694 4.276H32.192C32.136 4.95733 32.024 5.58733 31.856 6.166C31.6973 6.73533 31.4313 7.244 31.058 7.692C30.6847 8.14 30.1527 8.518 29.462 8.826C29.378 8.64867 29.2473 8.44333 29.07 8.21C28.902 7.97667 28.7387 7.79933 28.58 7.678C29.14 7.44467 29.56 7.16 29.84 6.824C30.1293 6.488 30.33 6.10533 30.442 5.676C30.5633 5.24667 30.6473 4.78 30.694 4.276ZM26.494 4.402H26.816L27.026 4.346L27.992 4.934C27.8333 5.382 27.6327 5.858 27.39 6.362C27.1473 6.85667 26.9187 7.28133 26.704 7.636C26.564 7.53333 26.3913 7.42133 26.186 7.3C25.99 7.17867 25.8173 7.08067 25.668 7.006C25.78 6.782 25.8873 6.53467 25.99 6.264C26.102 5.984 26.2 5.704 26.284 5.424C26.3773 5.13467 26.4473 4.88267 26.494 4.668V4.402ZM43.518 7.832H49.608V9.414H43.518V7.832ZM42.678 4.08L44.68 4.64C44.6613 4.77067 44.54 4.85467 44.316 4.892V8.182C44.316 8.742 44.288 9.36733 44.232 10.058C44.1853 10.7393 44.092 11.4487 43.952 12.186C43.812 12.914 43.602 13.628 43.322 14.328C43.0513 15.0187 42.6873 15.6533 42.23 16.232C42.1553 16.1107 42.0387 15.9753 41.88 15.826C41.7307 15.686 41.572 15.5507 41.404 15.42C41.236 15.2893 41.082 15.196 40.942 15.14C41.334 14.6267 41.6467 14.076 41.88 13.488C42.1133 12.8907 42.286 12.284 42.398 11.668C42.51 11.052 42.5847 10.4453 42.622 9.848C42.6593 9.24133 42.678 8.68133 42.678 8.168V4.08ZM47.76 3.254L49.174 4.57C48.6327 4.78467 48.0447 4.99 47.41 5.186C46.7753 5.37267 46.1313 5.536 45.478 5.676C44.8247 5.816 44.1853 5.93267 43.56 6.026C43.5227 5.83 43.448 5.59667 43.336 5.326C43.2333 5.05533 43.126 4.83133 43.014 4.654C43.5927 4.542 44.1713 4.416 44.75 4.276C45.3287 4.12667 45.8793 3.96333 46.402 3.786C46.9247 3.60867 47.3773 3.43133 47.76 3.254ZM46.136 8.322H47.802V16.246H46.136V8.322ZM36.63 5.998H41.852V7.58H36.63V5.998ZM38.548 3.1H40.158V16.246H38.548V3.1ZM38.478 7.076L39.458 7.412C39.3553 7.98133 39.22 8.56467 39.052 9.162C38.8933 9.75933 38.7067 10.3473 38.492 10.926C38.2867 11.5047 38.0627 12.046 37.82 12.55C37.5773 13.0447 37.3207 13.474 37.05 13.838C36.9753 13.5953 36.8587 13.3247 36.7 13.026C36.5413 12.7273 36.392 12.4753 36.252 12.27C36.504 11.962 36.742 11.6027 36.966 11.192C37.19 10.7813 37.3953 10.3473 37.582 9.89C37.778 9.42333 37.9507 8.952 38.1 8.476C38.2587 7.99067 38.3847 7.524 38.478 7.076ZM40.032 8.308C40.1253 8.40133 40.2653 8.56933 40.452 8.812C40.648 9.04533 40.8533 9.29733 41.068 9.568C41.2827 9.83867 41.474 10.0907 41.642 10.324C41.8193 10.5573 41.9453 10.7253 42.02 10.828L41.068 12.158C40.984 11.9433 40.8627 11.696 40.704 11.416C40.5453 11.136 40.3773 10.8513 40.2 10.562C40.0227 10.2633 39.85 9.98333 39.682 9.722C39.5233 9.46067 39.388 9.24133 39.276 9.064L40.032 8.308ZM50.672 9.246H63.328V10.954H50.672V9.246ZM52.856 3.268L54.634 3.646C54.4567 4.318 54.2373 4.976 53.976 5.62C53.724 6.25467 53.4487 6.852 53.15 7.412C52.8513 7.96267 52.534 8.448 52.198 8.868C52.0767 8.77467 51.9133 8.672 51.708 8.56C51.512 8.43867 51.3113 8.32667 51.106 8.224C50.9007 8.112 50.7233 8.028 50.574 7.972C50.9193 7.608 51.2367 7.174 51.526 6.67C51.8153 6.166 52.072 5.62467 52.296 5.046C52.5293 4.458 52.716 3.86533 52.856 3.268ZM53.262 5.326H62.124V7.034H52.422L53.262 5.326ZM57.868 9.596C58.288 10.9213 58.974 12.0133 59.926 12.872C60.878 13.7307 62.1567 14.328 63.762 14.664C63.6313 14.7853 63.4913 14.9393 63.342 15.126C63.202 15.3127 63.0667 15.504 62.936 15.7C62.8147 15.9053 62.712 16.092 62.628 16.26C61.4707 15.9613 60.486 15.5273 59.674 14.958C58.862 14.3887 58.1807 13.6887 57.63 12.858C57.0887 12.0273 56.636 11.0613 56.272 9.96L57.868 9.596ZM56.048 3.1H57.812V7.566C57.812 8.21933 57.77 8.882 57.686 9.554C57.6113 10.226 57.4527 10.884 57.21 11.528C56.9673 12.172 56.6127 12.788 56.146 13.376C55.6793 13.9547 55.0633 14.4913 54.298 14.986C53.542 15.4713 52.604 15.8867 51.484 16.232C51.4187 16.092 51.3207 15.9287 51.19 15.742C51.0687 15.5553 50.938 15.3687 50.798 15.182C50.658 15.0047 50.5273 14.86 50.406 14.748C51.414 14.4587 52.2587 14.1087 52.94 13.698C53.6213 13.2873 54.1673 12.8393 54.578 12.354C54.998 11.8687 55.3107 11.36 55.516 10.828C55.7307 10.2867 55.8707 9.74067 55.936 9.19C56.0107 8.63933 56.048 8.09333 56.048 7.552V3.1ZM67.066 5.998H68.508V9.82C68.508 10.3613 68.4707 10.926 68.396 11.514C68.3213 12.0927 68.1767 12.6713 67.962 13.25C67.7473 13.8287 67.4347 14.3747 67.024 14.888C66.6227 15.4013 66.086 15.8587 65.414 16.26C65.3113 16.1107 65.162 15.924 64.966 15.7C64.77 15.4853 64.5833 15.3127 64.406 15.182C65.022 14.8553 65.5073 14.4773 65.862 14.048C66.2167 13.6093 66.478 13.1473 66.646 12.662C66.8233 12.1673 66.9353 11.6773 66.982 11.192C67.038 10.7067 67.066 10.2447 67.066 9.806V5.998ZM68.046 13.362L69.18 12.662C69.3667 12.914 69.5627 13.194 69.768 13.502C69.9733 13.8007 70.1693 14.0947 70.356 14.384C70.552 14.664 70.706 14.9113 70.818 15.126L69.6 15.938C69.4973 15.714 69.3573 15.4527 69.18 15.154C69.012 14.8647 68.8253 14.5613 68.62 14.244C68.4147 13.9267 68.2233 13.6327 68.046 13.362ZM65.064 3.772H70.566V12.354H69.152V5.27H66.408V12.41H65.064V3.772ZM72.624 3.254L74.122 3.59C73.9447 4.42067 73.7207 5.24667 73.45 6.068C73.1793 6.88 72.8713 7.65 72.526 8.378C72.19 9.09667 71.812 9.72667 71.392 10.268C71.336 10.156 71.2473 10.0113 71.126 9.834C71.014 9.64733 70.8927 9.46533 70.762 9.288C70.6407 9.10133 70.5287 8.952 70.426 8.84C70.7713 8.392 71.0793 7.86933 71.35 7.272C71.63 6.67467 71.8773 6.03533 72.092 5.354C72.3067 4.67267 72.484 3.97267 72.624 3.254ZM72.19 5.62H77.37V7.104H72.19V5.62ZM75.214 6.208H75.494L75.76 6.166L76.67 6.404C76.5113 8.15867 76.2173 9.68 75.788 10.968C75.3587 12.256 74.8127 13.334 74.15 14.202C73.4873 15.0607 72.7033 15.7327 71.798 16.218C71.742 16.0873 71.6533 15.9427 71.532 15.784C71.4107 15.6347 71.2847 15.4853 71.154 15.336C71.0327 15.196 70.9207 15.0887 70.818 15.014C71.6673 14.5847 72.3953 14.0013 73.002 13.264C73.6087 12.5267 74.0987 11.6027 74.472 10.492C74.8453 9.38133 75.0927 8.056 75.214 6.516V6.208ZM72.666 7.888C72.9273 8.93333 73.282 9.918 73.73 10.842C74.178 11.766 74.7287 12.5827 75.382 13.292C76.0353 14.0013 76.7867 14.5613 77.636 14.972C77.468 15.1213 77.2813 15.3173 77.076 15.56C76.8707 15.812 76.712 16.036 76.6 16.232C75.6853 15.728 74.8873 15.0793 74.206 14.286C73.534 13.4927 72.96 12.5827 72.484 11.556C72.008 10.52 71.616 9.39533 71.308 8.182L72.666 7.888Z" fill="#FF3B30" fill-opacity="0.92"/>
<g filter="url(#filter1_di_431_131)">
<circle cx="9" cy="10" r="6" fill="#FF3B30"/>
</g>
<defs>
<filter id="filter0_di_431_131" x="0" y="2" width="18" height="18" filterUnits="userSpaceOnUse" color-interpolation-filters="sRGB">
<feFlood flood-opacity="0" result="BackgroundImageFix"/>
<feColorMatrix in="SourceAlpha" type="matrix" values="0 0 0 0 0 0 0 0 0 0 0 0 0 0 0 0 0 0 127 0" result="hardAlpha"/>
<feOffset dy="1"/>
<feGaussianBlur stdDeviation="1.5"/>
<feComposite in2="hardAlpha" operator="out"/>
<feColorMatrix type="matrix" values="0 0 0 0 0 0 0 0 0 0 0 0 0 0 0 0 0 0 0.15 0"/>
<feBlend mode="normal" in2="BackgroundImageFix" result="effect1_dropShadow_431_131"/>
<feBlend mode="normal" in="SourceGraphic" in2="effect1_dropShadow_431_131" result="shape"/>
<feColorMatrix in="SourceAlpha" type="matrix" values="0 0 0 0 0 0 0 0 0 0 0 0 0 0 0 0 0 0 127 0" result="hardAlpha"/>
<feOffset dy="1"/>
<feGaussianBlur stdDeviation="1.5"/>
<feComposite in2="hardAlpha" operator="arithmetic" k2="-1" k3="1"/>
<feColorMatrix type="matrix" values="0 0 0 0 0 0 0 0 0 0 0 0 0 0 0 0 0 0 0.15 0"/>
<feBlend mode="normal" in2="shape" result="effect2_innerShadow_431_131"/>
</filter>
<filter id="filter1_di_431_131" x="0" y="2" width="18" height="18" filterUnits="userSpaceOnUse" color-interpolation-filters="sRGB">
<feFlood flood-opacity="0" result="BackgroundImageFix"/>
<feColorMatrix in="SourceAlpha" type="matrix" values="0 0 0 0 0 0 0 0 0 0 0 0 0 0 0 0 0 0 127 0" result="hardAlpha"/>
<feOffset dy="1"/>
<feGaussianBlur stdDeviation="1.5"/>
<feComposite in2="hardAlpha" operator="out"/>
<feColorMatrix type="matrix" values="0 0 0 0 0 0 0 0 0 0 0 0 0 0 0 0 0 0 0.15 0"/>
<feBlend mode="normal" in2="BackgroundImageFix" result="effect1_dropShadow_431_131"/>
<feBlend mode="normal" in="SourceGraphic" in2="effect1_dropShadow_431_131" result="shape"/>
<feColorMatrix in="SourceAlpha" type="matrix" values="0 0 0 0 0 0 0 0 0 0 0 0 0 0 0 0 0 0 127 0" result="hardAlpha"/>
<feOffset dy="1"/>
<feGaussianBlur stdDeviation="1.5"/>
<feComposite in2="hardAlpha" operator="arithmetic" k2="-1" k3="1"/>
<feColorMatrix type="matrix" values="0 0 0 0 0 0 0 0 0 0 0 0 0 0 0 0 0 0 0.15 0"/>
<feBlend mode="normal" in2="shape" result="effect2_innerShadow_431_131"/>
</filter>
</defs>
</svg>
