<svg width="120" height="34" viewBox="0 0 120 34" fill="none" xmlns="http://www.w3.org/2000/svg">
<path d="M18.2797 5.91504V11.7671L13.7333 5.91504H10.8702V16.9741H13.9064V10.9019L18.6258 16.9741H21.3158V5.91504H18.2797Z" fill="#7F1084"/>
<path d="M32.1232 8.60509V5.91504H23.2979L23.2665 16.9741H26.3341V13.0256H31.5569V10.4771H26.3341V8.60509H32.1232Z" fill="#7F1084"/>
<path d="M33.5862 5.91504V16.9741H36.6695V5.91504H33.5862Z" fill="#7F1084"/>
<path d="M46.1083 5.91504V11.7671L41.5619 5.91504H38.6989V16.9741H41.735V10.9019L46.4544 16.9741H49.1444V5.91504H46.1083Z" fill="#7F1084"/>
<path d="M51.1737 5.91504V16.9741H54.257V5.91504H51.1737Z" fill="#7F1084"/>
<path d="M85.468 5.91504V11.7671L80.9217 5.91504H78.0586V16.9741H81.0947V10.9019L85.8141 16.9741H88.5042V5.91504H85.468Z" fill="#7F1084"/>
<path d="M6.4969 14.0638V2.98901H-0.00012207V5.91504H2.98882V14.0638H-0.00012207V16.9741H9.48585V14.0638H6.4969Z" fill="#7F1084"/>
<path d="M65.8195 10.4299V16.9741H56.2864V5.91504H65.8667V8.43205H58.8034V14.4414H63.2868V12.3963H61.462V10.4299H65.8195Z" fill="#7F1084"/>
<path d="M99.9408 8.43205V5.91504H90.8167V16.9741H99.9251V14.4414H93.3337V8.43205H99.9408Z" fill="#7F1084"/>
<path d="M9.48577 0H6.49683V2.98895H9.48577V0Z" fill="#2EA7E0"/>
<path d="M105.038 14.3627V12.6166H110.355V10.194H105.038V8.52643H110.905V5.91504H101.986V16.9741H110.984V14.3627H105.038Z" fill="#7F1084"/>
<path d="M70.5233 14.3627V12.6166H75.8405V10.194H70.5233V8.52643H76.3911V5.91504H67.4714V16.9741H76.4697V14.3627H70.5233Z" fill="#7F1084"/>
<path d="M12.2704 22.0215H0.597778V23.4845H12.2704V22.0215Z" fill="black"/>
<path d="M12.8053 27.4015V25.9385H7.17347V23.9878H5.55315V25.9385H0.0471944V27.4015H4.70366C3.99575 28.1881 2.91029 29.3207 1.73044 30.2803C1.22704 30.6893 0.346088 30.9882 0 31.0983L0.440477 32.404C0.613521 32.3411 1.77764 32.0737 2.51701 31.4759C4.02721 30.2646 5.33291 28.7544 6.04082 27.8892V30.9253C6.04082 31.8692 6.59141 32.2782 7.14201 32.2782H11.2793C12.0974 32.2782 12.8053 31.7591 12.8053 30.7837V29.242H11.3895V30.3275C11.3895 30.6421 11.2164 30.8309 10.9962 30.8309H7.84992C7.66114 30.8309 7.50383 30.6264 7.50383 30.3747V27.3858H12.8053V27.4015Z" fill="black"/>
<path d="M19.1764 24.4753H17.7291V32.3095H19.1764V24.4753Z" fill="black"/>
<path d="M28.9456 32.3412H26.7433V31.0827H28.7569C29.1187 31.0827 29.1344 30.7995 29.1344 30.595V24.098C29.1344 23.9092 29.0715 23.7834 28.8513 23.7834H19.8215C19.5855 23.7834 19.4125 23.5946 19.4125 23.3744V22.0215H20.9699V22.3047C20.9699 22.3361 20.9856 22.3518 21.0171 22.3518H29.4333C30.1884 22.3518 30.5817 22.8238 30.5817 23.6418V30.6108C30.566 31.6962 29.8423 32.3412 28.9456 32.3412Z" fill="black"/>
<path d="M64.404 25.3092L64.6871 24.5069H65.8984V22.918C65.8984 22.6663 65.7569 22.3989 65.395 22.3989H60.2981V22.0056H58.6935V22.3989H53.1089V24.1293H54.3202V23.5473H56.6012L54.2258 24.3181L54.5562 25.2935H53.3763V26.489H63.7432V27.2913H55.327L55.3427 26.8666H54.1L53.9741 29.8555C53.9584 30.1702 54.2101 30.4219 54.5247 30.4219H64.0736V31.1298L53.5494 31.0983V32.2781L64.577 32.3096C64.9703 32.3096 65.2692 31.995 65.2692 31.6174V29.9185C65.2692 29.5252 64.9546 29.2263 64.577 29.2263H55.2641L55.2798 28.4869H64.2152C64.6399 28.4869 64.986 28.1408 64.986 27.7161V26.0643C64.986 25.6395 64.6399 25.2935 64.2152 25.2935H54.6191L57.4822 24.3653L57.199 23.5473H61.7296L61.4465 24.3653L64.404 25.3092ZM64.6557 23.5945V24.2867L62.3589 23.5473H64.6242C64.6557 23.5473 64.6557 23.563 64.6557 23.5945Z" fill="black"/>
<path d="M26.8848 25.4822H21.3474C20.9384 25.4822 20.5923 25.8125 20.5923 26.2373V29.651C20.5923 30.06 20.9226 30.4061 21.3474 30.4061H26.8848C27.2938 30.4061 27.6399 30.0757 27.6399 29.651V26.2373C27.6399 25.8125 27.2938 25.4822 26.8848 25.4822ZM26.3814 29.1004C26.3814 29.1633 26.3342 29.2105 26.2556 29.2105H21.9609C21.898 29.2105 21.8351 29.1633 21.8351 29.1004V26.7407C21.8351 26.6778 21.8823 26.6306 21.9609 26.6306H26.2556C26.3185 26.6306 26.3814 26.6778 26.3814 26.7407V29.1004Z" fill="black"/>
<path d="M38.0225 25.2462H39.5327V24.145H44.142V25.2462H45.6522V24.145H48.1535V22.7135H45.6522V21.9741H44.142V22.7135H39.5327V21.9741H38.0225V22.7135H35.3954V24.145H38.0225V25.2462Z" fill="black"/>
<path d="M44.8342 30.5007C44.8342 30.6895 44.6769 30.831 44.5039 30.831H39.4856C39.344 30.831 39.2339 30.6895 39.2339 30.5007V26.4263H37.7709V30.7052C37.7709 31.8221 38.4631 32.2311 39.1238 32.2311H44.9915C45.6208 32.2311 46.1399 31.712 46.1399 31.0827V29.1635H44.8342V30.5007Z" fill="black"/>
<path d="M48.0119 29.5881C47.9017 29.1633 47.2253 26.1587 47.2096 26.1272L45.951 26.4104C45.9825 26.5362 46.6432 29.4622 46.7533 29.9027C46.9736 30.7522 47.3669 31.759 47.3826 31.7905L48.5782 31.3185C48.5939 31.3185 48.2164 30.3589 48.0119 29.5881Z" fill="black"/>
<path d="M42.5099 25.4236L41.2484 25.6931L42.1193 29.7698L43.3807 29.5003L42.5099 25.4236Z" fill="black"/>
<path d="M35.2853 30.1543C35.2066 30.8465 35.0336 31.5544 35.0336 31.5701L36.2763 31.8847C36.2921 31.8533 36.4651 31.0824 36.5595 30.2959C36.6382 29.5093 36.7483 26.5361 36.7483 26.4102L35.4583 26.363C35.474 26.3945 35.3639 29.4149 35.2853 30.1543Z" fill="black"/>
</svg>
