<svg t="1720769427211" class="icon" viewBox="0 0 1024 1024" version="1.1" xmlns="http://www.w3.org/2000/svg" p-id="3190" 
width="20" height="20">
<path d="M717.354667 188.544A42.538667 42.538667 0 0 0 682.666667 170.666667H128a42.666667 
42.666667 0 0 0-34.688 67.456L288.896 512l-195.626667 273.877333A42.666667 42.666667 0 0 0 128 853.333333h554.666667a42.538667 
42.538667 0 0 0 34.688-17.877333l213.333333-298.666667a42.538667 42.538667 0 0 0 0-49.578666l-213.333333-298.666667zM660.693333 
768H210.901333l165.12-231.210667a42.538667 42.538667 0 0 0 0-49.578666L210.901333 256h449.792l182.869334 256-182.869334 256z" 
p-id="3191" fill="currentColor">
</path>
</svg>