<svg t="1732785541650" class="icon" viewBox="0 0 1024 1024" version="1.1" xmlns="http://www.w3.org/2000/svg" p-id="1506"
    width="24" height="24">
    <path
        d="M866.354225 320.12764v44.927949c0.0256 5.964793-2.342397 11.699187-6.566392 15.910382-4.223995 4.223995-9.971189 6.579193-15.948782 6.553593H275.82689a89.599899 89.599899 0 0 1-90.086299-89.855899 89.599899 89.599899 0 0 1 90.086299-89.855899h227.711744v-49.919944c-27.532769-7.487992-45.055949-34.943961-45.05595-62.399929 0-37.439958 30.028766-69.887921 67.571124-69.887922a67.199924 67.199924 0 0 1 67.558324 67.391924c0 29.951966-20.019177 54.911938-45.043149 64.895927v49.919944h295.270068c5.977593-0.0256 11.724787 2.329597 15.948782 6.553593 4.223995 4.223995 6.591993 9.945589 6.566392 15.910382v44.927949h135.129448c5.977593-0.0256 11.711987 2.329597 15.948782 6.553593 4.223995 4.223995 6.591993 9.945589 6.566393 15.910382V524.79941c0.0256 5.964793-2.342397 11.699187-6.566393 15.910382-4.223995 4.223995-9.983989 6.579193-15.948782 6.553592H861.349431c-10.009589 39.935955-45.043149 67.391924-87.577501 67.391925h-565.503364a22.451175 22.451175 0 0 1-15.948782-6.553593 22.335975 22.335975 0 0 1-6.579193-15.910382v-44.92795H73.139118V729.471179h117.606267c10.009589-39.935955 45.055949-67.391924 87.577502-67.391924H846.335048c5.990393-0.0256 11.724787 2.329597 15.961582 6.553593 4.223995 4.223995 6.591993 9.945589 6.566393 15.910382v134.783848c0.0256 5.964793-2.342397 11.699187-6.566393 15.910382-4.223995 4.223995-9.983989 6.579193-15.961582 6.553593H548.568983v49.919944c27.519969 9.983989 45.043149 34.943961 45.043149 64.895927A67.199924 67.199924 0 0 1 526.053808 1023.998848a67.199924 67.199924 0 0 1-67.558324-67.391924c0-29.951966 20.019177-54.911938 45.03035-64.895927v-49.919944h-227.711744c-42.521552 0-77.567913-29.951966-87.564702-67.391924H48.115146a22.451175 22.451175 0 0 1-15.948782-6.553593A22.348775 22.348775 0 0 1 25.599971 751.935154V524.79941a22.348775 22.348775 0 0 1 6.566393-15.910383c4.223995-4.223995 9.983989-6.579193 15.948782-6.553592h135.129448v-44.92795a22.335975 22.335975 0 0 1 6.566392-15.910382c4.223995-4.223995 9.971189-6.579193 15.948783-6.553592h570.520958c42.534352 0 77.567913 29.951966 87.577501 67.391924h117.606268V320.12764h-115.110271zM275.83969 342.591615a44.79995 44.79995 0 0 0 45.043149-44.92795 44.79995 44.79995 0 0 0-45.055949-44.927949 44.79995 44.79995 0 0 0-45.03035 44.927949 44.79995 44.79995 0 0 0 45.04315 44.92795z m0 454.271489a44.79995 44.79995 0 0 0 45.043149-44.92795 44.79995 44.79995 0 0 0-45.055949-44.927949 44.79995 44.79995 0 0 0-45.03035 44.927949 44.79995 44.79995 0 0 0 45.04315 44.92795zM776.280727 569.727359A44.79995 44.79995 0 0 0 821.311076 524.79941a44.79995 44.79995 0 0 0-45.030349-44.92795 44.79995 44.79995 0 0 0-45.05595 44.92795 44.79995 44.79995 0 0 0 45.05595 44.927949z"
        fill="currentColor" p-id="1507"></path>
</svg>