<svg t="1732784885810" class="icon" viewBox="-100 0 1024 1024" version="1.1" xmlns="http://www.w3.org/2000/svg" p-id="1473"
    width="24" height="24">
    <path
        d="M192 341.6c-52.8 0-96-43.2-96-96s43.2-96 96-96 96 43.2 96 96S244.8 341.6 192 341.6zM192 181.6c-35.2 0-64 28.8-64 64s28.8 64 64 64 64-28.8 64-64S227.2 181.6 192 181.6z"
        p-id="1474"></path>
    <path
        d="M192 629.6c-52.8 0-96-43.2-96-96s43.2-96 96-96 96 43.2 96 96S244.8 629.6 192 629.6zM192 469.6c-35.2 0-64 28.8-64 64s28.8 64 64 64 64-28.8 64-64S227.2 469.6 192 469.6z"
        p-id="1475"></path>
    <path
        d="M832 629.6c-52.8 0-96-43.2-96-96s43.2-96 96-96 96 43.2 96 96S884.8 629.6 832 629.6zM832 469.6c-35.2 0-64 28.8-64 64s28.8 64 64 64 64-28.8 64-64S867.2 469.6 832 469.6z"
        p-id="1476" data-spm-anchor-id="a313x.search_index.0.i0.3d6b3a812IevVf"></path>
    <path
        d="M192 917.6c-52.8 0-96-43.2-96-96s43.2-96 96-96 96 43.2 96 96S244.8 917.6 192 917.6zM192 757.6c-35.2 0-64 28.8-64 64s28.8 64 64 64 64-28.8 64-64S227.2 757.6 192 757.6z"
        p-id="1477"></path>
    <path d="M272 517.6l480 0 0 32-480 0 0-32Z" p-id="1478"></path>
    <path
        d="M464 837.6 272 837.6l0-32 192 0c17.6 0 32-14.4 32-32l0-480c0-17.6-14.4-32-32-32L272 261.6l0-32 192 0c35.2 0 64 28.8 64 64l0 480C528 808.8 499.2 837.6 464 837.6z"
        p-id="1479"></path>
</svg>