<svg width="28" height="28" viewBox="0 0 28 28" fill="none" xmlns="http://www.w3.org/2000/svg">
    <g id="Group 469">
        <g id="&#232;&#174;&#190;&#231;&#189;&#174;_setting-two 1" clip-path="url(#clip0_372_1603)">
            <g id="Subtract">
                <path fill-rule="evenodd" clip-rule="evenodd"
                    d="M9.19588 18.6224C9.98319 19.4405 10.9775 20.0579 12.0945 20.3905C12.3523 19.584 13.1079 19.0001 13.9999 19.0001C14.8919 19.0001 15.6475 19.584 15.9053 20.3905C17.0224 20.0579 18.0167 19.4405 18.804 18.6224C18.5103 18.2743 18.3333 17.8245 18.3333 17.3334C18.3333 16.2288 19.2287 15.3334 20.3333 15.3334C20.4001 15.3334 20.4661 15.3367 20.5313 15.3431C20.62 14.9093 20.6666 14.4601 20.6666 14.0001C20.6666 13.3032 20.5597 12.6313 20.3613 11.9999L20.3333 12.0001C19.2287 12.0001 18.3333 11.1046 18.3333 10.0001C18.3333 9.68296 18.4071 9.38312 18.5384 9.11673C17.7674 8.39986 16.8264 7.86336 15.7826 7.5744C15.4518 8.22275 14.7777 8.66673 13.9999 8.66673C13.2222 8.66673 12.5481 8.22275 12.2173 7.5744C11.1734 7.86336 10.2324 8.39986 9.46145 9.11673C9.59279 9.38312 9.66659 9.68296 9.66659 10.0001C9.66659 11.1046 8.77116 12.0001 7.66659 12.0001L7.63852 11.9999C7.44018 12.6313 7.33325 13.3032 7.33325 14.0001C7.33325 14.4601 7.37985 14.9093 7.46858 15.3431C7.53372 15.3367 7.59977 15.3334 7.66659 15.3334C8.77116 15.3334 9.66659 16.2288 9.66659 17.3334C9.66659 17.8245 9.48959 18.2743 9.19588 18.6224ZM16.9999 14C16.9999 15.6569 15.6568 17 13.9999 17C12.3431 17 10.9999 15.6569 10.9999 14C10.9999 12.3431 12.3431 11 13.9999 11C15.6568 11 16.9999 12.3431 16.9999 14Z"
                    fill="currentColor" />
                <path
                    d="M12.0945 20.3905L11.9043 21.0294C12.2522 21.133 12.619 20.9392 12.7295 20.5935L12.0945 20.3905ZM9.19588 18.6224L8.68635 18.1924C8.46615 18.4534 8.47874 18.8386 8.71552 19.0846L9.19588 18.6224ZM15.9053 20.3905L15.2703 20.5935C15.3808 20.9392 15.7477 21.133 16.0955 21.0294L15.9053 20.3905ZM18.804 18.6224L19.2843 19.0846C19.5211 18.8386 19.5337 18.4534 19.3135 18.1924L18.804 18.6224ZM20.5313 15.3431L20.4661 16.0066C20.8059 16.0399 21.116 15.8112 21.1844 15.4767L20.5313 15.3431ZM20.3613 11.9999L20.9974 11.8001C20.9096 11.5206 20.6496 11.3311 20.3566 11.3332L20.3613 11.9999ZM20.3333 12.0001V12.6667L20.338 12.6667L20.3333 12.0001ZM18.5384 9.11673L19.1363 9.41151C19.2666 9.14736 19.208 8.82905 18.9923 8.6285L18.5384 9.11673ZM15.7826 7.5744L15.9604 6.9319C15.6552 6.8474 15.3326 6.98932 15.1887 7.27144L15.7826 7.5744ZM12.2173 7.5744L12.8111 7.27144C12.6672 6.98932 12.3447 6.8474 12.0394 6.9319L12.2173 7.5744ZM9.46145 9.11673L9.00749 8.6285C8.79181 8.82905 8.73327 9.14736 8.8635 9.41151L9.46145 9.11673ZM7.66659 12.0001L7.66184 12.6667H7.66659V12.0001ZM7.63852 11.9999L7.64326 11.3332C7.35029 11.3311 7.09029 11.5206 7.00249 11.8001L7.63852 11.9999ZM7.46858 15.3431L6.81544 15.4767C6.88386 15.8112 7.19397 16.0399 7.53378 16.0066L7.46858 15.3431ZM12.2847 19.7515C11.2805 19.4525 10.3855 18.8971 9.67623 18.1601L8.71552 19.0846C9.58087 19.9838 10.6745 20.6633 11.9043 21.0294L12.2847 19.7515ZM13.9999 18.3334C12.8096 18.3334 11.803 19.1129 11.4595 20.1875L12.7295 20.5935C12.9016 20.0552 13.4063 19.6667 13.9999 19.6667V18.3334ZM16.5403 20.1875C16.1968 19.1129 15.1903 18.3334 13.9999 18.3334V19.6667C14.5936 19.6667 15.0982 20.0552 15.2703 20.5935L16.5403 20.1875ZM18.3236 18.1601C17.6143 18.8971 16.7193 19.4525 15.7151 19.7515L16.0955 21.0294C17.3254 20.6633 18.419 19.9838 19.2843 19.0846L18.3236 18.1601ZM17.6666 17.3334C17.6666 17.9876 17.903 18.5884 18.2944 19.0523L19.3135 18.1924C19.1175 17.9601 18.9999 17.6613 18.9999 17.3334H17.6666ZM20.3333 14.6667C18.8605 14.6667 17.6666 15.8606 17.6666 17.3334H18.9999C18.9999 16.597 19.5969 16.0001 20.3333 16.0001V14.6667ZM20.5964 14.6796C20.5098 14.6711 20.4221 14.6667 20.3333 14.6667V16.0001C20.3781 16.0001 20.4224 16.0023 20.4661 16.0066L20.5964 14.6796ZM19.9999 14.0001C19.9999 14.415 19.9579 14.8194 19.8781 15.2095L21.1844 15.4767C21.2821 14.9991 21.3333 14.5053 21.3333 14.0001H19.9999ZM19.7253 12.1996C19.9036 12.7672 19.9999 13.3717 19.9999 14.0001H21.3333C21.3333 13.2346 21.2158 12.4954 20.9974 11.8001L19.7253 12.1996ZM20.338 12.6667L20.3661 12.6665L20.3566 11.3332L20.3285 11.3334L20.338 12.6667ZM17.6666 10.0001C17.6666 11.4728 18.8605 12.6667 20.3333 12.6667V11.3334C19.5969 11.3334 18.9999 10.7364 18.9999 10.0001H17.6666ZM17.9404 8.82194C17.7649 9.17796 17.6666 9.57845 17.6666 10.0001H18.9999C18.9999 9.78746 19.0492 9.58828 19.1363 9.41151L17.9404 8.82194ZM15.6047 8.21691C16.5431 8.47668 17.39 8.95922 18.0844 9.60495L18.9923 8.6285C18.1449 7.84049 17.1097 7.25005 15.9604 6.9319L15.6047 8.21691ZM13.9999 9.3334C15.0379 9.3334 15.9362 8.74019 16.3764 7.87736L15.1887 7.27144C14.9674 7.70531 14.5175 8.00007 13.9999 8.00007V9.3334ZM11.6234 7.87736C12.0636 8.74019 12.9619 9.3334 13.9999 9.3334V8.00007C13.4824 8.00007 13.0325 7.70531 12.8111 7.27144L11.6234 7.87736ZM9.91542 9.60495C10.6099 8.95922 11.4567 8.47668 12.3951 8.21691L12.0394 6.9319C10.8901 7.25005 9.85496 7.84049 9.00749 8.6285L9.91542 9.60495ZM10.3333 10.0001C10.3333 9.57845 10.2349 9.17796 10.0594 8.82194L8.8635 9.41151C8.95065 9.58828 8.99992 9.78746 8.99992 10.0001H10.3333ZM7.66659 12.6667C9.13935 12.6667 10.3333 11.4728 10.3333 10.0001H8.99992C8.99992 10.7364 8.40296 11.3334 7.66659 11.3334V12.6667ZM7.63377 12.6665L7.66184 12.6667L7.67133 11.3334L7.64326 11.3332L7.63377 12.6665ZM7.99992 14.0001C7.99992 13.3717 8.09627 12.7672 8.27454 12.1996L7.00249 11.8001C6.78408 12.4954 6.66659 13.2346 6.66659 14.0001H7.99992ZM8.12173 15.2095C8.04193 14.8194 7.99992 14.415 7.99992 14.0001H6.66659C6.66659 14.5053 6.71776 14.9991 6.81544 15.4767L8.12173 15.2095ZM7.66659 14.6667C7.5778 14.6667 7.48999 14.6711 7.40339 14.6796L7.53378 16.0066C7.57744 16.0023 7.62174 16.0001 7.66659 16.0001V14.6667ZM10.3333 17.3334C10.3333 15.8606 9.13935 14.6667 7.66659 14.6667V16.0001C8.40296 16.0001 8.99992 16.597 8.99992 17.3334H10.3333ZM9.7054 19.0523C10.0968 18.5884 10.3333 17.9876 10.3333 17.3334H8.99992C8.99992 17.6613 8.88238 17.9601 8.68635 18.1924L9.7054 19.0523ZM13.9999 17.6667C16.025 17.6667 17.6666 16.025 17.6666 14H16.3333C16.3333 15.2887 15.2886 16.3333 13.9999 16.3333V17.6667ZM10.3333 14C10.3333 16.025 11.9749 17.6667 13.9999 17.6667V16.3333C12.7113 16.3333 11.6666 15.2887 11.6666 14H10.3333ZM13.9999 10.3333C11.9749 10.3333 10.3333 11.975 10.3333 14H11.6666C11.6666 12.7113 12.7113 11.6667 13.9999 11.6667V10.3333ZM17.6666 14C17.6666 11.975 16.025 10.3333 13.9999 10.3333V11.6667C15.2886 11.6667 16.3333 12.7113 16.3333 14H17.6666Z"
                    fill="currentColor" />
            </g>
        </g>
    </g>
    <defs>
        <clipPath id="clip0_372_1603">
            <rect width="16" height="16" fill="white" transform="translate(6 6)" />
        </clipPath>
    </defs>
</svg>