<svg width="19" height="19" viewBox="0 0 19 19"  xmlns="http://www.w3.org/2000/svg">
    <path
        d="M8.09316 1.30337C8.5763 -0.00279069 10.4237 -0.0027914 10.9068 1.30337L12.2168 4.84472C12.4269 5.41286 12.9582 5.79883 13.5634 5.82313L17.3363 5.97461C18.7278 6.03047 19.2987 7.78746 18.2057 8.65058L15.2425 10.9907C14.7671 11.3662 14.5642 11.9907 14.7281 12.5738L15.7499 16.2088C16.1268 17.5495 14.6322 18.6354 13.4736 17.8626L10.3323 15.7676C9.82833 15.4315 9.17167 15.4315 8.66771 15.7676L5.52641 17.8626C4.3678 18.6354 2.87322 17.5495 3.25009 16.2088L4.27189 12.5738C4.43582 11.9907 4.2329 11.3662 3.75751 10.9907L0.794272 8.65058C-0.298659 7.78746 0.272219 6.03047 1.66375 5.97461L5.43657 5.82313C6.04184 5.79883 6.57308 5.41286 6.78323 4.84472L8.09316 1.30337Z"
        fill="currentColor" />
</svg>