<svg width="14" height="14" viewBox="0 0 14 14" fill="none" xmlns="http://www.w3.org/2000/svg">
<g clip-path="url(#clip0_2493_21221)">
<path d="M7 11.9095C7.61921 12.4638 8.43692 12.8008 9.33333 12.8008C11.2663 12.8008 12.8333 11.2338 12.8333 9.30076C12.8333 7.75469 11.8308 6.44275 10.4404 5.97949" stroke="#818181" stroke-width="1.16667" stroke-linecap="round" stroke-linejoin="round"/>
<path d="M7.92391 8.02112C8.07986 8.41767 8.16552 8.8496 8.16552 9.3015C8.16552 11.2345 6.59852 12.8015 4.66552 12.8015C2.73253 12.8015 1.16553 11.2345 1.16553 9.3015C1.16553 7.75132 2.17336 6.43649 3.56953 5.97656" stroke="#818181" stroke-width="1.16667" stroke-linecap="round" stroke-linejoin="round"/>
<path d="M7 8.13477C8.93299 8.13477 10.5 6.56777 10.5 4.63477C10.5 2.70177 8.93299 1.13477 7 1.13477C5.06701 1.13477 3.5 2.70177 3.5 4.63477C3.5 6.56777 5.06701 8.13477 7 8.13477Z" stroke="#818181" stroke-width="1.16667" stroke-linecap="round" stroke-linejoin="round"/>
</g>
<defs>
<clipPath id="clip0_2493_21221">
<rect width="14" height="14" fill="white"/>
</clipPath>
</defs>
</svg>
