<svg width="1368" height="122" viewBox="0 0 1368 122" fill="none" xmlns="http://www.w3.org/2000/svg">
<rect width="1368" height="122" fill="#FAFCFF"/>
<circle cx="877.625" cy="36.625" r="8.625" stroke="#D0DDFF" stroke-width="2"/>
<path d="M492.901 92.246L475.757 89.7506L486.49 76.1514L492.901 92.246Z" stroke="#D0DDFF" stroke-width="2"/>
<rect x="445" y="33.25" width="16.5" height="16.5" transform="rotate(-30 445 33.25)" stroke="#D0DDFF" stroke-width="2"/>
<rect x="944.32" y="55.7578" width="24" height="12" transform="rotate(-25.9639 944.32 55.7578)" stroke="#D0DDFF" stroke-width="2"/>
<path d="M400.08 65.4368L409.001 64.2495L414.49 71.3819L411.058 79.7017L402.136 80.889L396.647 73.7566L400.08 65.4368Z" fill="#D0DDFF" stroke="#D0DDFF" stroke-width="2.18182"/>
<path d="M909.326 71.9676L909.973 80.1673L916.75 84.8274L908.551 85.4743L903.891 92.252L903.244 84.0523L896.466 79.3922L904.666 78.7453L909.326 71.9676Z" fill="#D0DDFF" stroke="#D0DDFF" stroke-width="2"/>
</svg>
