<svg width="1368" height="122" viewBox="0 0 1368 122" fill="none" xmlns="http://www.w3.org/2000/svg">
<rect width="1368" height="122" fill="#FAFCFF"/>
<circle cx="843.059" cy="31.9957" r="5.12802" transform="rotate(22.3138 843.059 31.9957)" stroke="#D0DDFF" stroke-width="1.5"/>
<circle cx="843.053" cy="31.9973" r="8.94929" transform="rotate(22.3138 843.053 31.9973)" stroke="#D0DDFF" stroke-width="1.5"/>
<path d="M848.254 19.3318L845.654 25.6655M837.855 44.6669L840.455 38.3331M830.437 26.6782L836.771 29.2777M855.772 37.0761L849.439 34.4766" stroke="#D0DDFF" stroke-width="1.5" stroke-linecap="round"/>
<path d="M517.797 88.5072C517.668 87.9703 517.998 87.43 518.535 87.3003L522.423 86.3608C522.959 86.2311 523.5 86.5611 523.63 87.098L524.569 90.9861C524.699 91.5229 524.369 92.0632 523.832 92.193L519.944 93.1324C519.407 93.2622 518.867 92.9321 518.737 92.3953L517.797 88.5072Z" stroke="#D0DDFF" stroke-width="2" stroke-linecap="round"/>
<path d="M523.629 87.097C523.5 86.5602 523.83 86.0198 524.367 85.8901L528.255 84.9506C528.791 84.8209 529.332 85.151 529.462 85.6878L530.401 89.5759C530.531 90.1127 530.201 90.6531 529.664 90.7828L525.776 91.7223C525.239 91.852 524.699 91.522 524.569 90.9851L523.629 87.097Z" stroke="#D0DDFF" stroke-width="2" stroke-linecap="round"/>
<path d="M511.965 89.9173C511.836 89.3805 512.166 88.8402 512.702 88.7104L516.591 87.771C517.127 87.6412 517.668 87.9713 517.797 88.5081L518.737 92.3962C518.867 92.933 518.537 93.4734 518 93.6031L514.112 94.5426C513.575 94.6723 513.035 94.3423 512.905 93.8054L511.965 89.9173Z" stroke="#D0DDFF" stroke-width="2" stroke-linecap="round"/>
<path d="M519.208 94.3431C519.078 93.8063 519.408 93.2659 519.945 93.1362L523.833 92.1967C524.37 92.067 524.91 92.3971 525.04 92.9339L525.979 96.822C526.109 97.3588 525.779 97.8992 525.242 98.0289L521.354 98.9684C520.817 99.0981 520.277 98.7681 520.147 98.2312L519.208 94.3431Z" stroke="#D0DDFF" stroke-width="2" stroke-linecap="round"/>
<path d="M516.387 82.6791C516.257 82.1422 516.588 81.6019 517.124 81.4722L521.012 80.5327C521.549 80.403 522.09 80.733 522.219 81.2698L523.159 85.1579C523.289 85.6948 522.959 86.2351 522.422 86.3648L518.534 87.3043C517.997 87.434 517.456 87.104 517.327 86.5672L516.387 82.6791Z" stroke="#D0DDFF" stroke-width="2" stroke-linecap="round"/>
<g clip-path="url(#clip0_7558_18122)">
<path d="M450.259 35.3796C450.475 35.0303 450.704 34.693 450.945 34.368C455.28 28.5083 463.356 26.6582 469.857 30.2182" stroke="#D0DDFF" stroke-width="2" stroke-linecap="round" stroke-linejoin="round"/>
<path d="M467.8 34.3385C463.014 31.548 456.872 33.1656 454.081 37.9516" stroke="#D0DDFF" stroke-width="2" stroke-linecap="round" stroke-linejoin="round"/>
<path d="M465.699 38.306C462.964 36.7114 459.455 37.6358 457.86 40.3706" stroke="#D0DDFF" stroke-width="2" stroke-linecap="round" stroke-linejoin="round"/>
<path fill-rule="evenodd" clip-rule="evenodd" d="M462.909 43.6079C463.726 43.3926 464.214 42.5554 463.999 41.738C463.784 40.9207 462.947 40.4325 462.129 40.6478C461.312 40.8631 460.824 41.7002 461.039 42.5176C461.254 43.335 462.091 43.8231 462.909 43.6079Z" fill="#D0DDFF"/>
</g>
<rect x="932.629" y="46.0195" width="22.7539" height="17.262" rx="2.5" transform="rotate(-15 932.629 46.0195)" stroke="#D0DDFF" stroke-width="1.75"/>
<path d="M938.852 50.9258L949.784 47.9963" stroke="#D0DDFF" stroke-width="1.75" stroke-linecap="round"/>
<path d="M940.031 55.332L950.964 52.4026" stroke="#D0DDFF" stroke-width="1.75" stroke-linecap="round"/>
<path d="M400.115 84.1304C401.976 84.9393 404.127 85.1021 406.212 84.4348C410.773 82.9748 413.287 78.0936 411.827 73.5323C410.367 68.9711 405.486 66.457 400.925 67.9171C396.363 69.3771 393.849 74.2583 395.309 78.8196C396.102 81.2962 397.904 83.1693 400.115 84.1304ZM400.115 84.1304L397.221 89.7483" stroke="#D0DDFF" stroke-width="2" stroke-linecap="round"/>
<path d="M893.752 81.9598L894.399 90.1595L901.176 94.8196L892.976 95.4665L888.316 102.244L887.669 94.0445L880.892 89.3844L889.091 88.7375L893.752 81.9598Z" stroke="#D0DDFF" stroke-width="2"/>
<defs>
<clipPath id="clip0_7558_18122">
<rect width="24.3195" height="24.3195" fill="white" transform="translate(443 36.1289) rotate(-59.7548)"/>
</clipPath>
</defs>
</svg>
