<svg width="20" height="20" viewBox="0 0 20 20" fill="none" xmlns="http://www.w3.org/2000/svg">
<path d="M2.6582 3.57463C2.6582 3.33119 2.75491 3.09772 2.92705 2.92558C3.09919 2.75344 3.33266 2.65674 3.5761 2.65674H5.41188C5.65532 2.65674 5.88879 2.75344 6.06093 2.92558C6.23307 3.09772 6.32978 3.33119 6.32978 3.57463V16.4251C6.32978 16.6686 6.23307 16.902 6.06093 17.0742C5.88879 17.2463 5.65532 17.343 5.41188 17.343H3.5761C3.33266 17.343 3.09919 17.2463 2.92705 17.0742C2.75491 16.902 2.6582 16.6686 2.6582 16.4251V3.57463Z" stroke="#999999" stroke-width="1.66667" stroke-linecap="round" stroke-linejoin="round"/>
<path d="M6.32812 3.57463C6.32812 3.33119 6.42483 3.09772 6.59697 2.92558C6.76911 2.75344 7.00258 2.65674 7.24602 2.65674H9.08181C9.32525 2.65674 9.55872 2.75344 9.73085 2.92558C9.90299 3.09772 9.9997 3.33119 9.9997 3.57463V16.4251C9.9997 16.6686 9.90299 16.902 9.73085 17.0742C9.55872 17.2463 9.32525 17.343 9.08181 17.343H7.24602C7.00258 17.343 6.76911 17.2463 6.59697 17.0742C6.42483 16.902 6.32812 16.6686 6.32812 16.4251V3.57463Z" stroke="#999999" stroke-width="1.66667" stroke-linecap="round" stroke-linejoin="round"/>
<path d="M2.6582 6.32947H6.32978" stroke="#999999" stroke-width="1.66667" stroke-linecap="round" stroke-linejoin="round"/>
<path d="M6.32812 13.6711H9.9997" stroke="#999999" stroke-width="1.66667" stroke-linecap="round" stroke-linejoin="round"/>
<path d="M10.7373 3.17125L12.742 2.68476C13.2578 2.56085 13.7819 2.85916 13.9187 3.35666L17.3103 15.673C17.3702 15.8984 17.3437 16.1381 17.236 16.3451C17.1284 16.5521 16.9474 16.7114 16.7284 16.7919L16.6063 16.8295L14.6016 17.316C14.0858 17.4399 13.5617 17.1416 13.4249 16.6441L10.0333 4.32779C9.97344 4.10231 9.99994 3.86261 10.1076 3.65565C10.2152 3.44868 10.3963 3.28936 10.6152 3.20888L10.7373 3.17125Z" stroke="#999999" stroke-width="1.66667" stroke-linecap="round" stroke-linejoin="round"/>
<path d="M10.9199 7.24736L14.5915 6.32947" stroke="#999999" stroke-width="1.66667" stroke-linecap="round" stroke-linejoin="round"/>
<path d="M12.7578 13.6722L16.3587 12.7726" stroke="#999999" stroke-width="1.66667" stroke-linecap="round" stroke-linejoin="round"/>
</svg>
