<svg width="20" height="20" viewBox="0 0 20 20" fill="none" xmlns="http://www.w3.org/2000/svg">
<path d="M2.91602 15.4166C2.91602 12.2069 2.91602 4.58331 2.91602 4.58331C2.91602 3.2026 4.0353 2.08331 5.41602 2.08331H14.5827V12.9166C14.5827 12.9166 7.59627 12.9166 5.41602 12.9166C4.04102 12.9166 2.91602 14.0351 2.91602 15.4166Z" stroke="#999999" stroke-width="1.66667" stroke-linejoin="round"/>
<path d="M14.5827 12.9167C14.5827 12.9167 5.89672 12.9167 5.41602 12.9167C4.0353 12.9167 2.91602 14.036 2.91602 15.4167C2.91602 16.7974 4.0353 17.9167 5.41602 17.9167C6.33647 17.9167 10.7809 17.9167 17.0827 17.9167V2.91669" stroke="#999999" stroke-width="1.66667" stroke-linecap="round" stroke-linejoin="round"/>
<path d="M5.83398 15.4167H14.1673" stroke="#999999" stroke-width="1.66667" stroke-linecap="round" stroke-linejoin="round"/>
</svg>
