<svg width="64" height="64" viewBox="0 0 64 64" fill="none" xmlns="http://www.w3.org/2000/svg">
<path fill-rule="evenodd" clip-rule="evenodd" d="M28.0105 15C29.2403 15.0002 30.3453 15.7512 30.7985 16.8945L32.9685 22.3682C33.1195 22.7493 33.4882 22.9999 33.8981 23H48.8864C50.5866 23.0002 51.9474 24.4122 51.8845 26.1113L51.1423 46.1484C51.0625 48.2983 49.2956 50 47.1442 50H16.8864C14.722 49.9998 12.9502 48.2779 12.8884 46.1143L12.1169 19.1143C12.0525 16.8615 13.8613 15.0003 16.1149 15H28.0105ZM19.9997 40C19.4474 40 18.9997 40.4477 18.9997 41V43C18.9997 43.5523 19.4474 44 19.9997 44H36.9997C37.5519 43.9999 37.9997 43.5522 37.9997 43V41C37.9997 40.4478 37.5519 40.0001 36.9997 40H19.9997Z" fill="#1D78FF"/>
<path d="M34.6347 17.4104C34.3369 16.7486 34.8209 16 35.5466 16H48C48.5523 16 49 16.4477 49 17V20C49 20.5523 48.5523 21 48 21H36.8966C36.5031 21 36.1461 20.7692 35.9847 20.4104L34.6347 17.4104Z" fill="#5D9EFF"/>
</svg>
