<svg width="120" height="120" viewBox="0 0 120 120" fill="none" xmlns="http://www.w3.org/2000/svg">
<path d="M97.5 89.25C97.5 87.554 96.6438 85.8157 94.835 84.1084C93.0237 82.3988 90.338 80.804 86.9199 79.4395C80.0904 76.7129 70.5733 75 60 75C49.4268 75 39.9096 76.713 33.0801 79.4395C29.6621 80.804 26.9763 82.3989 25.165 84.1084C23.3562 85.8157 22.5 87.554 22.5 89.25C22.5001 90.946 23.3563 92.6834 25.165 94.3906C26.9763 96.1003 29.6619 97.6959 33.0801 99.0605C39.9096 101.787 49.4269 103.5 60 103.5C70.5732 103.5 80.0904 101.787 86.9199 99.0605C90.3381 97.6959 93.0237 96.1003 94.835 94.3906C96.6436 92.6834 97.4999 90.9459 97.5 89.25ZM99.8994 89.25C99.8993 91.8203 98.5902 94.1473 96.4824 96.1367C94.3771 98.1239 91.3947 99.8578 87.8096 101.289C80.6325 104.154 70.7999 105.899 60 105.899C49.2 105.899 39.3665 104.154 32.1895 101.289C28.6046 99.8579 25.6228 98.1237 23.5176 96.1367C21.4098 94.1473 20.0997 91.8203 20.0996 89.25C20.0996 86.6796 21.4098 84.3528 23.5176 82.3633C25.6228 80.3762 28.6046 78.6422 32.1895 77.2109C39.3665 74.3457 49.2 72.5996 60 72.5996C70.8 72.5996 80.6325 74.3457 87.8096 77.2109C91.3948 78.6422 94.3771 80.3761 96.4824 82.3633C98.5902 84.3528 99.8994 86.6797 99.8994 89.25Z" fill="#4D6DFD"/>
<path d="M60.0002 80.7002C70.0352 80.7002 78.8029 82.3365 84.807 84.7335C87.8284 85.9397 89.8098 87.2036 90.9227 88.2541C91.5157 88.8138 91.5157 89.6866 90.9227 90.2463C89.8098 91.2968 87.8284 92.5607 84.807 93.7669C78.8029 96.1639 70.0352 97.8002 60.0002 97.8002C49.9652 97.8002 41.1975 96.1639 35.1933 93.7669C32.172 92.5607 30.1906 91.2968 29.0776 90.2463C28.4845 89.6865 28.4845 88.8139 29.0776 88.2541C30.1906 87.2036 32.172 85.9397 35.1933 84.7335C41.1975 82.3365 49.9652 80.7002 60.0002 80.7002Z" fill="#4D6DFD"/>
<path d="M60.0008 79.5C70.1491 79.5 79.0748 81.1528 85.2527 83.6191C88.3574 84.8586 90.4869 86.1926 91.7469 87.3818C92.8414 88.4151 92.8415 90.0859 91.7469 91.1191C90.4869 92.3084 88.3574 93.6424 85.2527 94.8818C79.0748 97.3482 70.1491 99 60.0008 99C49.8525 99 40.9267 97.3482 34.7488 94.8818C31.6442 93.6424 29.5147 92.3083 28.2547 91.1191C27.1599 90.0858 27.1599 88.4152 28.2547 87.3818C29.5147 86.1926 31.6441 84.8586 34.7488 83.6191C40.9267 81.1528 49.8524 79.5 60.0008 79.5ZM60.0008 81.9004C50.0791 81.9004 41.4689 83.52 35.6385 85.8477C32.7008 87.0205 30.8681 88.2153 29.9021 89.127C29.8388 89.1867 29.8338 89.2319 29.8338 89.25C29.8338 89.268 29.8386 89.314 29.9021 89.374C30.8681 90.2856 32.7012 91.4797 35.6385 92.6523C41.4689 94.98 50.0791 96.6006 60.0008 96.6006C69.9224 96.6006 78.5327 94.98 84.3631 92.6523C87.3004 91.4796 89.1335 90.2856 90.0994 89.374C90.1629 89.3141 90.1678 89.2682 90.1678 89.25C90.1677 89.2317 90.1626 89.1866 90.0994 89.127C89.1335 88.2153 87.3008 87.0205 84.3631 85.8477C78.5327 83.52 69.9224 81.9004 60.0008 81.9004Z" fill="#4D6DFD"/>
<path d="M30 25.5V89.0996H27.5996V25.5H30ZM92.3994 25.5V89.0996H90V25.5H92.3994Z" fill="#4D6DFD"/>
<path d="M74.0293 43.1143L72 44.2861L69.9717 43.1143L71.1719 41.0361L72 41.5146L72.8291 41.0361L74.0293 43.1143ZM67.4844 37.9502V38.9062L68.3135 39.3857L67.1133 41.4648L65.085 40.293V37.9502H67.4844ZM78.916 37.9502V40.293L76.8877 41.4648L75.6875 39.3857L76.5166 38.9062V37.9502H78.916ZM67.7139 32.1748L68.3135 33.2148L67.4844 33.6924V34.6504H65.085V32.3076L67.1133 31.1357L67.7139 32.1748ZM78.916 32.3076V34.6504H76.5166V33.6924L75.6875 33.2148L76.2871 32.1748L76.8877 31.1357L78.916 32.3076ZM74.0293 29.4863L72.8291 31.5645L72 31.085L71.1719 31.5645L69.9717 29.4863L72 28.3145L74.0293 29.4863Z" fill="#4D6DFD"/>
<path d="M54.6152 49.4072V57.3926L47.6992 61.3857L40.7842 57.3926V49.4072L47.6992 45.4141L54.6152 49.4072ZM43.1836 50.792V56.0059L47.6992 58.6143L52.2158 56.0059V50.792L47.6992 48.1846L43.1836 50.792Z" fill="#4D6DFD"/>
<path d="M71.9999 67.2002L77.7157 70.5002V77.1002L71.9999 80.4002L66.2842 77.1002V70.5002L71.9999 67.2002Z" fill="#4D6DFD"/>
<path d="M78.916 69.8076V77.793L72 81.7861L65.085 77.793V69.8076L72 65.8145L78.916 69.8076ZM67.4844 71.1924V76.4062L72 79.0146L76.5166 76.4062V71.1924L72 68.585L67.4844 71.1924Z" fill="#4D6DFD"/>
</svg>
