<svg width="120" height="120" viewBox="0 0 120 120" fill="none" xmlns="http://www.w3.org/2000/svg">
<ellipse cx="59.9998" cy="89.2498" rx="38.7" ry="15.45" stroke="#4D6DFD" stroke-width="2.4"/>
<path d="M60.0004 80.7002C70.0354 80.7002 78.8031 82.3365 84.8072 84.7335C87.8286 85.9397 89.81 87.2036 90.923 88.2541C91.5159 88.8138 91.5159 89.6866 90.923 90.2463C89.81 91.2968 87.8286 92.5607 84.8072 93.7669C78.8031 96.1639 70.0354 97.8002 60.0004 97.8002C49.9654 97.8002 41.1977 96.1639 35.1936 93.7669C32.1722 92.5607 30.1908 91.2968 29.0778 90.2463C28.4847 89.6865 28.4847 88.8139 29.0778 88.2541C30.1908 87.2036 32.1722 85.9397 35.1936 84.7335C41.1977 82.3365 49.9654 80.7002 60.0004 80.7002Z" fill="#4D6DFD" stroke="#4D6DFD" stroke-width="2.4"/>
<path d="M28.7998 25.5V89.1M91.1998 25.5V89.1" stroke="#4D6DFD" stroke-width="2.4"/>
<path d="M71.9999 29.7002L77.7157 33.0002V39.6002L71.9999 42.9002L66.2841 39.6002V33.0002L71.9999 29.7002Z" stroke="#4D6DFD" stroke-width="2.4" stroke-dasharray="4.8 4.8"/>
<path d="M47.7001 46.7998L53.4159 50.0998V56.6998L47.7001 59.9998L41.9843 56.6998V50.0998L47.7001 46.7998Z" stroke="#4D6DFD" stroke-width="2.4"/>
<path d="M71.9999 67.2002L77.7157 70.5002V77.1002L71.9999 80.4002L66.2841 77.1002V70.5002L71.9999 67.2002Z" fill="#4D6DFD" stroke="#4D6DFD" stroke-width="2.4"/>
</svg>
