<svg width="16" height="16" viewBox="0 0 16 16" fill="none" xmlns="http://www.w3.org/2000/svg">
<path d="M12.0002 12C12.2654 12 12.5198 11.8946 12.7073 11.7071C12.8948 11.5196 13.0002 11.2652 13.0002 11V8.558C13.0002 8.29278 12.8948 8.03843 12.7073 7.85089C12.5198 7.66336 12.2654 7.558 12.0002 7.558H10.6122C10.6122 7.20667 10.6328 6.85533 10.6742 6.504C10.7362 6.132 10.8395 5.80133 10.9842 5.512C11.1288 5.22267 11.3152 4.995 11.5432 4.829C11.7698 4.643 12.0592 4.55 12.4112 4.55V3C11.8325 3 11.3258 3.124 10.8912 3.372C10.4595 3.61687 10.0887 3.95595 9.80618 4.364C9.52179 4.81315 9.31239 5.30559 9.18618 5.822C9.05857 6.39174 8.99616 6.97415 9.00018 7.558V11C9.00018 11.2652 9.10554 11.5196 9.29308 11.7071C9.48061 11.8946 9.73497 12 10.0002 12H12.0002ZM6.00018 12C6.2654 12 6.51975 11.8946 6.70729 11.7071C6.89483 11.5196 7.00018 11.2652 7.00018 11V8.558C7.00018 8.29278 6.89483 8.03843 6.70729 7.85089C6.51975 7.66336 6.2654 7.558 6.00018 7.558H4.61218C4.61218 7.20667 4.63285 6.85533 4.67418 6.504C4.73685 6.132 4.84018 5.80133 4.98418 5.512C5.12885 5.22267 5.31518 4.995 5.54318 4.829C5.76985 4.643 6.05918 4.55 6.41118 4.55V3C5.83252 3 5.32585 3.124 4.89118 3.372C4.45952 3.61687 4.08866 3.95595 3.80618 4.364C3.52179 4.81315 3.31239 5.30559 3.18618 5.822C3.05857 6.39174 2.99616 6.97415 3.00018 7.558V11C3.00018 11.2652 3.10554 11.5196 3.29308 11.7071C3.48061 11.8946 3.73497 12 4.00018 12H6.00018Z" fill="#024DE3"/>
</svg>
