<svg width="40" height="35" viewBox="0 0 40 35" fill="none" xmlns="http://www.w3.org/2000/svg">
<path fill-rule="evenodd" clip-rule="evenodd" d="M15.8942 0C17.1244 0 18.23 0.750985 18.6833 1.89453L20.8532 7.36816C21.0043 7.74936 21.3729 7.99998 21.7829 8H36.7702C38.4706 8 39.8312 9.4121 39.7683 11.1113L39.0261 31.1484C38.9462 33.2983 37.1804 35 35.029 35H4.7712C2.60658 35 0.834989 33.278 0.773151 31.1143L0.00166653 4.11426C-0.0627028 1.8613 1.74585 2.71375e-05 3.99971 0H15.8942ZM7.8835 25C7.33129 25.0001 6.8835 25.4478 6.8835 26V28C6.8835 28.5522 7.33129 28.9999 7.8835 29H24.8835C25.4358 29 25.8835 28.5523 25.8835 28V26C25.8835 25.4477 25.4358 25 24.8835 25H7.8835Z" fill="#1D78FF"/>
</svg>
