<svg width="120" height="120" viewBox="0 0 120 120" fill="none" xmlns="http://www.w3.org/2000/svg">
<path d="M3.59998 60H25.102M116.4 60H94.898" stroke="#335CFF" stroke-width="2.4" stroke-dasharray="3 3"/>
<path d="M11.1584 31.8008L25.0831 39.8402M108.845 88.2002L94.9205 80.1608" stroke="#335CFF" stroke-width="2.4" stroke-dasharray="3 3"/>
<path d="M11.1564 88.2002L25.081 80.1608M108.843 31.8007L94.9185 39.8401" stroke="#335CFF" stroke-width="2.4" stroke-dasharray="3 3"/>
<circle cx="60" cy="60.0001" r="23.4" stroke="#335CFF" stroke-width="2.4"/>
<path d="M47.3274 59.8706L55.8127 68.3559L72.7832 51.3853" stroke="#335CFF" stroke-width="4.8" stroke-linecap="round"/>
<path d="M22.8209 49.402L24.594 51.1181L27.0436 50.8211L25.3274 52.5942L25.6244 55.0438L23.8514 53.3277L21.4017 53.6246L23.1179 51.8516L22.8209 49.402Z" fill="#335CFF" stroke="#335CFF" stroke-width="1.2"/>
<path d="M83.9347 89.4143L83.7987 91.8781L85.6273 93.535L83.1635 93.399L81.5066 95.2275L81.6426 92.7637L79.814 91.1068L82.2778 91.2428L83.9347 89.4143Z" fill="#335CFF" stroke="#335CFF" stroke-width="1.2"/>
<path d="M80.55 17.7002L82.159 22.2412L86.7 23.8502L82.159 25.4592L80.55 30.0002L78.941 25.4592L74.4 23.8502L78.941 22.2412L80.55 17.7002Z" fill="#335CFF" stroke="#335CFF" stroke-width="1.2"/>
</svg>
