<svg t="1728704330923" class="icon" viewBox="-100 -100 1224 1224" version="1.1" xmlns="http://www.w3.org/2000/svg" p-id="4263"
    width="24" height="24">
    <path
        d="M817.403509 589.249123c0-18.863158-6.287719-35.031579-19.761404-49.403509L412.294737 155.396491c-13.473684-13.473684-32.336842-25.150877-54.792982-35.031579-23.354386-9.880702-44.014035-14.37193-62.877193-14.37193L70.063158 105.992982c-18.863158 0-35.031579 7.185965-48.505263 20.659649-13.473684 13.473684-20.659649 29.642105-20.659649 48.505263l0 223.663158c0 18.863158 4.491228 40.421053 14.37193 62.877193 9.880702 23.354386 20.659649 41.319298 35.031579 54.792982l385.347368 385.347368c13.473684 13.473684 29.642105 19.761404 48.505263 19.761404 18.863158 0 35.031579-6.287719 49.403509-19.761404L797.642105 637.754386C810.217544 624.280702 817.403509 608.112281 817.403509 589.249123L817.403509 589.249123zM221.866667 327.859649c-13.473684 13.473684-29.642105 19.761404-48.505263 19.761404-18.863158 0-35.031579-6.287719-48.505263-19.761404-13.473684-13.473684-19.761404-29.642105-19.761404-48.505263 0-18.863158 6.287719-35.031579 19.761404-48.505263 13.473684-13.473684 29.642105-19.761404 48.505263-19.761404 18.863158 0 35.031579 6.287719 48.505263 19.761404 13.473684 13.473684 19.761404 29.642105 19.761404 48.505263C242.526316 298.217544 235.340351 314.385965 221.866667 327.859649L221.866667 327.859649zM1004.238596 539.845614 618.891228 155.396491c-13.473684-13.473684-32.336842-25.150877-54.792982-35.031579-23.354386-9.880702-44.014035-14.37193-62.877193-14.37193L379.957895 105.992982c18.863158 0 40.421053 4.491228 62.877193 14.37193 23.354386 9.880702 41.319298 20.659649 54.792982 35.031579l385.347368 384.449123c13.473684 14.37193 19.761404 30.540351 19.761404 49.403509 0 18.863158-6.287719 35.031579-19.761404 48.505263L630.568421 891.059649c10.778947 10.778947 20.659649 18.863158 28.74386 24.252632 8.084211 5.389474 18.863158 7.185965 31.438596 7.185965 18.863158 0 35.031579-6.287719 49.403509-19.761404L1004.238596 637.754386c13.473684-13.473684 19.761404-29.642105 19.761404-48.505263C1024 570.385965 1017.712281 554.217544 1004.238596 539.845614L1004.238596 539.845614zM1004.238596 539.845614"
        fill="currentColor" p-id="4264"></path>
</svg>