<svg t="1718006896287" class="icon" viewBox="0 0 1229 1024" version="1.1" xmlns="http://www.w3.org/2000/svg" p-id="5500"
    width="200" height="200">
    <path
        d="M702.72 849.92c-76.8 30.72-158.72 35.84-240.64 30.72-35.84-5.12-71.68-10.24-107.52-20.48-5.12 0-10.24 0-15.36 5.12-46.08 20.48-92.16 46.08-133.12 66.56-15.36 10.24-30.72 10.24-46.08 0s-15.36-25.6-15.36-46.08c10.24-35.84 10.24-71.68 15.36-107.52 0-5.12-5.12-10.24-5.12-15.36-51.2-51.2-92.16-102.4-122.88-168.96-51.2-122.88-40.96-245.76 30.72-358.4C134.4 112.64 247.04 46.08 380.16 15.36S641.28 0 764.16 61.44c112.64 56.32 194.56 143.36 230.4 266.24 15.36 46.08 20.48 92.16 15.36 138.24-25.6-25.6-56.32-30.72-87.04-15.36 0-30.72 0-61.44-10.24-92.16-20.48-71.68-61.44-128-112.64-174.08-87.04-71.68-194.56-102.4-307.2-102.4-117.76 10.24-220.16 51.2-302.08 133.12-66.56 66.56-102.4 148.48-97.28 245.76 5.12 81.92 40.96 148.48 92.16 204.8l40.96 40.96c20.48 15.36 25.6 30.72 15.36 51.2-5.12 20.48-10.24 46.08-15.36 66.56 0 5.12-5.12 10.24 0 10.24 5.12 5.12 10.24 0 10.24 0 25.6-15.36 56.32-30.72 81.92-51.2 15.36-10.24 30.72-10.24 51.2-5.12 87.04 25.6 179.2 25.6 266.24 0 5.12 0 10.24-5.12 10.24 5.12 10.24 30.72 25.6 51.2 56.32 66.56z"
        fill="#0082EF" p-id="5501"></path>
    <path
        d="M1214.72 747.52c0 35.84-25.6 61.44-56.32 66.56-51.2 10.24-92.16 30.72-128 66.56-10.24 10.24-15.36 10.24-25.6 5.12-5.12-5.12-5.12-15.36 0-25.6 35.84-35.84 56.32-81.92 66.56-128 5.12-35.84 40.96-56.32 76.8-56.32 40.96 5.12 66.56 35.84 66.56 71.68z"
        fill="#0081EE" p-id="5502"></path>
    <path
        d="M953.6 1024c-35.84 0-66.56-25.6-71.68-56.32-5.12-51.2-30.72-92.16-66.56-122.88-5.12-5.12-10.24-10.24-5.12-20.48 5.12-15.36 15.36-15.36 25.6-10.24 10.24 5.12 15.36 15.36 20.48 20.48 30.72 25.6 66.56 40.96 102.4 46.08 35.84 5.12 61.44 40.96 56.32 76.8 5.12 35.84-25.6 66.56-61.44 66.56z"
        fill="#FA6202" p-id="5503"></path>
    <path
        d="M682.24 757.76c0-35.84 20.48-61.44 56.32-71.68 51.2-10.24 92.16-30.72 128-66.56 10.24-10.24 20.48-10.24 25.6 0 5.12 5.12 5.12 15.36-5.12 25.6-30.72 30.72-51.2 66.56-61.44 112.64 0 5.12 0 15.36-5.12 20.48-10.24 35.84-40.96 56.32-76.8 51.2-35.84-5.12-61.44-35.84-61.44-71.68z"
        fill="#FECD00" p-id="5504"></path>
    <path
        d="M1035.52 578.56c15.36 30.72 30.72 56.32 51.2 76.8 10.24 10.24 10.24 20.48 5.12 25.6-5.12 10.24-15.36 10.24-25.6 0-25.6-30.72-61.44-51.2-97.28-61.44-10.24-5.12-20.48-5.12-30.72-5.12-20.48-5.12-40.96-15.36-46.08-40.96-10.24-25.6-10.24-51.2 10.24-71.68 20.48-25.6 46.08-30.72 71.68-25.6 25.6 10.24 46.08 25.6 51.2 56.32 0 15.36 5.12 30.72 10.24 46.08z"
        fill="#2CBD00" p-id="5505"></path>
</svg>