<svg viewBox="0 0 1024 1024" xmlns:xlink="http://www.w3.org/1999/xlink" xmlns="http://www.w3.org/2000/svg" id="图层_1"><defs><style>.cls-1{fill:url(#未命名的渐变_31);}.cls-2{fill:#eef0f2;}.cls-3{fill:#d8d9db;}.cls-4{fill:#fff;}.cls-5{fill:url(#未命名的渐变_29);}.cls-6{fill:url(#未命名的渐变_51);}.cls-7{fill:url(#未命名的渐变_50);}.cls-8{fill:#bfc0c2;}</style><linearGradient gradientUnits="userSpaceOnUse" gradientTransform="matrix(280, 0, 0, -80, 526471.1, -33944.44)" y2="-431.23" x2="-1878.43" y1="-434.89" x1="-1878.43" id="未命名的渐变_31"><stop stop-opacity="0" stop-color="#e7e9eb" offset="0"></stop><stop stop-opacity="0.1" stop-color="#e7e9eb" offset="0.32"></stop><stop stop-color="#e7e9eb" offset="1"></stop></linearGradient><linearGradient gradientUnits="userSpaceOnUse" gradientTransform="matrix(156, 0, 0, -90, 292547, -38063)" y2="-430.78" x2="-1872.02" y1="-427.12" x1="-1872.02" id="未命名的渐变_29"><stop stop-color="#eef0f2" offset="0"></stop><stop stop-color="#d8d9db" offset="1"></stop></linearGradient><linearGradient gradientUnits="userSpaceOnUse" gradientTransform="matrix(97.19, 0, 0, -77.99, 181647.9, -33228.9)" y2="-431.77" x2="-1862.68" y1="-428.12" x1="-1860.85" id="未命名的渐变_51"><stop stop-opacity="0" stop-color="#c9cacc" offset="0"></stop><stop stop-opacity="0.7" stop-color="#c9cacc" offset="0.26"></stop><stop stop-color="#c9cacc" offset="1"></stop></linearGradient><linearGradient gradientUnits="userSpaceOnUse" gradientTransform="matrix(25.81, 0, 0, -10.85, 46905.15, -5829.69)" y2="-578.48" x2="-1801.56" y1="-582.13" x1="-1802.31" id="未命名的渐变_50"><stop stop-color="#cecfd1" offset="0"></stop><stop stop-color="#d8d9db" offset="1"></stop></linearGradient></defs><g id="暂无文件"><g id="背景"><path d="M3.31,707.15S51.72,552.09,215.85,553.24c90,.56,159.77,41.13,217.25,60.08,47.27,15.55,86.22,10.24,121.2,8.72,77.54-3.41,160.92-37.72,241.84-34.88,80.93,2.66,91.71,34.5,146.36,51.37,41.6,12.89,81.5,38.86,81.5,61,0,26.61-15.32,59.7-66,68.1-74.31,12.14-308.2,96.67-561.2,74.5C166.5,821.9,0,775.18,0,721.45A51.75,51.75,0,0,1,3.31,707.15Z" class="cls-1" id="路径_16806"></path><ellipse ry="36.57" rx="201.14" cy="809.23" cx="512" class="cls-2" id="椭圆_770"></ellipse><path d="M146.28,483.07s-1.71,14,3,20.42c1.7,2.27,11.15,7,11.91,18.34.57,11.15-4,31.77-33.47,32.91-27.22,1.14-62.58-8.13-52.56-48.78,6.43-21.18,26.47-16.82,24.39-52.75-.36-24.58,12.1-49.92,20.62-48.78,7.75.94,8.32,13,13.8,22.87C137.56,434.09,147.58,442.41,146.28,483.07Z" class="cls-2" id="路径_16807"></path><path d="M117.32,588.58c0,2.64,4.91,3.4,4.91-1.89-.19-5.12-.36-20.24-1.13-28.16-.19-2.27-1.51-7.19-1.32-8.51.56-3,4.53-12.67,5.48-15.7a128.88,128.88,0,0,0,4.35-42.73c-1.32-19.67-2.65-19.67-4.73-19.47s0,11.53.37,18.72a124.53,124.53,0,0,1-6.81,51.81c-.37.94-2.65,4.34-5.49-1.14s-16.45-24.77-8.69-43.3c2.46-5.67-1.14-4.91-4,.57a29.65,29.65,0,0,0-2.65,16.82A95.58,95.58,0,0,0,110.12,546a37.25,37.25,0,0,1,5.48,9.46C117,561.73,117.32,588.58,117.32,588.58Z" class="cls-3" id="路径_16808"></path><path d="M935.89,536s-1.7,14,3,20.42c1.7,2.27,11.15,7,11.91,18.34.56,11.16-4,31.77-33.47,32.92-27.23,1.13-62.58-8.13-52.56-48.78,6.43-21.18,26.47-16.83,24.39-52.76-.37-24.58,12.1-49.91,20.61-48.78,7.76.94,8.32,13,13.8,22.88C927.18,487,937.2,495.36,935.89,536Z" class="cls-2" id="路径_16809"></path><path d="M908.83,641.52c0,2.64,4.91,3.4,4.91-1.89-.19-5.12-.37-20.24-1.13-28.16-.19-2.27-1.52-7.19-1.33-8.51.57-3,4.54-12.67,5.49-15.7a128.88,128.88,0,0,0,4.35-42.73c-1.33-19.66-2.65-19.66-4.73-19.47s0,11.53.36,18.72a124.36,124.36,0,0,1-6.8,51.81c-.37.94-2.65,4.35-5.49-1.14s-16.46-24.77-8.69-43.3c2.45-5.67-1.14-4.91-4,.57a29.73,29.73,0,0,0-2.64,16.82A95.37,95.37,0,0,0,901.62,599a37,37,0,0,1,5.49,9.46C908.27,614.67,908.83,641.52,908.83,641.52Z" class="cls-3" id="路径_16810"></path><circle r="24.39" cy="274.89" cx="134.92" class="cls-2" id="椭圆_767"></circle><circle r="18.91" cy="526.74" cx="35.26" class="cls-2" id="椭圆_768"></circle><circle r="34.03" cy="350.53" cx="871.02" class="cls-2" id="椭圆_769"></circle></g><g id="组_17018"><rect rx="21.94" height="307.2" width="460.8" y="180.2" x="281.6" class="cls-2" id="矩形_17745"></rect><rect rx="10.97" height="288.91" width="416.92" y="202.14" x="303.54" class="cls-4" id="矩形_19289"></rect><rect height="29.26" width="329.14" y="260.66" x="347.43" class="cls-2" id="矩形_17746"></rect><rect height="29.26" width="263.32" y="326.48" x="347.43" class="cls-2" id="矩形_17747"></rect><path d="M263.32,377.68h153.6l67.29,62.18H760.69a36.57,36.57,0,0,1,36.57,36.57L775.32,670.25a36.58,36.58,0,0,1-36.57,36.58H285.26a36.57,36.57,0,0,1-36.57-36.58l-21.95-256A36.58,36.58,0,0,1,263.32,377.68Z" class="cls-5" id="路径_16917"></path><g id="组_17021"><path d="M592.46,545.91h102.4a14.63,14.63,0,0,1,14.63,14.63h0a14.63,14.63,0,0,1-14.63,14.63H592.46a14.63,14.63,0,0,1-14.63-14.63h0A14.63,14.63,0,0,1,592.46,545.91Z" class="cls-4" id="矩形_17749"></path><path d="M592.46,604.43h102.4a14.63,14.63,0,0,1,14.63,14.62h0a14.63,14.63,0,0,1-14.63,14.63H592.46a14.63,14.63,0,0,1-14.63-14.63h0A14.63,14.63,0,0,1,592.46,604.43Z" class="cls-4" id="矩形_17748"></path><circle r="14.63" cy="560.54" cx="541.26" class="cls-4" id="椭圆_832"></circle><circle r="14.63" cy="619.05" cx="541.26" class="cls-4" id="椭圆_833"></circle></g><path d="M482.38,465.45l-.64-7.31c4.52-.4,9.34-1,14.32-1.69l1.05,7.25C492,464.46,487,465,482.38,465.45Zm25.67-3.5-1.28-7.22c4.57-.81,9.36-1.75,14.23-2.8l1.53,7.16c-4.94,1.07-9.8,2-14.47,2.86Zm25.27-5.3-1.7-7.13c4.58-1.1,9.32-2.29,14.09-3.56l1.88,7.08c-4.82,1.29-9.62,2.5-14.26,3.61Zm24.91-6.54-2-7.05c4.57-1.31,9.27-2.7,14-4.15l2.15,7c-4.77,1.46-9.5,2.87-14.12,4.19Zm24.61-7.52-2.25-7c4.55-1.46,9.2-3,13.81-4.62l2.38,6.93c-4.64,1.6-9.33,3.18-13.92,4.66Zm24.34-8.33-2.47-6.89c4.53-1.63,9.13-3.33,13.67-5.05l2.59,6.85c-4.57,1.74-9.21,3.45-13.78,5.11Zm24.07-9.06-2.68-6.82c4.5-1.77,9-3.6,13.54-5.45l2.78,6.78c-4.52,1.86-9.1,3.71-13.63,5.49ZM655,415.44l-2.87-6.74c4.47-1.91,9-3.88,13.35-5.85l3,6.69c-4.4,2-8.93,4-13.44,5.9ZM678.51,405l-3.07-6.65c4.43-2.06,8.86-4.16,13.17-6.25l3.19,6.58c-4.32,2.12-8.79,4.24-13.26,6.32Zm23.17-11.21-3.29-6.54c4.38-2.22,8.73-4.47,12.92-6.7l3.43,6.47c-4.21,2.26-8.61,4.53-13,6.77Zm22.77-12-3.55-6.41c4.32-2.4,8.57-4.83,12.62-7.22l3.71,6.32c-4.08,2.43-8.38,4.88-12.75,7.3Zm22.25-13-3.85-6.22c4.23-2.63,8.33-5.27,12.18-7.86l4.08,6.09c-3.91,2.61-8.08,5.31-12.38,8Zm21.53-14.33-4.27-6c4.09-2.94,8-5.88,11.5-8.74l4.59,5.71c-3.61,2.95-7.59,6-11.79,9Zm20.32-16.24-4.91-5.44a127.44,127.44,0,0,0,10.05-10.08l5.49,4.86a138.59,138.59,0,0,1-10.61,10.66Zm-74.38-7.29A98.39,98.39,0,0,1,699,329.47l1.26-7.22a91.05,91.05,0,0,0,14,1.27Zm11.3-.36-.57-7.32.4,0a72.27,72.27,0,0,0,13.3-2.36l2,7.06a78.58,78.58,0,0,1-14.67,2.6Zm-37.58-3.81a64,64,0,0,1-14-6.55l3.9-6.22a56.51,56.51,0,0,0,12.43,5.8ZM751.37,324l-3-6.71a79.94,79.94,0,0,0,12.21-6.78l4.09,6.08A88.36,88.36,0,0,1,751.41,324Zm54.83-5.56-6.08-4.06a45.54,45.54,0,0,0,6-12.12l7,2.08a52.5,52.5,0,0,1-6.86,14.1Zm-141.56-5.57a48.17,48.17,0,0,1-9.28-12.76l6.54-3.27a40.79,40.79,0,0,0,7.88,10.82Zm109.13-3.19L769,304.08a111.37,111.37,0,0,0,10.13-9.9l5.42,4.92a117.75,117.75,0,0,1-10.76,10.55ZM807,292.88a19.78,19.78,0,0,0-5.33-11l5.42-4.92a27.27,27.27,0,0,1,7.17,15Zm-15.19-2.44L786,286c2.56-3.33,5.08-6.92,7.52-10.68a73.93,73.93,0,0,0-12-5.85l2.65-6.83a79,79,0,0,1,13.74,6.78l-3.24,5.12,5.74,3.66c-2.74,4.34-5.62,8.46-8.54,12.27Zm-140.27-1.69a39,39,0,0,1,.27-16.09l7.11,1.69a31.56,31.56,0,0,0-.19,13ZM806.1,268.56,799.75,265c2.28-4.05,4.51-8.36,6.63-12.8l6.58,3.17c-2.17,4.59-4.48,9-6.83,13.24ZM771.39,266c-4.27-1.24-9-2.39-13.93-3.41l1.47-7.18c5.16,1.06,10,2.26,14.49,3.55Zm-108.62-.37-6-4.23a29.21,29.21,0,0,1,12.93-10.24l2.75,6.79a21.68,21.68,0,0,0-9.68,7.66Zm84.06-5c-4.54-.73-9.36-1.38-14.33-1.94l.82-7.29c5.08.58,10,1.25,14.66,2Zm-25.15-3c-4.69-.39-9.56-.73-14.47-1l.36-7.32c5,.26,9.95.59,14.71,1Zm-25.35-1.41c-4.56-.13-9.1-.2-13.49-.2h-.93l-.21-7.31h1.14c4.46,0,9.07.06,13.69.2Zm121.21-11.08-6.73-2.89c1.86-4.33,3.66-8.85,5.36-13.45l6.86,2.56c-1.71,4.68-3.56,9.32-5.46,13.76Zm9.17-24.27-7-2.32c1.51-4.54,3-9.2,4.27-13.85l7,2c-1.31,4.73-2.78,9.49-4.33,14.13ZM834,196.07l-7.09-1.78c2.14-8.58,3.12-14,3.13-14.06l7.2,1.29c0,.19-1,5.67-3.2,14.52Z" class="cls-6" id="路径_16918"></path><path d="M420.57,447.8c-9.64,0-42.85,1.58-65.69,26-6.5,8.44,39.28,13.4,53.35,13.68s46.34-5,39.44-20.69S430.21,447.8,420.57,447.8Z" class="cls-7" id="路径_16918-2"></path><path d="M397.49,469.45l-.58-3.61a456.64,456.64,0,0,1,62.9-5v3.66A453,453,0,0,0,397.49,469.45Z" class="cls-8" id="路径_16919"></path></g></g></svg>