<svg xmlns:xlink="http://www.w3.org/1999/xlink" xmlns="http://www.w3.org/2000/svg" version="1.1" viewBox="0 0 1024 1024" height="1024px" width="1024px">
    <title>缺省页_文件破损</title>
    <defs>
        <linearGradient id="linearGradient-1" y2="16.9761928%" x2="-4.64249164%" y1="81.0855308%" x1="100.372948%">
            <stop offset="0%" stop-color="#AEB7C4"></stop>
            <stop offset="100%" stop-color="#CFD5E0"></stop>
        </linearGradient>
        <linearGradient id="linearGradient-2" y2="6.67281201%" x2="5.63578598%" y1="89.7882444%" x1="98.248207%">
            <stop offset="0%" stop-color="#DCE2EC"></stop>
            <stop offset="100%" stop-color="#EEF1F5"></stop>
        </linearGradient>
        <linearGradient id="linearGradient-3" y2="100.703737%" x2="49.9684134%" y1="-2.3164557%" x1="49.9684134%">
            <stop offset="0%" stop-color="#FDFEFF"></stop>
            <stop offset="100%" stop-color="#F3F5F8"></stop>
        </linearGradient>
        <linearGradient id="linearGradient-4" y2="100.703737%" x2="49.9684134%" y1="-2.3164557%" x1="49.9684134%">
            <stop offset="0%" stop-color="#FDFEFF"></stop>
            <stop offset="100%" stop-color="#F3F5F8"></stop>
        </linearGradient>
        <linearGradient id="linearGradient-5" y2="6.67281201%" x2="4.06189833%" y1="89.7882444%" x1="99.9598851%">
            <stop offset="0%" stop-color="#DCE2EC"></stop>
            <stop offset="100%" stop-color="#EEF1F5"></stop>
        </linearGradient>
        <linearGradient id="linearGradient-6" y2="16.9761928%" x2="-4.64249164%" y1="81.0855308%" x1="100.372948%">
            <stop offset="0%" stop-color="#AEB7C4"></stop>
            <stop offset="100%" stop-color="#CFD5E0"></stop>
        </linearGradient>
        <linearGradient id="linearGradient-7" y2="100.703737%" x2="49.9684134%" y1="-2.3164557%" x1="49.9684134%">
            <stop offset="0%" stop-color="#FDFEFF"></stop>
            <stop offset="100%" stop-color="#F3F5F8"></stop>
        </linearGradient>
    </defs>
    <g fill-rule="evenodd" fill="none" stroke-width="1" stroke="none" id="异常页面插画">
        <g id="缺省页_文件破损">
            <rect height="1024" width="1024" y="0" x="0" id="bg"></rect>
            <g transform="translate(64.000000, 64.000000)" id="文件破损">
                <rect height="896" width="896" y="0" x="0" id="矩形"></rect>
                <g fill-rule="nonzero" transform="translate(0.000000, 112.000000)" id="29">
                    <path fill="url(#linearGradient-1)" id="Path" d="M611.693039,229.072598 C607.872623,246.189538 602.145492,262.656467 595.147217,277.751152 C576.701665,313.285052 549.344137,342.246625 514.995319,360.013575 C479.368372,379.080546 437.385707,385.652873 394.760486,377.130515 C295.520478,355.391279 231.271845,255.43413 252.266669,152.154705 C273.25451,48.8752799 369.316658,-17.5702243 469.192238,4.09678796 C504.819184,12.0413591 535.990143,29.8083091 562.069543,55.4476069 C605.330336,101.453896 623.775889,166.59938 611.693039,229.072598 Z"></path>
                    <path fill="url(#linearGradient-2)" id="Path" d="M391.297358,468.468677 C390.469526,468.468677 390.469526,469.332224 389.641694,469.332224 L312.673854,506.752615 C306.058041,510.206805 298.607554,506.752615 295.296226,499.772273 C291.984899,492.791931 295.296226,485.020004 301.918881,481.493851 L354.879597,456.235088 L338.329801,450.190255 L364.813579,370.959774 L306.885873,337.857121 L325.919164,258.698602 L246.467829,239.484671 L272.951607,174.214874 L257.229643,156.8 L33.7902935,264.743435 C4.82301937,278.704119 -8.4154491,315.260962 5.65085125,345.701011 L131.440247,636.428661 C144.678716,666.940672 179.440813,680.829394 208.401246,666.077125 L429.363941,559.860785 L442.60241,485.883551 L391.297358,468.468677 Z"></path>
                    <path fill="url(#linearGradient-3)" id="Path" d="M292.767013,496.919935 C296.073455,502.849974 303.512949,505.784426 310.119002,502.849974 L386.973285,471.060077 C387.799896,471.060077 387.799896,470.326464 388.626506,470.326464 L352.262475,459.2 L299.379897,480.65818 C292.767013,484.38738 289.460571,490.989897 292.767013,496.919935 Z"></path>
                    <path fill="url(#linearGradient-4)" id="Path" d="M261.628823,526.746962 L181.396527,558.841192 C174.500115,561.798051 166.733629,558.841192 163.281858,552.865875 C159.830086,546.890558 163.281858,540.176026 170.185401,537.219167 L250.410565,505.186538 C257.314108,502.168078 265.073462,505.186538 268.525234,511.100254 C271.977006,517.075571 268.525234,523.790103 261.628823,526.746962 Z"></path>
                    <path fill="url(#linearGradient-5)" id="Path" d="M840.674404,578.318839 L895.025814,266.962836 C900.875048,233.889689 879.76724,202.661825 848.272942,197.338893 L568.493696,145.6 L572.135801,169.730622 L515.324433,207.062115 L570.475329,269.233954 L510.903341,321.540627 L540.156344,382.151072 L474.987952,430.696207 L485.893766,445.103608 L511.463665,449.716815 C518.501879,450.781402 523.032302,458.020588 522.020986,465.330747 C520.62701,471.86021 514.777776,476.970224 508.853376,476.2605 L541.604986,521.540903 L490.888848,572.924935 L773.278383,626.154249 C805.155341,632.257877 835.556324,611.037124 840.674404,578.318839 Z"></path>
                    <path fill="#F5F9FF" id="Path" d="M652.770981,526.242282 L562.21883,509.977712 C554.541129,508.848228 549.599075,501.167737 550.709733,493.411946 C551.812936,485.656156 559.408643,480.686426 567.086344,481.740611 L657.638494,498.08048 C665.308741,499.134665 670.250796,506.815157 669.147592,514.570947 C668.044388,522.326738 660.448682,527.371767 652.770981,526.242282 Z"></path>
                    <path fill="#F5F9FF" id="Path" d="M771.516306,537.24435 L680.96547,520.983159 C673.295334,519.93405 668.345897,512.29054 669.456539,504.572095 C670.559727,496.853649 678.155323,491.832913 685.832913,492.956958 L776.383748,509.143213 C784.061338,510.267259 789.003321,517.910768 787.892679,525.629214 C786.789492,533.347659 779.611318,539.117759 771.516306,537.24435 Z"></path>
                    <path fill="url(#linearGradient-6)" id="Path" d="M841.166562,334.710808 C846.430812,304.245678 826.912935,275.168832 797.580353,269.692821 C768.24777,264.21681 740.194074,284.501188 734.929824,314.889192 C729.665573,345.354322 749.183451,374.431168 778.516033,379.907179 C807.848615,385.38319 835.902311,365.098812 841.166562,334.710808 Z"></path>
                    <path fill="#F5F9FF" id="Path" d="M776.395183,312.246579 C781.659772,281.853775 762.148074,252.772335 732.806169,247.295459 C703.471699,241.818583 675.423633,262.029026 670.159044,292.49897 C664.894455,322.968914 684.406153,352.050354 713.740622,357.52723 C743.082528,362.926967 771.130593,342.716523 776.395183,312.246579 Z"></path>
                    <path fill="#D5DDEA" id="Path" d="M528.794096,476.373333 C530.006475,466.119111 524.611797,455.964444 516.230924,454.471111 L485.783133,448 L513.570201,492.8 C521.047892,492.103111 528.460489,486.030222 528.794096,476.373333 Z"></path>
                    <path fill="#F5F9FF" id="Path" d="M426.409639,78.4 C410.616312,78.4 398.329759,92.263508 399.498684,108.581321 L408.27204,206.4882 C408.856503,216.172756 417.045397,224 426.409639,224 C435.767457,224 443.956352,216.172756 444.540814,206.4882 L453.320593,108.581321 C454.489518,91.6665148 442.202965,78.4 426.409639,78.4 Z"></path>
                    <path fill="#F5F9FF" id="Path" d="M431.807229,257.6 C419.810389,257.6 410.216867,267.570732 410.216867,280 C410.216867,292.429268 419.810389,302.4 431.807229,302.4 C443.797485,302.4 453.39759,292.429268 453.39759,280 C453.39759,267.570732 443.797485,257.6 431.807229,257.6 Z"></path>
                    <path fill="url(#linearGradient-7)" id="Path" d="M198.991113,389.291326 L119.711043,424.809948 C114.053395,427.32062 106.504998,423.628456 103.53382,416.834873 L76.8516236,355.840317 C73.8877462,349.046734 76.2457077,340.923972 81.9106557,338.339457 L160.482608,303.190052 C166.147556,300.67938 173.695953,304.371544 176.65983,311.165127 L203.342027,372.159683 C207.021323,378.657893 204.656061,386.780655 198.991113,389.291326 Z"></path>
                </g>
            </g>
        </g>
    </g>
</svg>