<svg width="656" height="656" viewBox="0 0 656 656" fill="none" xmlns="http://www.w3.org/2000/svg">
<g clip-path="url(#clip0_97_772)">
<path d="M78 102C133.094 101.886 188.187 101.797 243.281 101.745C249.78 101.738 256.279 101.732 262.778 101.725C264.072 101.724 265.366 101.723 266.699 101.721C287.67 101.699 308.642 101.66 329.613 101.614C351.12 101.567 372.626 101.54 394.132 101.529C407.411 101.523 420.69 101.501 433.969 101.46C443.065 101.434 452.161 101.426 461.258 101.432C466.512 101.436 471.766 101.431 477.02 101.404C481.825 101.38 486.63 101.378 491.435 101.395C493.178 101.398 494.921 101.391 496.664 101.375C499.025 101.356 501.384 101.366 503.745 101.385C505.059 101.383 506.373 101.381 507.727 101.379C511 102 511 102 513.307 104.438C514.145 105.706 514.145 105.706 515 107C517.339 108.646 517.339 108.646 519.938 110.062C542.672 124.043 555.954 146.718 562.035 172.164C568.522 202.679 564.416 237.741 547.264 264.191C543.7 269.292 539.448 273.672 535 278C534.175 278.811 533.35 279.622 532.5 280.457C527.228 285.416 521.632 289.387 515.469 293.176C512.629 294.985 512.629 294.985 511 299C368.11 299 225.22 299 78 299C79.4385 294.684 80.6113 291.627 82.8203 287.82C83.6228 286.428 83.6228 286.428 84.4414 285.008C84.997 284.056 85.5526 283.105 86.125 282.125C86.6883 281.15 87.2516 280.176 87.832 279.172C89.2165 276.778 90.6059 274.388 92 272C95.427 273.343 98.6092 274.808 101.812 276.625C102.998 277.294 102.998 277.294 104.207 277.976C104.799 278.314 105.39 278.652 106 279C105.555 278.168 105.111 277.337 104.652 276.48C104.086 275.394 103.521 274.307 102.938 273.187C102.085 271.569 102.085 271.569 101.215 269.918C100 267 100 267 101 264C103.328 262.316 103.328 262.316 106.25 260.562C120.312 252.068 128.656 239.497 132.75 223.687C133.193 221.798 133.611 219.902 134 218C134.184 217.125 134.369 216.249 134.559 215.348C137.378 193.966 135.144 170.812 121.863 153.16C115.557 145.841 108.096 140.19 100 135C101.492 130.028 103.605 125.581 106 121C104.735 121.758 104.735 121.758 103.445 122.531C102.35 123.181 101.254 123.831 100.125 124.5C99.0345 125.15 97.9439 125.799 96.8203 126.469C94 128 94 128 92 128C90.4878 125.829 90.4878 125.829 88.7422 122.82C88.117 121.746 87.4918 120.673 86.8477 119.566C86.1967 118.431 85.5457 117.295 84.875 116.125C84.2163 114.997 83.5576 113.869 82.8789 112.707C78 104.272 78 104.272 78 102Z" fill="#3A6FD8"/>
<path d="M143 356C285.89 356 428.78 356 576 356C574.539 359.654 573.121 362.716 571.18 366.082C570.645 367.013 570.11 367.945 569.559 368.904C569.003 369.864 568.447 370.824 567.875 371.812C567.312 372.792 566.748 373.771 566.168 374.779C564.782 377.188 563.392 379.595 562 382C558.573 380.657 555.391 379.192 552.188 377.375C551.397 376.929 550.607 376.483 549.793 376.023C549.201 375.686 548.61 375.348 548 375C548.433 375.831 548.866 376.663 549.312 377.52C550.148 379.15 550.148 379.15 551 380.812C551.835 382.431 551.835 382.431 552.688 384.082C554 387 554 387 554 390C552.164 391.289 552.164 391.289 549.625 392.625C534.221 401.471 525.908 414.344 521 431C515.768 451.603 517.845 477.265 528.598 495.746C535.374 505.887 543.77 512.589 554 519C553.176 523.951 551.323 527.58 549 532C553.29 530.02 557.58 528.04 562 526C564.341 529.933 566.673 533.871 569 537.812C570.002 539.492 570.002 539.492 571.023 541.205C571.971 542.815 571.971 542.815 572.938 544.457C573.524 545.447 574.111 546.437 574.715 547.456C576 550 576 550 576 553C521.034 553.114 466.068 553.203 411.102 553.255C404.617 553.262 398.133 553.268 391.649 553.275C390.359 553.276 389.068 553.277 387.738 553.279C366.815 553.3 345.892 553.34 324.969 553.386C303.512 553.432 282.055 553.46 260.599 553.47C247.35 553.477 234.103 553.499 220.854 553.54C211.779 553.566 202.704 553.574 193.629 553.568C188.387 553.564 183.145 553.569 177.903 553.596C173.109 553.62 168.315 553.622 163.521 553.604C161.782 553.602 160.043 553.609 158.304 553.624C155.948 553.644 153.595 553.634 151.239 553.615C149.273 553.618 149.273 553.618 147.267 553.621C144 553 144 553 141.728 550.595C141.158 549.739 140.587 548.882 140 548C138.005 546.519 135.958 545.105 133.875 543.75C127.755 539.651 122.264 535.173 117 530C116.314 529.327 115.628 528.654 114.922 527.961C93.8263 505.786 89.3252 475.144 89.9067 445.757C90.8492 417.898 102.078 392.017 122.25 372.812C127.252 368.362 132.531 365.04 138.348 361.789C141.379 360.06 141.379 360.06 143 356Z" fill="#3A6FD8"/>
<path d="M86 283C86.33 283.66 86.66 284.32 87 285C85.02 288.96 83.04 292.92 81 297C222.9 297 364.8 297 511 297C511 297.66 511 298.32 511 299C368.11 299 225.22 299 78 299C79.5005 294.498 80.705 291.518 83.125 287.625C83.9332 286.314 83.9332 286.314 84.7578 284.977C85.1677 284.324 85.5777 283.672 86 283Z" fill="#688BCF"/>
<path d="M574 549C574.66 549.33 575.32 549.66 576 550C576 550.99 576 551.98 576 553C433.44 553 290.88 553 144 553C143.67 552.34 143.34 551.68 143 551C285.23 551 427.46 551 574 551C574 550.34 574 549.68 574 549Z" fill="#688BCF"/>
<path d="M143 356C285.89 356 428.78 356 576 356C575.67 356.66 575.34 357.32 575 358C432.77 357.67 290.54 357.34 144 357C143.34 358.65 142.68 360.3 142 362C139.715 363.773 139.715 363.773 136.938 365.375C129.708 369.739 123.058 374.136 118 381C117.237 381.722 116.474 382.444 115.688 383.188C112.572 386.448 110.158 389.959 107.648 393.695C106.221 395.691 104.793 397.337 103 399C108.982 383.148 123.415 369.592 138.125 361.688C141.394 360.12 141.394 360.12 143 356Z" fill="#476DBD"/>
<path d="M78 102C133.094 101.886 188.187 101.797 243.281 101.745C249.78 101.738 256.279 101.732 262.778 101.725C264.072 101.724 265.366 101.723 266.699 101.721C287.67 101.699 308.642 101.66 329.613 101.614C351.12 101.567 372.626 101.54 394.132 101.529C407.411 101.523 420.69 101.501 433.969 101.46C443.065 101.434 452.161 101.426 461.258 101.432C466.512 101.436 471.766 101.431 477.02 101.404C481.825 101.38 486.63 101.378 491.435 101.395C493.178 101.398 494.921 101.391 496.664 101.375C499.025 101.356 501.384 101.366 503.745 101.385C505.059 101.383 506.373 101.381 507.727 101.379C511 102 511 102 513.282 104.425C513.849 105.275 514.416 106.124 515 107C517.619 108.79 517.619 108.79 520 110C518.515 110.495 518.515 110.495 517 111C511.444 106.889 511.444 106.889 510 104C455.509 103.931 401.019 103.878 346.528 103.847C340.102 103.843 333.675 103.839 327.249 103.835C325.969 103.834 324.69 103.834 323.371 103.833C302.628 103.82 281.885 103.796 261.142 103.768C239.872 103.74 218.603 103.724 197.334 103.718C184.2 103.714 171.065 103.7 157.931 103.676C148.936 103.66 139.941 103.655 130.946 103.659C125.749 103.661 120.552 103.658 115.355 103.642C110.604 103.628 105.854 103.627 101.103 103.637C99.3773 103.638 97.6519 103.635 95.9264 103.625C93.5941 103.613 91.2626 103.62 88.9303 103.631C87.6309 103.63 86.3315 103.628 84.9927 103.627C83.5113 103.812 83.5113 103.812 82 104C81.01 105.485 81.01 105.485 80 107C79.34 105.35 78.68 103.7 78 102Z" fill="#476EBD"/>
<path d="M137 362C137.66 362.66 138.32 363.32 139 364C138.443 364.364 137.886 364.727 137.312 365.102C126.665 371.937 126.665 371.937 118 381C117.237 381.722 116.474 382.444 115.688 383.188C112.572 386.448 110.158 389.959 107.648 393.695C106.221 395.691 104.793 397.337 103 399C109.125 382.77 122.989 371.341 137 362Z" fill="#4C74C5"/>
<path d="M563 193C563.33 193 563.66 193 564 193C564.279 203.485 564.383 213.755 562.625 224.125C562.436 225.251 562.436 225.251 562.243 226.4C561.604 229.843 560.968 232.048 559 235C558.902 228.848 558.902 228.848 559 227C559.495 226.505 559.495 226.505 560 226C560.21 223.858 560.368 221.711 560.5 219.562C560.89 213.22 560.89 213.22 562 211C562.15 209.627 562.248 208.247 562.316 206.867C562.358 206.062 562.4 205.256 562.443 204.426C562.483 203.584 562.522 202.742 562.562 201.875C562.606 201.026 562.649 200.176 562.693 199.301C562.8 197.201 562.9 195.1 563 193Z" fill="#4E75C4"/>
<path d="M86 283C86.33 283.66 86.66 284.32 87 285C86.0039 287.383 86.0039 287.383 84.5625 290.125C84.0894 291.035 83.6163 291.945 83.1289 292.883C82.7564 293.581 82.3838 294.28 82 295C81.34 295 80.68 295 80 295C81.5664 290.692 83.6834 286.938 86 283Z" fill="#4F77C6"/>
<path d="M92 272C95.6499 273.318 97.7895 274.592 101 277C97.7 276.67 94.4 276.34 91 276C91.33 274.68 91.66 273.36 92 272Z" fill="#557BC5"/>
<path d="M517 291C517.66 291.33 518.32 291.66 519 292C516.69 294.31 514.38 296.62 512 299C511.67 298.34 511.34 297.68 511 297C513 295 515 293 517 291Z" fill="#EDF9FF"/>
<path d="M102 271C104.154 273.622 105.401 275.644 106 279C103.525 278.01 103.525 278.01 101 277C101.66 276.67 102.32 276.34 103 276C102.67 274.35 102.34 272.7 102 271Z" fill="#E3F5FE"/>
<path d="M106 261C106 261.99 106 262.98 106 264C104.68 264.33 103.36 264.66 102 265C101.67 266.32 101.34 267.64 101 269C100.67 267.68 100.34 266.36 100 265C101.98 263.68 103.96 262.36 106 261Z" fill="#5077C1"/>
</g>
<defs>
<clipPath id="clip0_97_772">
<rect width="656" height="656" fill="white"/>
</clipPath>
</defs>
</svg>
