<svg width="656" height="656" viewBox="0 0 656 656" fill="none" xmlns="http://www.w3.org/2000/svg">
<g clip-path="url(#clip0_97_787)">
<path d="M143 356C286.22 356 429.44 356 577 356C572.208 364.985 567.604 373.577 562 382C557.033 380.112 552.618 377.619 548 375C550.31 379.62 552.62 384.24 555 389C552.618 390.423 552.618 390.423 550.188 391.875C534.879 401.733 525.245 414.149 521 432C516.805 454.156 517.453 479.088 530.312 498.438C537.015 507.178 544.491 513.472 554 519C553.133 524.14 551.182 528.284 549 533C552.96 530.69 556.92 528.38 561 526C563.757 528.757 565.252 530.934 567.137 534.289C567.714 535.313 568.29 536.336 568.885 537.391C569.777 538.992 569.777 538.992 570.688 540.625C571.597 542.238 571.597 542.238 572.525 543.883C577 551.856 577 551.856 577 553C521.906 553.114 466.813 553.203 411.719 553.255C405.22 553.262 398.721 553.268 392.222 553.275C390.281 553.277 390.281 553.277 388.301 553.279C367.33 553.3 346.358 553.34 325.387 553.386C303.88 553.432 282.374 553.46 260.868 553.47C247.589 553.477 234.31 553.499 221.031 553.54C211.935 553.566 202.839 553.574 193.742 553.568C188.488 553.564 183.234 553.569 177.98 553.596C173.175 553.62 168.37 553.622 163.565 553.604C161.822 553.602 160.079 553.609 158.336 553.624C155.975 553.644 153.616 553.634 151.255 553.615C149.284 553.618 149.284 553.618 147.273 553.621C144 553 144 553 141.693 550.561C141.134 549.716 140.576 548.871 140 548C137.661 546.354 137.661 546.354 135.063 544.938C127.858 540.52 121.976 534.921 116 529C115.319 528.332 114.639 527.665 113.938 526.977C93.4194 505.224 89.3412 474.332 89.9067 445.757C90.8085 419.101 101.185 393.116 120.507 374.552C126.199 369.357 132.212 364.953 139.039 361.352C141.436 359.932 141.436 359.932 143 356Z" fill="#4288F6"/>
<path d="M78 102C133.094 101.886 188.187 101.797 243.281 101.745C249.78 101.738 256.279 101.732 262.778 101.725C264.072 101.724 265.366 101.723 266.699 101.721C287.67 101.699 308.642 101.66 329.613 101.614C351.12 101.567 372.626 101.54 394.132 101.529C407.411 101.523 420.69 101.501 433.969 101.46C443.065 101.434 452.161 101.426 461.258 101.432C466.512 101.436 471.766 101.431 477.02 101.404C481.825 101.38 486.63 101.378 491.435 101.395C493.178 101.398 494.921 101.391 496.664 101.375C499.025 101.356 501.384 101.366 503.745 101.385C505.059 101.383 506.373 101.381 507.727 101.379C511 102 511 102 513.305 104.436C513.864 105.282 514.424 106.128 515 107C517.372 108.68 517.372 108.68 520 110.125C543.949 124.821 555.829 148.2 562.507 174.652C566.563 193.968 565.512 217.096 560 236C559.813 236.65 559.626 237.301 559.433 237.971C552.7 260.499 537.914 279.406 517.988 291.703C514.367 293.88 514.367 293.88 511.748 297.104C510 299 510 299 506.857 299.497C504.891 299.494 504.891 299.494 502.884 299.492C502.151 299.497 501.418 299.501 500.663 299.506C498.188 299.517 495.714 299.499 493.239 299.481C491.454 299.483 489.67 299.486 487.885 299.491C482.967 299.5 478.048 299.484 473.129 299.464C467.831 299.447 462.532 299.453 457.234 299.456C448.048 299.458 438.863 299.445 429.678 299.423C416.398 299.39 403.118 299.38 389.837 299.375C368.293 299.366 346.748 299.339 325.203 299.302C304.271 299.265 283.338 299.237 262.406 299.22C261.116 299.219 259.826 299.218 258.498 299.216C252.028 299.211 245.559 299.206 239.09 299.201C185.393 299.16 131.697 299.089 78 299C79.8652 293.265 82.3756 288.401 85.375 283.187C85.8571 282.317 86.3392 281.446 86.8359 280.549C87.5475 279.308 87.5475 279.308 88.2734 278.043C88.9142 276.914 88.9142 276.914 89.5679 275.762C91 274 91 274 92.9956 273.171C96.1454 272.902 98.0668 274.372 100.75 275.937C101.735 276.503 102.72 277.069 103.734 277.652C104.856 278.319 104.856 278.319 106 279C105.555 278.168 105.111 277.337 104.652 276.48C104.086 275.394 103.521 274.307 102.938 273.187C102.085 271.569 102.085 271.569 101.215 269.918C100 267 100 267 101 264C103.293 262.351 103.293 262.351 106.188 260.625C121.18 251.313 129.501 237.969 133.815 220.954C138.42 199.44 135.902 174.757 124 156C117.432 147.27 109.129 140.852 100 135C101.492 130.028 103.605 125.581 106 121C104.735 121.758 104.735 121.758 103.445 122.531C102.35 123.181 101.254 123.831 100.125 124.5C99.0345 125.15 97.9439 125.799 96.8203 126.469C94 128 94 128 92 128C90.4878 125.829 90.4878 125.829 88.7422 122.82C88.117 121.746 87.4918 120.673 86.8477 119.566C86.1967 118.431 85.5457 117.295 84.875 116.125C84.2163 114.997 83.5576 113.869 82.8789 112.707C78 104.272 78 104.272 78 102Z" fill="#4288F6"/>
<path d="M90 276C90.33 276.66 90.66 277.32 91 278C87.9304 284.139 84.4584 290.071 81 296C293.85 296.495 293.85 296.495 511 297C510.67 297.66 510.34 298.32 510 299C367.44 299 224.88 299 78 299C79.3571 294.929 80.2834 292.194 82.3828 288.695C82.8275 287.948 83.2723 287.2 83.7305 286.43C84.4208 285.289 84.4208 285.289 85.125 284.125C85.5929 283.341 86.0609 282.558 86.543 281.75C87.6902 279.83 88.8426 277.914 90 276Z" fill="#6F9EE5"/>
<path d="M137 545C141.718 546.53 141.718 546.53 143.227 549.047C144.92 551.32 144.92 551.32 148.117 551.497C149.416 551.495 150.715 551.494 152.053 551.492C152.779 551.497 153.506 551.501 154.254 551.506C156.706 551.517 159.157 551.499 161.609 551.481C163.377 551.483 165.145 551.486 166.913 551.491C171.787 551.5 176.659 551.484 181.533 551.464C186.782 551.447 192.032 551.453 197.281 551.456C206.381 551.458 215.481 551.445 224.581 551.423C237.738 551.39 250.895 551.38 264.053 551.375C285.398 551.366 306.743 551.34 328.088 551.302C348.826 551.265 369.565 551.237 390.303 551.22C391.581 551.219 392.859 551.218 394.175 551.217C400.584 551.211 406.994 551.206 413.403 551.201C466.602 551.16 519.801 551.089 573 551C573.33 549.68 573.66 548.36 574 547C574.99 548.98 575.98 550.96 577 553C521.906 553.114 466.813 553.203 411.719 553.255C405.22 553.262 398.721 553.268 392.222 553.275C390.281 553.277 390.281 553.277 388.301 553.279C367.33 553.3 346.358 553.34 325.387 553.386C303.88 553.432 282.374 553.46 260.868 553.47C247.589 553.477 234.31 553.499 221.031 553.54C211.935 553.566 202.839 553.574 193.742 553.568C188.488 553.564 183.234 553.569 177.98 553.596C173.175 553.62 168.37 553.622 163.565 553.604C161.822 553.602 160.079 553.609 158.336 553.624C155.975 553.644 153.616 553.634 151.255 553.615C149.284 553.618 149.284 553.618 147.273 553.621C144 553 144 553 141.656 550.575C141.109 549.725 140.563 548.875 140 548C139.018 546.983 138.025 545.974 137 545Z" fill="#6691D1"/>
<path d="M561 172C561.33 172 561.66 172 562 172C563.799 180.655 564.315 189.101 564.261 197.918C564.25 199.998 564.261 202.077 564.273 204.156C564.281 212.284 563.656 220.034 562 228C561.67 228 561.34 228 561 228C560.973 225.896 560.954 223.792 560.938 221.688C560.926 220.516 560.914 219.344 560.902 218.137C561 215 561 215 562 212C562.094 210.02 562.131 208.037 562.133 206.055C562.134 204.896 562.135 203.737 562.137 202.543C562.133 201.333 562.129 200.122 562.125 198.875C562.129 197.657 562.133 196.439 562.137 195.184C562.135 194.027 562.134 192.871 562.133 191.68C562.132 190.615 562.131 189.55 562.129 188.453C562.277 186.054 562.277 186.054 561 185C560.927 182.814 560.916 180.625 560.938 178.438C560.947 177.24 560.956 176.042 560.965 174.809C560.976 173.882 560.988 172.955 561 172Z" fill="#5A8EDF"/>
<path d="M561 526C563.829 528.829 564.376 529.381 565 533C564.588 532.484 564.175 531.969 563.75 531.438C562.143 529.782 562.143 529.782 560.188 530.125C557.839 531.026 557.839 531.026 555.062 532.5C552.283 533.862 550.038 534.553 547 535C547 533.35 547 531.7 547 530C547.66 530 548.32 530 549 530C549 530.99 549 531.98 549 533C552.96 530.69 556.92 528.38 561 526Z" fill="#5A8EDF"/>
<path d="M545 394C545.66 394.33 546.32 394.66 547 395C542.05 399.95 537.1 404.9 532 410C531.34 409.67 530.68 409.34 530 409C534.719 403.599 539.304 398.382 545 394Z" fill="#E3F4FE"/>
<path d="M550 528C550.33 528.66 550.66 529.32 551 530C552.65 529.67 554.3 529.34 556 529C553.312 531.252 551.354 532.882 548 534C548.66 532.02 549.32 530.04 550 528Z" fill="#E5FAFF"/>
<path d="M548 375C550.915 376.074 552.778 376.778 555 379C553.35 379.33 551.7 379.66 550 380C549.34 378.35 548.68 376.7 548 375Z" fill="#DAF2FD"/>
</g>
<defs>
<clipPath id="clip0_97_787">
<rect width="656" height="656" fill="white"/>
</clipPath>
</defs>
</svg>
