<svg width="64" height="21" viewBox="0 0 64 21" fill="none" xmlns="http://www.w3.org/2000/svg">
<g filter="url(#filter0_di_431_617)">
<circle cx="9" cy="10" r="6" fill="#34C759"/>
</g>
<path d="M23.834 6.642H25.57V13.18C25.57 13.4693 25.6073 13.6887 25.682 13.838C25.766 13.978 25.9387 14.0713 26.2 14.118C26.4613 14.1647 26.844 14.188 27.348 14.188C27.4973 14.188 27.7213 14.188 28.02 14.188C28.328 14.188 28.6687 14.188 29.042 14.188C29.4247 14.188 29.8073 14.188 30.19 14.188C30.582 14.188 30.9367 14.188 31.254 14.188C31.5713 14.188 31.8093 14.188 31.968 14.188C32.3413 14.188 32.6353 14.16 32.85 14.104C33.074 14.0387 33.2467 13.922 33.368 13.754C33.4987 13.586 33.5967 13.3433 33.662 13.026C33.7273 12.7087 33.788 12.2933 33.844 11.78C33.9933 11.864 34.166 11.9527 34.362 12.046C34.5673 12.1393 34.7727 12.2187 34.978 12.284C35.1927 12.3493 35.3793 12.4007 35.538 12.438C35.4633 13.1007 35.356 13.6513 35.216 14.09C35.076 14.5287 34.88 14.8787 34.628 15.14C34.376 15.4013 34.04 15.588 33.62 15.7C33.2 15.812 32.6727 15.868 32.038 15.868C31.926 15.868 31.7487 15.868 31.506 15.868C31.2633 15.868 30.9833 15.868 30.666 15.868C30.3487 15.868 30.022 15.868 29.686 15.868C29.35 15.868 29.0233 15.868 28.706 15.868C28.398 15.868 28.1227 15.868 27.88 15.868C27.6373 15.868 27.4647 15.868 27.362 15.868C26.4567 15.868 25.7473 15.7887 25.234 15.63C24.7207 15.4807 24.3567 15.2147 24.142 14.832C23.9367 14.44 23.834 13.8893 23.834 13.18V6.642ZM24.828 8.546H32.57V10.198H24.828V8.546ZM23.274 3.898H33.704V10.856H31.954V5.564H23.274V3.898ZM39.332 7.076H46.598V8.602H39.332V7.076ZM36.728 9.61H49.272V11.178H36.728V9.61ZM40.116 10.87H41.936C41.8707 11.514 41.7633 12.116 41.614 12.676C41.4647 13.2267 41.2267 13.7307 40.9 14.188C40.5827 14.636 40.1347 15.0373 39.556 15.392C38.9773 15.7467 38.2307 16.0453 37.316 16.288C37.26 16.1387 37.176 15.9707 37.064 15.784C36.9613 15.5973 36.8447 15.4107 36.714 15.224C36.5833 15.0467 36.4573 14.902 36.336 14.79C37.1387 14.6127 37.778 14.398 38.254 14.146C38.7393 13.894 39.1033 13.6093 39.346 13.292C39.598 12.9653 39.7753 12.6013 39.878 12.2C39.99 11.7893 40.0693 11.346 40.116 10.87ZM43.728 10.59H45.422V14.006C45.422 14.23 45.4547 14.3747 45.52 14.44C45.5947 14.496 45.758 14.524 46.01 14.524C46.066 14.524 46.1547 14.524 46.276 14.524C46.3973 14.524 46.5327 14.524 46.682 14.524C46.8313 14.524 46.9713 14.524 47.102 14.524C47.2327 14.524 47.3353 14.524 47.41 14.524C47.5593 14.524 47.6713 14.4867 47.746 14.412C47.83 14.3373 47.886 14.1787 47.914 13.936C47.9513 13.684 47.9793 13.3153 47.998 12.83C48.1193 12.914 48.2687 12.998 48.446 13.082C48.6233 13.166 48.8053 13.2407 48.992 13.306C49.188 13.3713 49.3607 13.4273 49.51 13.474C49.454 14.146 49.356 14.6687 49.216 15.042C49.076 15.4247 48.8753 15.686 48.614 15.826C48.362 15.9753 48.012 16.05 47.564 16.05C47.48 16.05 47.354 16.05 47.186 16.05C47.0273 16.05 46.85 16.05 46.654 16.05C46.4673 16.05 46.29 16.05 46.122 16.05C45.9633 16.05 45.842 16.05 45.758 16.05C45.2167 16.05 44.7967 15.9893 44.498 15.868C44.2087 15.7467 44.008 15.5367 43.896 15.238C43.784 14.9393 43.728 14.538 43.728 14.034V10.59ZM42.062 3.114H43.854V5.662H42.062V3.114ZM36.98 4.458H49.006V7.79H47.214V6.054H38.688V7.79H36.98V4.458ZM52.548 8.378H55.782V9.904H52.548V8.378ZM55.138 8.378H56.762C56.762 8.378 56.762 8.41533 56.762 8.49C56.762 8.56467 56.762 8.65333 56.762 8.756C56.762 8.84933 56.762 8.92867 56.762 8.994C56.7433 9.98333 56.72 10.7953 56.692 11.43C56.664 12.0553 56.6173 12.5453 56.552 12.9C56.496 13.2453 56.4167 13.488 56.314 13.628C56.174 13.8053 56.0247 13.9313 55.866 14.006C55.7167 14.0807 55.5393 14.1367 55.334 14.174C55.1473 14.2113 54.9093 14.2347 54.62 14.244C54.34 14.244 54.032 14.2393 53.696 14.23C53.6867 13.9873 53.64 13.7167 53.556 13.418C53.472 13.1193 53.3693 12.8673 53.248 12.662C53.5 12.6807 53.7333 12.6947 53.948 12.704C54.172 12.7133 54.34 12.718 54.452 12.718C54.5453 12.718 54.6247 12.7087 54.69 12.69C54.7647 12.662 54.8253 12.6153 54.872 12.55C54.9373 12.466 54.984 12.2933 55.012 12.032C55.0493 11.7613 55.0773 11.3553 55.096 10.814C55.1147 10.2633 55.1287 9.53533 55.138 8.63V8.378ZM59.338 3.982L60.36 2.974C60.6213 3.10467 60.8967 3.25867 61.186 3.436C61.4753 3.61333 61.7507 3.79067 62.012 3.968C62.2827 4.14533 62.502 4.318 62.67 4.486L61.592 5.606C61.4333 5.44733 61.228 5.27 60.976 5.074C60.724 4.878 60.4533 4.68667 60.164 4.5C59.8747 4.304 59.5993 4.13133 59.338 3.982ZM60.99 7.594L62.698 8C62.11 9.82 61.3073 11.43 60.29 12.83C59.2727 14.2207 58.0687 15.3453 56.678 16.204C56.6033 16.0827 56.4913 15.9333 56.342 15.756C56.1927 15.588 56.0387 15.4153 55.88 15.238C55.7213 15.07 55.5813 14.93 55.46 14.818C56.804 14.09 57.9427 13.11 58.876 11.878C59.8093 10.6367 60.514 9.20867 60.99 7.594ZM52.632 5.2H63.44V6.852H52.632V5.2ZM51.512 5.2H53.276V9.33C53.276 9.85267 53.2573 10.4267 53.22 11.052C53.1827 11.668 53.1127 12.3027 53.01 12.956C52.9073 13.6 52.7533 14.2207 52.548 14.818C52.352 15.4153 52.0953 15.952 51.778 16.428C51.6847 16.3067 51.5447 16.1713 51.358 16.022C51.1807 15.8727 50.9987 15.7233 50.812 15.574C50.6347 15.434 50.4807 15.336 50.35 15.28C50.7047 14.72 50.9613 14.0947 51.12 13.404C51.288 12.704 51.3953 11.9993 51.442 11.29C51.4887 10.5807 51.512 9.92267 51.512 9.316V5.2ZM57.196 3.114H58.96C58.9413 4.262 58.974 5.38667 59.058 6.488C59.142 7.58933 59.2633 8.62067 59.422 9.582C59.59 10.534 59.786 11.3787 60.01 12.116C60.234 12.844 60.4813 13.4133 60.752 13.824C61.0227 14.2347 61.298 14.44 61.578 14.44C61.7367 14.44 61.858 14.2487 61.942 13.866C62.0353 13.4833 62.1007 12.8533 62.138 11.976C62.334 12.1627 62.5627 12.3447 62.824 12.522C63.0947 12.6993 63.342 12.83 63.566 12.914C63.482 13.782 63.356 14.454 63.188 14.93C63.02 15.3967 62.796 15.7187 62.516 15.896C62.236 16.0733 61.8767 16.162 61.438 16.162C60.934 16.162 60.4767 15.9893 60.066 15.644C59.6647 15.2987 59.3053 14.818 58.988 14.202C58.68 13.586 58.414 12.8627 58.19 12.032C57.966 11.2013 57.7793 10.3007 57.63 9.33C57.49 8.35933 57.3827 7.35133 57.308 6.306C57.2427 5.25133 57.2053 4.18733 57.196 3.114Z" fill="#34C759"/>
<defs>
<filter id="filter0_di_431_617" x="0" y="2" width="18" height="18" filterUnits="userSpaceOnUse" color-interpolation-filters="sRGB">
<feFlood flood-opacity="0" result="BackgroundImageFix"/>
<feColorMatrix in="SourceAlpha" type="matrix" values="0 0 0 0 0 0 0 0 0 0 0 0 0 0 0 0 0 0 127 0" result="hardAlpha"/>
<feOffset dy="1"/>
<feGaussianBlur stdDeviation="1.5"/>
<feComposite in2="hardAlpha" operator="out"/>
<feColorMatrix type="matrix" values="0 0 0 0 0 0 0 0 0 0 0 0 0 0 0 0 0 0 0.15 0"/>
<feBlend mode="normal" in2="BackgroundImageFix" result="effect1_dropShadow_431_617"/>
<feBlend mode="normal" in="SourceGraphic" in2="effect1_dropShadow_431_617" result="shape"/>
<feColorMatrix in="SourceAlpha" type="matrix" values="0 0 0 0 0 0 0 0 0 0 0 0 0 0 0 0 0 0 127 0" result="hardAlpha"/>
<feOffset dy="1"/>
<feGaussianBlur stdDeviation="1.5"/>
<feComposite in2="hardAlpha" operator="arithmetic" k2="-1" k3="1"/>
<feColorMatrix type="matrix" values="0 0 0 0 0 0 0 0 0 0 0 0 0 0 0 0 0 0 0.15 0"/>
<feBlend mode="normal" in2="shape" result="effect2_innerShadow_431_617"/>
</filter>
</defs>
</svg>
