<svg t="1721124907716" class="icon" viewBox="0 0 1024 1024" version="1.1" xmlns="http://www.w3.org/2000/svg" p-id="6119"
    width="20" height="20">
    <path
        d="M366.8992 790.2208c0 22.528 18.432 40.96 40.96 40.96h208.384c22.528 0 40.96-18.432 40.96-40.96v-23.9616H366.8992v23.9616zM512 115.3024c-166.7072 0-301.8752 135.168-301.8752 301.8752 0 114.176 63.3856 213.4016 156.7744 264.8064v43.3152h290.304V681.984c93.3888-51.3024 156.7744-150.6304 156.7744-264.8064-0.1024-166.7072-135.2704-301.8752-301.9776-301.8752zM592.6912 862.3104H431.3088c-11.264 0-20.48 9.216-20.48 20.48v5.4272c0 11.264 9.216 20.48 20.48 20.48h161.28c11.264 0 20.48-9.216 20.48-20.48v-5.4272c0.1024-11.264-9.1136-20.48-20.3776-20.48z"
        p-id="6120" fill="#8a8a8a"></path>
</svg>