<svg t="1717680812187" class="icon" viewBox="-100 -100 1224 1224" version="1.1" xmlns="http://www.w3.org/2000/svg" p-id="7890"
    width="24" height="24">
    <path
        d="M511.999269 0c4.608 0 9.289143 1.755429 13.165714 5.046857 42.422857 36.644571 185.051429 144.237714 405.650286 150.454857 11.117714 0.438857 20.187429 9.508571 20.041142 21.065143V605.622857C950.856411 797.622857 668.232411 1024 511.999269 1024c-160.621714 0-438.857143-226.377143-438.857143-418.377143V176.347429c0-11.483429 9.069714-20.626286 20.187428-20.918858C314.001554 149.284571 456.703269 41.691429 498.833554 4.900571A20.626286 20.626286 0 0 1 511.999269 0z m-24.356572 283.209143l-130.194286 270.336h204.214858L487.496411 712.704l75.044572 34.962286 129.024-277.065143H489.324983l72.996571-151.552-74.678857-35.84z"
        fill="currentColor"></path>
</svg>