<svg width="24" height="24" viewBox="0 0 24 24" fill="none" xmlns="http://www.w3.org/2000/svg">
<g clip-path="url(#clip0_584_1576)">
<path fill-rule="evenodd" clip-rule="evenodd" d="M5 7.5C5 6.11929 6.11929 5 7.5 5H16.5C17.8807 5 19 6.11929 19 7.5V16.5C19 17.8807 17.8807 19 16.5 19H7.5C6.11929 19 5 17.8807 5 16.5V7.5Z" fill="black"/>
<rect x="17" y="13" width="2" height="6" rx="1" transform="rotate(180 17 13)" fill="white"/>
<rect x="17" y="9" width="6" height="2" rx="1" transform="rotate(180 17 9)" fill="white"/>
<path d="M10.0094 11.5002C10.115 10.9619 10.885 10.9619 10.9906 11.5002L11.1735 12.4321C11.2126 12.6315 11.3685 12.7874 11.5679 12.8265L12.4998 13.0094C13.0381 13.115 13.0381 13.885 12.4998 13.9906L11.5679 14.1735C11.3685 14.2126 11.2126 14.3685 11.1735 14.5679L10.9906 15.4998C10.885 16.0381 10.115 16.0381 10.0094 15.4998L9.82647 14.5679C9.78735 14.3685 9.63148 14.2126 9.43212 14.1735L8.50019 13.9906C7.9619 13.885 7.9619 13.115 8.50019 13.0094L9.43212 12.8265C9.63148 12.7874 9.78735 12.6315 9.82647 12.4321L10.0094 11.5002Z" fill="white"/>
</g>
<defs>
<clipPath id="clip0_584_1576">
<rect width="14" height="14" fill="white" transform="translate(5 5)"/>
</clipPath>
</defs>
</svg>
